<svg width="109" height="102" viewBox="0 0 109 102" fill="none" xmlns="http://www.w3.org/2000/svg">
<path d="M78.5983 46.0504L78.598 46.0487C77.297 38.8985 71.0778 33.7083 63.8101 33.7083H44.458C37.189 33.7083 30.9704 38.8988 29.6709 46.0559L29.6706 46.0574L22.9865 83.5208H20.9258C17.2163 83.5208 14.1992 86.5378 14.1992 90.2473V98.5494C14.1992 99.9716 15.3523 101.125 16.7747 101.125H91.4934C92.9156 101.125 94.0689 99.9716 94.0689 98.5494V90.2473C94.0689 86.5378 91.0518 83.5208 87.3424 83.5208H85.2817L78.5983 46.0504ZM34.7403 46.9699C34.7403 46.9697 34.7404 46.9695 34.7404 46.9692C35.5939 42.27 39.6804 38.8593 44.458 38.8593H63.8101C68.5873 38.8593 72.6746 42.2704 73.5286 46.9629C73.5286 46.9632 73.5287 46.9634 73.5287 46.9637L80.0492 83.5208H28.2189L34.7403 46.9699ZM88.9179 95.9739H19.3503V90.2473C19.3503 89.379 20.0575 88.6718 20.9258 88.6718H20.9537H20.9829H21.0133H21.045H21.0778H21.1119H21.1472H21.1837H21.2214H21.2603H21.3004H21.3417H21.3842H21.4278H21.4727H21.5187H21.5658H21.6141H21.6636H21.7142H21.7659H21.8188H21.8729H21.928H21.9843H22.0417H22.1002H22.1598H22.2205H22.2824H22.3453H22.4093H22.4744H22.5405H22.6078H22.6761H22.7454H22.8159H22.8874H22.9599H23.0335H23.1081H23.1838H23.2605H23.3382H23.4169H23.4966H23.5774H23.6592H23.7419H23.8257H23.9104H23.9962H24.0829H24.1706H24.2592H24.3489H24.4394H24.531H24.6235H24.7169H24.8113H24.9066H25.0029H25.1H25.1981H25.2971H25.3971H25.4979H25.5996H25.7022H25.8058H25.9102H26.0155H26.1216H26.2287H26.3366H26.4453H26.5549H26.6654H26.7767H26.8889H27.0019H27.1157H27.2304H27.3459H27.4622H27.5793H27.6972H27.816H27.9355H28.0558H28.1769H28.2988H28.4214H28.5449H28.6691H28.7941H28.9198H29.0463H29.1735H29.3015H29.4302H29.5596H29.6898H29.8207H29.9523H30.0847H30.2177H30.3515H30.4859H30.621H30.7569H30.8934H31.0306H31.1684H31.307H31.4462H31.586H31.7266H31.8677H32.0095H32.152H32.2951H32.4388H32.5831H32.7281H32.8737H33.0199H33.1667H33.3141H33.4621H33.6106H33.7598H33.9095H34.0599H34.2108H34.3622H34.5142H34.6668H34.82H34.9736H35.1278H35.2826H35.4379H35.5937H35.75H35.9069H36.0642H36.2221H36.3805H36.5394H36.6987H36.8586H37.0189H37.1797H37.341H37.5027H37.6649H37.8276H37.9907H38.1543H38.3183H38.4827H38.6476H38.8129H38.9786H39.1448H39.3114H39.4783H39.6457H39.8135H39.9816H40.1502H40.3191H40.4884H40.6581H40.8282H40.9986H41.1694H41.3405H41.512H41.6838H41.856H42.0285H42.2013H42.3745H42.548H42.7217H42.8958H43.0702H43.2449H43.4199H43.5952H43.7708H43.9466H44.1228H44.2992H44.4758H44.6528H44.8299H45.0074H45.185H45.3629H45.5411H45.7195H45.8981H46.0769H46.2559H46.4352H46.6146H46.7943H46.9742H47.1542H47.3344H47.5149H47.6954H47.8762H48.0571H48.2382H48.4195H48.6009H48.7824H48.9641H49.1459H49.3279H49.5099H49.6921H49.8745H50.0569H50.2394H50.4221H50.6048H50.7877H50.9706H51.1536H51.3367H51.5198H51.703H51.8863H52.0696H52.253H52.4365H52.62H52.8035H52.987H53.1706H53.3542H53.5379H53.7215H53.9052H54.0888H54.2725H54.4561H54.6397H54.8233H55.0069H55.1905H55.3741H55.5576H55.741H55.9244H56.1078H56.2911H56.4744H56.6575H56.8407H57.0237H57.2067H57.3895H57.5723H57.755H57.9376H58.1201H58.3025H58.4847H58.6668H58.8489H59.0308H59.2125H59.3941H59.5756H59.7569H59.9381H60.1191H60.2999H60.4806H60.6611H60.8414H61.0215H61.2015H61.3812H61.5608H61.7401H61.9193H62.0982H62.2769H62.4554H62.6336H62.8117H62.9895H63.167H63.3443H63.5213H63.6981H63.8746H64.0509H64.2269H64.4026H64.578H64.7531H64.928H65.1025H65.2768H65.4507H65.6243H65.7976H65.9706H66.1433H66.3156H66.4876H66.6592H66.8305H67.0015H67.1721H67.3423H67.5122H67.6816H67.8508H68.0195H68.1878H68.3558H68.5234H68.6905H68.8573H69.0236H69.1896H69.3551H69.5201H69.6848H69.849H70.0128H70.1761H70.339H70.5014H70.6634H70.8249H70.9859H71.1465H71.3066H71.4661H71.6252H71.7839H71.942H72.0996H72.2567H72.4132H72.5693H72.7248H72.8798H73.0343H73.1882H73.3416H73.4945H73.6467H73.7985H73.9496H74.1002H74.2502H74.3997H74.5485H74.6968H74.8445H74.9916H75.1381H75.2839H75.4292H75.5738H75.7178H75.8612H76.004H76.1461H76.2875H76.4284H76.5685H76.7081H76.8469H76.9851H77.1226H77.2594H77.3956H77.5311H77.6658H77.7999H77.9333H78.066H78.1979H78.3292H78.4597H78.5895H78.7185H78.8469H78.9744H79.1013H79.2274H79.3527H79.4773H79.6011H79.7241H79.8463H79.9678H80.0885H80.2084H80.3275H80.4458H80.5633H80.68H80.7959H80.9109H81.0251H81.1385H81.2511H81.3628H81.4737H81.5837H81.6929H81.8012H81.9086H82.0152H82.1209H82.2257H82.3297H82.4327H82.5349H82.6361H82.7365H82.8359H82.9345H83.0321H83.1288H83.2245H83.3193H83.4132H83.5062H83.5982H83.6892H83.7793H83.8684H83.9565H84.0437H84.1299H84.2151H84.2994H84.3826H84.4648H84.5461H84.6263H84.7055H84.7837H84.8609H84.937H85.0121H85.0862H85.1592H85.2312H85.3021H85.372H85.4408H85.5086H85.5753H85.6409H85.7054H85.7688H85.8311H85.8924H85.9525H86.0116H86.0695H86.1263H86.182H86.2365H86.29H86.3422H86.3934H86.4434H86.4923H86.54H86.5865H86.6319H86.6761H86.7191H86.7609H86.8016H86.8411H86.8793H86.9164H86.9523H86.9869H87.0204H87.0526H87.0836H87.1134H87.1419H87.1692H87.1953H87.2201H87.2436H87.2659H87.2869H87.3067H87.3252H87.3424C88.2107 88.6718 88.9179 89.379 88.9179 90.2473V95.9739Z" fill="#7C8BFE" stroke="#7C8BFE"/>
<path d="M67.7332 61.4947L67.7332 61.4947C67.4791 60.0953 68.4071 58.7548 69.8067 58.5005C71.2047 58.245 72.5472 59.1745 72.8013 60.5742L67.7332 61.4947ZM67.7332 61.4947L70.778 78.2545C70.778 78.2545 70.778 78.2545 70.778 78.2545C71.0341 79.6651 72.3855 80.5815 73.7723 80.3283C75.172 80.0742 76.1006 78.7334 75.8461 77.334C75.8461 77.334 75.8461 77.334 75.8461 77.3339L72.8013 60.5743L67.7332 61.4947Z" fill="#7C8BFE" stroke="#7C8BFE"/>
<path d="M105.191 50.3124H87.3411C85.9189 50.3124 84.7656 51.4657 84.7656 52.888C84.7656 54.3102 85.9189 55.4635 87.3411 55.4635H105.191C106.613 55.4635 107.766 54.3102 107.766 52.888C107.766 51.4657 106.613 50.3124 105.191 50.3124Z" fill="#7C8BFE" stroke="#7C8BFE"/>
<path d="M20.925 50.3124H3.07552C1.65303 50.3124 0.5 51.4657 0.5 52.888C0.5 54.3102 1.65303 55.4635 3.07552 55.4635H20.925C22.3475 55.4635 23.5005 54.3102 23.5005 52.888C23.5005 51.4657 22.3475 50.3124 20.925 50.3124Z" fill="#7C8BFE" stroke="#7C8BFE"/>
<path d="M91.177 15.8432L91.177 15.8431C90.171 14.8377 88.5408 14.8378 87.5347 15.8431L87.5346 15.8432L75.7934 27.5844C74.7876 28.5902 74.7877 30.221 75.7933 31.2269L75.7935 31.2271C76.7997 32.2327 78.4297 32.2324 79.4358 31.2271L79.4359 31.227L91.1771 19.4858C92.183 18.4798 92.1831 16.849 91.177 15.8432Z" fill="#7C8BFE" stroke="#7C8BFE"/>
<path d="M32.474 27.5846L32.474 27.5845L20.7328 15.8433L20.7327 15.8432C19.7268 14.8379 18.0963 14.8375 17.0903 15.8433L17.0903 15.8433C16.0845 16.8491 16.0845 18.4799 17.0902 19.4858L17.0903 19.4858L28.8315 31.227L28.8316 31.2271C29.8377 32.2327 31.468 32.2328 32.4739 31.2271L32.474 31.227C33.4797 30.2213 33.4797 28.5905 32.474 27.5846Z" fill="#7C8BFE" stroke="#7C8BFE"/>
<path d="M54.1341 0.5C52.7119 0.5 51.5586 1.65327 51.5586 3.07552V19.6797C51.5586 21.1019 52.7119 22.2552 54.1341 22.2552C55.5564 22.2552 56.7096 21.1019 56.7096 19.6797V3.07552C56.7096 1.65327 55.5564 0.5 54.1341 0.5Z" fill="#7C8BFE" stroke="#7C8BFE"/>
<path d="M68.6615 50.3124C67.2396 50.3124 66.0859 51.4661 66.0859 52.888C66.0859 54.3098 67.2396 55.4635 68.6615 55.4635C70.0833 55.4635 71.237 54.3098 71.237 52.888C71.237 51.4661 70.0833 50.3124 68.6615 50.3124Z" fill="#7C8BFE" stroke="#7C8BFE"/>
</svg>
