<svg width="119" height="111" viewBox="0 0 119 111" fill="none" xmlns="http://www.w3.org/2000/svg">
<path d="M96.1992 92.5H93.4367L85.9084 50.292C84.507 42.5902 77.8084 37 69.9801 37H48.4183C40.5887 37 33.8908 42.5905 32.491 50.2999L24.9617 92.5H22.1992C18.3739 92.5 15.2617 95.6122 15.2617 99.4375V108.688C15.2617 109.964 16.297 111 17.5742 111H100.824C102.101 111 103.137 109.964 103.137 108.688V99.4375C103.137 95.6122 100.025 92.5 96.1992 92.5ZM37.0429 51.1192C38.0417 45.618 42.8258 41.625 48.4183 41.625H69.9801C75.5719 41.625 80.357 45.6182 81.3564 51.112L88.7386 92.5H29.6598L37.0429 51.1192ZM98.5117 106.375H19.8867V99.4375C19.8867 98.1624 20.9241 97.125 22.1992 97.125C27.3961 97.125 93.0503 97.125 96.1992 97.125C97.4743 97.125 98.5117 98.1624 98.5117 99.4375V106.375Z" fill="#6DA0FF"/>
<path d="M82.8439 85.1493L79.4515 66.4758C79.2232 65.2188 78.0172 64.3844 76.7629 64.6138C75.5061 64.842 74.6727 66.0457 74.9009 67.3023L78.2934 85.9757C78.5232 87.2421 79.7368 88.0653 80.9819 87.8378C82.2387 87.6095 83.0724 86.4056 82.8439 85.1493Z" fill="#6DA0FF"/>
<path d="M116.087 55.5H96.1992C94.9223 55.5 93.8867 56.5355 93.8867 57.8125C93.8867 59.0895 94.9223 60.125 96.1992 60.125H116.087C117.364 60.125 118.399 59.0895 118.399 57.8125C118.399 56.5355 117.364 55.5 116.087 55.5Z" fill="#6DA0FF"/>
<path d="M22.2 55.5H2.3125C1.03531 55.5 0 56.5355 0 57.8125C0 59.0895 1.03531 60.125 2.3125 60.125H22.2C23.4772 60.125 24.5125 59.0895 24.5125 57.8125C24.5125 56.5355 23.4772 55.5 22.2 55.5Z" fill="#6DA0FF"/>
<path d="M100.08 16.9319C99.1772 16.0291 97.7134 16.0291 96.8099 16.9319L83.7281 30.0137C82.825 30.9167 82.825 32.381 83.7281 33.2843C84.6315 34.1873 86.0951 34.1871 86.9986 33.2843L100.08 20.2025C100.984 19.2992 100.984 17.8349 100.08 16.9319Z" fill="#6DA0FF"/>
<path d="M34.6703 30.0137L21.5885 16.9319C20.6852 16.0291 19.2212 16.0289 18.3179 16.9319C17.4149 17.8349 17.4149 19.2992 18.3179 20.2025L31.3997 33.2843C32.3032 34.1873 33.767 34.1873 34.6703 33.2843C35.5733 32.3812 35.5733 30.917 34.6703 30.0137Z" fill="#6DA0FF"/>
<path d="M59.1992 0C57.9223 0 56.8867 1.03554 56.8867 2.3125V20.8125C56.8867 22.0895 57.9223 23.125 59.1992 23.125C60.4762 23.125 61.5117 22.0895 61.5117 20.8125V2.3125C61.5117 1.03554 60.4762 0 59.1992 0Z" fill="#6DA0FF"/>
<path d="M75.3867 55.5C74.1102 55.5 73.0742 56.536 73.0742 57.8125C73.0742 59.089 74.1102 60.125 75.3867 60.125C76.6632 60.125 77.6992 59.089 77.6992 57.8125C77.6992 56.536 76.6632 55.5 75.3867 55.5Z" fill="#6DA0FF"/>
</svg>
