<svg width="111" height="90" viewBox="0 0 111 90" fill="none" xmlns="http://www.w3.org/2000/svg">
<path d="M110.458 58.6744L99.9 47.9738V28.125V16.875C99.9 11.7056 95.7504 7.5 90.65 7.5H48.1V5.625C48.1 2.52375 45.6099 0 42.55 0H27.75C24.6901 0 22.2 2.52375 22.2 5.625V7.5H9.25C4.14955 7.5 0 11.7056 0 16.875V76.875C0 82.0444 4.14955 86.25 9.25 86.25H15.799C17.8321 88.545 20.7718 90 24.05 90C27.3282 90 30.266 88.545 32.301 86.25H80.549C82.5822 88.545 85.5218 90 88.8 90C92.0782 90 95.016 88.545 97.051 86.25H101.75C106.85 86.25 111 82.0444 111 76.875V60C111 59.5031 110.806 59.025 110.458 58.6744ZM25.9 5.625C25.9 4.59188 26.7288 3.75 27.75 3.75H42.55C43.5712 3.75 44.4 4.59188 44.4 5.625V7.5H25.9V5.625ZM24.05 86.25C19.9689 86.25 16.65 82.8863 16.65 78.75C16.65 74.6137 19.9689 71.25 24.05 71.25C28.1311 71.25 31.45 74.6137 31.45 78.75C31.45 82.8863 28.1311 86.25 24.05 86.25ZM88.8 86.25C84.7189 86.25 81.4 82.8863 81.4 78.75C81.4 74.6137 84.7189 71.25 88.8 71.25C92.8811 71.25 96.2 74.6137 96.2 78.75C96.2 82.8863 92.8811 86.25 88.8 86.25ZM107.3 76.875C107.3 79.9763 104.81 82.5 101.75 82.5H99.2525C99.6651 81.3244 99.9 80.0663 99.9 78.75C99.9 72.5456 94.9217 67.5 88.8 67.5C82.6783 67.5 77.7 72.5456 77.7 78.75C77.7 80.0663 77.9368 81.3244 78.3475 82.5H34.5025C34.915 81.3244 35.15 80.0663 35.15 78.75C35.15 72.5456 30.1717 67.5 24.05 67.5C17.9283 67.5 12.95 72.5456 12.95 78.75C12.95 80.0663 13.1868 81.3244 13.5975 82.5H9.25C6.1901 82.5 3.7 79.9763 3.7 76.875V16.875C3.7 13.7737 6.1901 11.25 9.25 11.25H24.05H46.25H90.65C93.7099 11.25 96.2 13.7737 96.2 16.875V26.25H75.85C74.827 26.25 74 27.09 74 28.125V48.75C74 49.785 74.827 50.625 75.85 50.625H97.2841L107.3 60.7763V76.875ZM96.2 30V46.875H77.7V30H96.2Z" fill="#70A2FF"/>
<path d="M54.1364 32.1818H44.8182V22.8636C44.8182 21.8349 43.9851 21 42.9545 21H28.0455C27.0149 21 26.1818 21.8349 26.1818 22.8636V32.1818H16.8636C15.833 32.1818 15 33.0167 15 34.0455V48.9545C15 49.9833 15.833 50.8182 16.8636 50.8182H26.1818V60.1364C26.1818 61.1651 27.0149 62 28.0455 62H42.9545C43.9851 62 44.8182 61.1651 44.8182 60.1364V50.8182H54.1364C55.167 50.8182 56 49.9833 56 48.9545V34.0455C56 33.0167 55.167 32.1818 54.1364 32.1818ZM52.2727 47.0909H42.9545C41.924 47.0909 41.0909 47.9258 41.0909 48.9545V58.2727H29.9091V48.9545C29.9091 47.9258 29.076 47.0909 28.0455 47.0909H18.7273V35.9091H28.0455C29.076 35.9091 29.9091 35.0742 29.9091 34.0455V24.7273H41.0909V34.0455C41.0909 35.0742 41.924 35.9091 42.9545 35.9091H52.2727V47.0909Z" fill="#70A2FF"/>
<path d="M87 56H79V60H87V56Z" fill="#70A2FF"/>
</svg>
