<svg width="98" height="99" viewBox="0 0 98 99" fill="none" xmlns="http://www.w3.org/2000/svg">
<path d="M73.9264 98.9569C74.3976 98.9784 74.8473 99 75.3184 99C80.351 99 84.5484 97.1675 87.8464 93.5671C87.8678 93.5455 87.9107 93.5024 87.9321 93.4808C89.1099 92.0579 90.4377 90.7644 91.8511 89.4061C92.8148 88.4791 93.7999 87.5305 94.7207 86.5388C99.1109 81.9251 99.0895 76.0825 94.6779 71.6413L82.4712 59.3526C80.3724 57.1535 77.8669 55.9893 75.2114 55.9893C72.5773 55.9893 70.0502 57.132 67.8873 59.3094L60.6703 66.5749C60.0279 66.2084 59.364 65.885 58.7215 65.5616C57.9077 65.152 57.1582 64.7639 56.4943 64.3543C49.877 60.1287 43.8807 54.6095 38.1414 47.5166C35.2503 43.8515 33.3443 40.7901 31.9952 37.6424C33.8797 35.9177 35.6358 34.1283 37.3276 32.382C37.9486 31.7568 38.5697 31.11 39.2121 30.4632C43.795 25.8495 43.795 20.1363 39.2121 15.5442L33.1516 9.44294C32.4449 8.73149 31.7596 8.02004 31.0743 7.33014C29.7251 5.95035 28.3331 4.50588 26.9412 3.21233C24.8424 1.09952 22.3583 0 19.7242 0C17.1115 0 14.5845 1.09952 12.4001 3.21233L4.79768 10.8443C2.01368 13.647 0.428949 17.0534 0.0863033 20.9987C-0.299173 25.9142 0.600272 31.1315 2.91313 37.4268C6.48949 47.15 11.8647 56.1834 19.8313 65.8419C29.5324 77.4839 41.1824 86.6897 54.5027 93.179C59.5781 95.6152 66.3668 98.461 73.9264 98.9569ZM23.8788 62.4571C16.2977 53.2729 11.2223 44.7354 7.86007 35.5943C5.78279 29.9673 5.01183 25.5908 5.33306 21.4299C5.56863 18.735 6.59657 16.4928 8.52395 14.574L16.0836 6.96363C17.24 5.84255 18.5035 5.26045 19.7456 5.26045C20.9663 5.26045 22.1655 5.84255 23.322 6.98519C24.6711 8.25719 25.9775 9.59386 27.348 10.9952C28.0333 11.7067 28.74 12.4397 29.4682 13.1511L35.5287 19.2524C38.0129 21.7533 38.0129 24.211 35.5287 26.7119C34.8862 27.3587 34.2438 28.0054 33.6227 28.6522C31.7382 30.571 29.9821 32.382 28.0333 34.1283C27.9905 34.1714 27.9691 34.1929 27.9263 34.2361C26.1916 35.9824 26.4486 37.664 26.8769 38.9144C26.8983 38.9791 26.9197 39.0222 26.9412 39.0869C28.5045 42.8813 30.7103 46.4817 34.0939 50.7936C40.1973 58.3608 46.6219 64.2465 53.7318 68.7955C54.6098 69.3561 55.5306 69.8304 56.4301 70.2831C57.2439 70.6927 57.9934 71.0808 58.6573 71.4904C58.743 71.5335 58.8072 71.5767 58.8929 71.6198C59.5781 71.9647 60.242 72.1372 60.9273 72.1372C62.6191 72.1372 63.6899 71.0592 64.0325 70.6927L71.635 63.0392C72.7914 61.875 74.0335 61.2713 75.2542 61.2713C76.7533 61.2713 77.9739 62.2199 78.7663 63.0392L91.0159 75.3711C94.014 78.3894 92.6434 81.1058 90.9516 82.8953C90.095 83.8223 89.1956 84.6847 88.2533 85.6117C86.8185 86.9915 85.3408 88.436 83.9916 90.0529C81.6788 92.5538 78.9376 93.718 75.3613 93.718C75.0186 93.718 74.6546 93.6964 74.3119 93.6749C67.6517 93.2437 61.4841 90.635 56.837 88.4144C44.1591 82.27 33.0874 73.5385 23.8788 62.4571Z" fill="#6DA0FF"/>
</svg>
