<svg width="129" height="129" viewBox="0 0 129 129" fill="none" xmlns="http://www.w3.org/2000/svg">
<path d="M102.683 86.6098V81.7705H97.9831V86.5035H93.2837V81.7705H88.5842V86.5035H83.8848V91.2365H88.5842V105.436H83.8848V110.169H88.5842V114.902H93.2837V110.169H97.9831V114.902H102.683V110.062C106.011 109.497 108.557 106.581 108.557 103.069C108.557 101.249 107.868 99.5938 106.748 98.3361C107.868 97.0783 108.557 95.423 108.557 93.603C108.557 90.0926 106.011 87.1766 102.683 86.6098ZM93.2837 91.2365H101.508C102.804 91.2365 103.857 92.2979 103.857 93.603C103.857 94.9082 102.804 95.9695 101.508 95.9695H93.2837V91.2365ZM101.508 105.436H93.2837V100.703H101.508C102.804 100.703 103.857 101.764 103.857 103.069C103.857 104.374 102.804 105.436 101.508 105.436Z" fill="#F7D7DA"/>
<path d="M108.933 72.1145L94.6283 57.4861L97.4369 54.7386L107.656 65.2429C107.913 50.3189 100.393 35.6814 86.6765 27.4677C66.2256 15.2211 39.7147 21.873 27.4681 42.324C15.2215 62.7749 21.8735 89.2857 42.3244 101.532C49.3002 105.71 56.9823 107.685 64.5632 107.664L64.1385 111.529C56.0227 111.475 47.8141 109.316 40.3425 104.842C18.0638 91.5009 10.8173 62.6207 24.1584 40.342C37.4995 18.0633 66.3798 10.8169 88.6584 24.158C103.149 32.8351 111.269 48.0778 111.509 63.8144L120.632 54.8931L123.38 57.7017L108.933 72.1145Z" fill="#F7D7DA"/>
<path d="M66.5144 85.2951V81.7374C69.9265 81.5472 72.5289 80.5579 74.5337 78.7696C76.5385 76.9812 77.5409 74.6031 77.5409 71.8446C77.5409 68.8767 76.7313 66.6888 74.9385 65.3C73.1265 63.721 70.5241 62.5224 66.7072 61.7424H66.5144V52.6295C69.1168 53.0291 71.3337 53.8091 73.5313 55.4072L76.7506 51.0505C73.5313 48.8626 70.1192 47.6831 66.5144 47.4928V45.1147H63.5072V47.4928C60.5 47.6831 57.8783 48.6724 55.8734 50.4607C53.8686 52.249 52.8662 54.6271 52.8662 57.3857C52.8662 60.1443 53.6759 62.3322 55.4686 63.721C57.0686 65.1098 59.8831 66.2893 63.4879 67.0884V76.3915C60.6735 75.992 57.859 74.6031 55.0638 72.2251L51.459 76.3915C55.0638 79.5686 59.0927 81.3379 63.5072 81.7374V85.2951H66.5144ZM66.7072 68.0586C68.712 68.6484 69.9265 69.2382 70.7168 69.847C71.3144 70.646 71.7193 71.426 71.7193 72.6246C71.7193 73.8231 71.3144 74.6032 70.312 75.4022C69.3096 76.2012 68.0951 76.5817 66.7072 76.791V68.0586ZM59.6903 59.5546C59.0927 58.9648 58.6879 57.9755 58.6879 56.9862C58.6879 55.8067 59.0927 55.0076 59.8831 54.2086C60.8855 53.4096 61.8879 53.0291 63.4879 52.8198V61.3429C61.4831 60.7341 60.2879 60.1443 59.6903 59.5546Z" fill="#F7D7DA"/>
</svg>
