<svg width="92" height="116" viewBox="0 0 92 116" fill="none" xmlns="http://www.w3.org/2000/svg">
<path d="M41.521 103.65H1.91195C0.854756 103.646 0 102.788 0 101.731V21.1102L0.556716 19.7512L19.7512 0.556716L21.1065 0H74.8511C75.9111 0 76.7706 0.859442 76.7706 1.91945V59.3438H72.9317V3.8389H23.0259V21.114C23.0259 22.174 22.1665 23.0334 21.1065 23.0334H3.8314V99.8115H41.521V103.65Z" fill="#6BA0FE"/>
<path d="M13.4273 30.7112H63.333C64.393 30.7112 65.2525 29.8518 65.2525 28.7918C65.2525 27.7318 64.393 26.8723 63.333 26.8723H13.4273C12.3673 26.8723 11.5078 27.7318 11.5078 28.7918C11.5078 29.8518 12.3673 30.7112 13.4273 30.7112Z" fill="#6BA0FE"/>
<path d="M13.4273 42.2279H63.333C64.393 42.2279 65.2525 41.3685 65.2525 40.3085C65.2525 39.2485 64.393 38.389 63.333 38.389H13.4273C12.3673 38.389 11.5078 39.2485 11.5078 40.3085C11.5078 41.3685 12.3673 42.2279 13.4273 42.2279Z" fill="#6BA0FE"/>
<path d="M13.4273 51.8252H63.333C64.393 51.8252 65.2525 50.9657 65.2525 49.9057C65.2525 48.8457 64.393 47.9863 63.333 47.9863H13.4273C12.3673 47.9863 11.5078 48.8457 11.5078 49.9057C11.5078 50.9657 12.3673 51.8252 13.4273 51.8252Z" fill="#6BA0FE"/>
<path d="M65.2525 61.4224C65.2525 60.3624 64.393 59.503 63.333 59.503H13.4273C12.3673 59.503 11.5078 60.3624 11.5078 61.4224C11.5078 62.4825 12.3673 63.3419 13.4273 63.3419H63.333C64.393 63.3419 65.2525 62.4825 65.2525 61.4224Z" fill="#6BA0FE"/>
<path d="M83.9826 72.4533C81.3924 69.5814 77.9477 68 74.2844 68C70.6205 68 67.1763 69.5814 64.5861 72.4533L63.4971 73.6605L62.4081 72.4533C59.8174 69.5814 56.3727 68 52.7094 68C49.0455 68 45.6013 69.5814 43.0111 72.4533C37.663 78.3808 37.663 88.0264 43.0111 93.9544L62.4751 115.531C62.7573 115.844 63.1267 116 63.4966 116C63.8665 116 64.2359 115.844 64.5191 115.531L83.9826 93.9549C86.5734 91.0835 88 87.265 88 83.2041C88 79.1427 86.5734 75.3247 83.9826 72.4533ZM81.9391 91.6895L63.4971 112.133L45.0547 91.6895C40.8336 87.0104 40.8336 79.3974 45.0547 74.7182C47.0992 72.4517 49.8176 71.2035 52.7094 71.2035C55.6006 71.2035 58.3195 72.4517 60.3645 74.7182L62.4751 77.0578C63.0396 77.6835 63.9537 77.6835 64.5182 77.0578L66.6287 74.7182C68.6738 72.4517 71.3921 71.2035 74.2839 71.2035C77.1756 71.2035 79.8945 72.4517 81.9391 74.7182C86.1601 79.3974 86.1601 87.0104 81.9391 91.6895Z" fill="#6BA0FE"/>
<path d="M40.5882 88H35.4118C34.632 88 34 88.8953 34 90C34 91.1047 34.632 92 35.4118 92H40.5882C41.368 92 42 91.1047 42 90C42 88.8953 41.368 88 40.5882 88Z" fill="#6BA0FE"/>
<path d="M86.0309 88.4001H72.1188L69.9538 83.241C69.7906 82.8509 69.4349 82.6137 69.0303 82.6263C68.6354 82.6446 68.2904 82.9202 68.1586 83.324L63.7338 96.8342L58.3544 80.6932C58.2217 80.2948 57.88 80.0212 57.4885 80.0013C57.0699 79.9803 56.7331 80.2192 56.5665 80.6029L52.9518 88.9251H40.9691C40.4337 88.9251 40 89.3955 40 89.9751C40 90.5547 40.6377 90.9742 41.1731 90.9742H53.7711C54.1467 90.9742 54.2843 90.7904 54.4442 90.4224L57.3257 83.7881L62.8316 100.307C62.9702 100.723 63.3345 101 63.743 101C63.744 101 63.7449 101 63.7449 101C64.1544 100.999 64.5187 100.719 64.6554 100.301L69.1829 86.4766L70.6128 89.8843C70.7698 90.2597 71.3193 90.4492 71.6992 90.4492H86.2354C86.7703 90.4492 87 90.0297 87 89.4501C87 88.8705 86.5659 88.4001 86.0309 88.4001Z" fill="#6BA0FE"/>
<path d="M90.6 88H86.4C85.6267 88 85 88.6715 85 89.5C85 90.3285 85.6267 91 86.4 91H90.6C91.3733 91 92 90.3285 92 89.5C92 88.6715 91.3733 88 90.6 88Z" fill="#6BA0FE"/>
</svg>
