<svg width="62" height="50" viewBox="0 0 62 50" fill="none" xmlns="http://www.w3.org/2000/svg">
<path d="M62 32.483C62 26.527 57.1542 21.6812 51.1982 21.6812C50.5608 21.6812 49.9279 21.7367 49.3059 21.8469C49.1815 19.8532 48.6362 17.8951 47.7103 16.1357C47.4416 15.6251 46.81 15.4289 46.2991 15.6977C45.7885 15.9666 45.5924 16.5982 45.8611 17.109C46.7656 18.8275 47.2435 20.7699 47.2435 22.7263C47.2435 22.8313 47.2399 22.9358 47.2362 23.0398L47.2331 23.139C47.2227 23.4769 47.3765 23.7993 47.6458 24.0037C47.9152 24.2081 48.2666 24.2697 48.59 24.1684C49.4308 23.9049 50.3083 23.7712 51.1982 23.7712C56.0021 23.7712 59.9104 27.6795 59.9104 32.4834C59.9104 34.2176 59.3972 35.8944 58.4466 37.3175C58.4102 37.2781 58.3718 37.2409 58.3345 37.2024C58.2932 37.1596 58.2521 37.1164 58.2099 37.0745C58.1818 37.0469 58.153 37.0203 58.1246 36.9932C58.0586 36.9301 57.9919 36.868 57.9237 36.8073C57.9131 36.7978 57.9021 36.7886 57.8914 36.7792C56.6192 35.6632 54.9543 34.9845 53.1329 34.9845C52.7527 34.9845 52.3734 35.0144 51.9992 35.0734C50.8718 33.7985 49.245 33.0551 47.5234 33.0551C47.2438 33.0551 46.9656 33.0746 46.69 33.1133C46.1235 31.4996 45.11 30.0537 43.7692 28.9684C42.1291 27.6407 40.0618 26.9095 37.9481 26.9095C33.1775 26.9095 29.2377 30.5346 28.7391 35.1751C28.4643 35.1433 28.1869 35.1272 27.9082 35.1272C27.7909 35.1272 27.6744 35.1305 27.5586 35.1361C27.5142 35.1381 27.4705 35.1424 27.4263 35.1453C27.356 35.15 27.2856 35.1546 27.2159 35.1614C27.1598 35.1667 27.1043 35.1741 27.0486 35.1808C26.9925 35.1875 26.9366 35.1941 26.8809 35.2022C26.8172 35.2115 26.754 35.2222 26.6909 35.2332C26.6456 35.2411 26.6002 35.2487 26.5551 35.2575C26.4843 35.2711 26.4142 35.2861 26.3442 35.3019C26.3096 35.3097 26.2749 35.3175 26.2407 35.3258C26.1621 35.3446 26.0841 35.3647 26.0065 35.3861C25.9845 35.3923 25.9626 35.3985 25.9406 35.4048C25.8523 35.4301 25.7646 35.4567 25.6778 35.4853C25.6725 35.4871 25.6672 35.4889 25.6617 35.4908C23.4499 36.2243 21.7143 38.0092 21.0494 40.2513C21.0483 40.2547 21.0474 40.2582 21.0465 40.2616C21.017 40.361 20.9894 40.4612 20.9645 40.5624C20.9644 40.5628 20.9644 40.5634 20.9642 40.5637C20.9129 40.7712 20.8693 40.9816 20.8366 41.1957H10.9159C6.04912 41.1957 2.08971 37.2362 2.08971 32.3693C2.08971 27.5026 6.04912 23.5432 10.9159 23.5432C11.6659 23.5432 12.4132 23.638 13.1371 23.8251C13.5606 23.9339 14.0081 23.7683 14.2573 23.4084C15.5351 21.5636 17.6348 20.4622 19.8738 20.4622C20.6098 20.4622 21.3377 20.5805 22.0376 20.8141C22.3173 20.9076 22.6239 20.8784 22.8813 20.7331C23.1385 20.5882 23.3222 20.3411 23.3873 20.0532C23.6261 18.9968 23.9962 18.0019 24.4772 17.0821C24.5068 17.0425 24.5341 17.0008 24.5582 16.9569C26.109 14.1114 28.779 11.9774 31.8837 11.102C31.9207 11.0916 31.9568 11.079 31.9919 11.0648C33.0054 10.7931 34.0695 10.6478 35.1653 10.6478C38.5458 10.6478 41.6799 12.0086 43.9901 14.4797C44.3841 14.9011 45.0453 14.9235 45.4669 14.5293C45.8886 14.1352 45.9106 13.474 45.5166 13.0525C42.8461 10.1963 39.0732 8.55818 35.1653 8.55818C34.1476 8.55818 33.1369 8.66947 32.1516 8.88453C31.1343 7.2276 29.3296 6.19673 27.3387 6.19673C27.2042 6.19673 27.0699 6.20145 26.9363 6.21078C26.4345 2.70402 23.4111 0 19.7678 0C16.7075 0 14.0538 1.86981 13.0009 4.65593C12.8505 4.64164 12.6987 4.63438 12.5468 4.63438C11.2218 4.63438 9.96723 5.18669 9.07319 6.13921C8.82229 6.10579 8.56944 6.08896 8.31636 6.08896C5.16998 6.08896 2.61042 8.64876 2.61042 11.7951C2.61042 14.9415 5.1701 17.5013 8.31636 17.5013H15.7687C16.3457 17.5013 16.8135 17.0335 16.8135 16.4565C16.8135 15.8795 16.3457 15.4117 15.7687 15.4117H8.3166C6.32255 15.4117 4.70025 13.7893 4.70025 11.7951C4.70025 9.80084 6.32267 8.17855 8.3166 8.17855C8.62369 8.17855 8.93018 8.21742 9.22807 8.29444C9.65178 8.40354 10.0987 8.23728 10.3477 7.87763C10.8482 7.15531 11.6703 6.72397 12.5468 6.72397C12.8355 6.72397 13.1206 6.77023 13.3943 6.86154C13.6743 6.95514 13.9809 6.92535 14.2378 6.78052C14.4952 6.63557 14.6789 6.38842 14.7439 6.10058C15.2773 3.73901 17.343 2.08959 19.7677 2.08959C22.6084 2.08959 24.9196 4.40067 24.9196 7.24129C24.9196 7.28561 24.9178 7.32944 24.9164 7.37328L24.9148 7.4176C24.9037 7.75581 25.0573 8.07877 25.3268 8.28354C25.5962 8.48831 25.9482 8.54994 26.2713 8.44907C26.616 8.34106 26.9752 8.28632 27.3386 8.28632C28.397 8.28632 29.3723 8.74842 30.0365 9.51991C30.0001 9.53419 29.9646 9.55018 29.9284 9.56471C29.8622 9.59099 29.7969 9.6192 29.7311 9.64645C29.6281 9.68944 29.5252 9.73231 29.4235 9.77759C29.3019 9.83136 29.1818 9.88827 29.0615 9.94543C29.0202 9.96529 28.9786 9.9843 28.9374 10.0046C27.9884 10.4686 27.0886 11.037 26.261 11.707C25.1399 12.6146 24.1695 13.6878 23.3774 14.877C23.3455 14.9247 23.3149 14.9731 23.2837 15.0211C23.2173 15.1233 23.1518 15.226 23.088 15.33C23.071 15.3576 23.0527 15.3844 23.036 15.412H19.1643C18.5873 15.412 18.1195 15.8798 18.1195 16.4568C18.1195 17.0338 18.5873 17.5016 19.1643 17.5016H21.9986C21.8619 17.8447 21.7377 18.1931 21.6283 18.5466C21.0515 18.4306 20.4645 18.3722 19.8734 18.3722C17.1882 18.3722 14.6571 19.5843 12.9697 21.6467C12.2937 21.5182 11.6057 21.4532 10.9156 21.4532C4.89691 21.4527 0 26.3498 0 32.3686C0 38.3877 4.89691 43.2847 10.9159 43.2847H20.8255C21.3148 46.7561 24.3035 49.4359 27.9079 49.4359H46.2003C46.7773 49.4359 47.2451 48.9681 47.2451 48.3911C47.2451 47.8141 46.7773 47.3463 46.2003 47.3463H27.9079C25.1153 47.3463 22.8435 45.0744 22.8435 42.2819C22.8435 42.2523 22.8452 42.223 22.8457 42.1934C22.8469 42.1271 22.8485 42.0607 22.8521 41.9949C22.8531 41.9797 22.8546 41.9646 22.8556 41.9492C22.8603 41.8779 22.8657 41.8068 22.8733 41.7363C22.874 41.7295 22.8751 41.7229 22.8759 41.7161C23.1594 39.1911 25.314 37.2168 27.908 37.2168C28.4258 37.2168 28.9361 37.2946 29.4249 37.4478C29.7483 37.5492 30.1004 37.4874 30.3697 37.2825C30.6393 37.0776 30.7927 36.7547 30.7817 36.4162L30.7796 36.359C30.7774 36.2969 30.775 36.2348 30.775 36.172C30.775 32.2169 33.9927 28.999 37.9478 28.999C41.2692 28.999 44.2108 31.3478 44.9421 34.5841C45.0073 34.8721 45.1911 35.1191 45.4483 35.2641C45.7057 35.409 46.0122 35.4384 46.2921 35.345C46.69 35.212 47.1043 35.1448 47.5231 35.1448C48.7973 35.1448 49.992 35.7717 50.719 36.8215C50.9685 37.1817 51.4156 37.348 51.8399 37.2383C52.2605 37.1294 52.6956 37.0741 53.1327 37.0741C53.2345 37.0741 53.3355 37.0779 53.4362 37.0837C53.4739 37.0859 53.5112 37.0893 53.5485 37.0924C53.6087 37.0971 53.6686 37.1029 53.7283 37.1097C53.7771 37.1152 53.8259 37.1213 53.8744 37.1282C53.9143 37.1339 53.9539 37.1409 53.9936 37.1476C55.3168 37.372 56.4697 38.1026 57.2436 39.1344C57.2466 39.1382 57.2495 39.1423 57.2524 39.1462C57.8907 40.0022 58.269 41.0626 58.269 42.21C58.269 45.0422 55.9647 47.3462 53.1325 47.3462H49.5953C49.0183 47.3462 48.5505 47.814 48.5505 48.391C48.5505 48.968 49.0183 49.4358 49.5953 49.4358H53.1325C57.117 49.4358 60.3586 46.1944 60.3586 42.2099C60.3586 41.1217 60.1153 40.0897 59.6826 39.1632C61.1803 37.2635 62 34.9196 62 32.483Z" fill="#6DA0FF"/>
</svg>
