<svg width="95" height="113" viewBox="0 0 95 113" fill="none" xmlns="http://www.w3.org/2000/svg">
<path d="M87.935 7.97942L30.068 0.065518C26.238 -0.460129 22.6913 2.235 22.1671 6.07169L20.9076 15.2965C20.7718 16.2878 21.4652 17.2021 22.4557 17.337C23.4463 17.4745 24.3599 16.779 24.4946 15.7877L25.7541 6.56283C26.0088 4.70714 27.7262 3.40045 29.5772 3.65691L87.4442 11.5703C89.2985 11.8251 90.6015 13.5412 90.3479 15.3963L79.008 98.4469C78.7534 100.303 77.0397 101.606 75.1849 101.353L71.087 100.793C70.0981 100.654 69.1829 101.351 69.0481 102.343C68.9134 103.334 69.6057 104.249 70.5973 104.384L74.6953 104.944C75.0157 104.987 75.3346 105.009 75.6497 105.009C79.1004 105.009 82.1176 102.452 82.5966 98.937L93.9365 15.8864C94.4607 12.0508 91.7676 8.504 87.935 7.97942Z" fill="#D4DCEF"/>
<path d="M65.5196 14.3964H7.02697C3.15191 14.3964 0 17.5498 0 21.4244V105.32C0 109.196 3.15297 112.348 7.02697 112.348H65.5196C69.3936 112.348 72.5455 109.196 72.5465 105.32V21.4244C72.5465 17.5493 69.3936 14.3964 65.5196 14.3964ZM68.9196 105.321C68.9196 107.196 67.3941 108.721 65.5201 108.721H7.02697C5.1524 108.721 3.62746 107.196 3.62746 105.321V21.4254C3.62746 19.5506 5.15294 18.0254 7.02697 18.0254H65.5196C67.3941 18.0254 68.9191 19.5511 68.9191 21.4254V105.321H68.9196Z" fill="#D4DCEF"/>
<path d="M36.132 32.4625C22.1238 32.4625 10.7266 43.8592 10.7266 57.8679C10.7266 71.8765 22.1233 83.2733 36.132 83.2733C50.1412 83.2733 61.5374 71.8765 61.5374 57.8679C61.5374 43.8592 50.1401 32.4625 36.132 32.4625ZM36.132 79.6438C24.1244 79.6438 14.3561 69.8755 14.3561 57.8679C14.3561 45.8603 24.1244 36.092 36.132 36.092C48.1395 36.092 57.9079 45.8603 57.9079 57.8679C57.9079 69.8755 48.1395 79.6438 36.132 79.6438Z" fill="#D4DCEF"/>
<path d="M36.1302 32.4625C26.95 32.4625 19.7578 43.6216 19.7578 57.8679C19.7578 72.1142 26.95 83.2733 36.1302 83.2733C45.3103 83.2733 52.5025 72.1142 52.5025 57.8679C52.5025 43.6216 45.3103 32.4625 36.1302 32.4625ZM36.1302 79.6438C29.2274 79.6438 23.3963 69.6713 23.3963 57.8679C23.3963 46.0644 29.2274 36.092 36.1302 36.092C43.033 36.092 48.8641 46.0644 48.8641 57.8679C48.8641 69.6713 43.033 79.6438 36.1302 79.6438Z" fill="#D4DCEF"/>
<path d="M59.7223 56.1742H12.5411C11.5394 56.1742 10.7266 56.9962 10.7266 58.009C10.7266 59.0218 11.5394 59.8438 12.5411 59.8438H59.7229C60.7255 59.8438 61.5374 59.0218 61.5374 58.009C61.5374 56.9962 60.7239 56.1742 59.7223 56.1742Z" fill="#D4DCEF"/>
<path d="M36.1312 32.4625C35.1963 32.4625 34.4375 33.2774 34.4375 34.2815V79.7606C34.4375 80.7647 35.1963 81.5796 36.1312 81.5796C37.0671 81.5796 37.8249 80.7647 37.8249 79.7606V34.282C37.8249 33.2779 37.0661 32.4625 36.1312 32.4625Z" fill="#D4DCEF"/>
<path d="M54.356 88.9189H16.2108C15.2082 88.9189 14.3945 89.6776 14.3945 90.6126C14.3945 91.5475 15.2082 92.3063 16.2108 92.3063H54.356C55.3597 92.3063 56.1723 91.5475 56.1723 90.6126C56.1723 89.6776 55.3586 88.9189 54.356 88.9189Z" fill="#D4DCEF"/>
<path d="M36.2824 97.9519H16.2183C15.2116 97.9519 14.3945 98.7107 14.3945 99.6456C14.3945 100.581 15.2116 101.339 16.2183 101.339H36.2824C37.2903 101.339 38.1062 100.581 38.1062 99.6456C38.1062 98.7112 37.2892 97.9519 36.2824 97.9519Z" fill="#D4DCEF"/>
</svg>
