<svg width="129" height="129" viewBox="0 0 129 129" fill="none" xmlns="http://www.w3.org/2000/svg">
<path d="M102.685 86.6098V81.7705H97.9851V86.5035H93.2856V81.7705H88.5862V86.5035H83.8867V91.2365H88.5862V105.436H83.8867V110.169H88.5862V114.902H93.2856V110.169H97.9851V114.902H102.685V110.062C106.013 109.497 108.559 106.581 108.559 103.069C108.559 101.249 107.87 99.5938 106.75 98.3361C107.87 97.0783 108.559 95.423 108.559 93.603C108.559 90.0926 106.013 87.1766 102.685 86.6098ZM93.2856 91.2365H101.51C102.806 91.2365 103.859 92.2979 103.859 93.603C103.859 94.9082 102.806 95.9695 101.51 95.9695H93.2856V91.2365ZM101.51 105.436H93.2856V100.703H101.51C102.806 100.703 103.859 101.764 103.859 103.069C103.859 104.374 102.806 105.436 101.51 105.436Z" fill="#D4DCEF"/>
<path d="M108.933 72.1145L94.6283 57.4861L97.4369 54.7386L107.656 65.2429C107.913 50.3189 100.393 35.6814 86.6765 27.4677C66.2256 15.2211 39.7147 21.873 27.4681 42.324C15.2215 62.7749 21.8735 89.2857 42.3244 101.532C49.3002 105.71 56.9823 107.685 64.5632 107.664L64.1385 111.529C56.0227 111.475 47.8141 109.316 40.3425 104.842C18.0638 91.5009 10.8173 62.6207 24.1584 40.342C37.4995 18.0633 66.3798 10.8169 88.6584 24.158C103.149 32.8351 111.269 48.0778 111.509 63.8144L120.632 54.8931L123.38 57.7017L108.933 72.1145Z" fill="#D4DCEF"/>
<path d="M66.5164 85.2951V81.7374C69.9284 81.5472 72.5308 80.5579 74.5357 78.7696C76.5405 76.9812 77.5429 74.6031 77.5429 71.8446C77.5429 68.8767 76.7333 66.6888 74.9405 65.3C73.1284 63.721 70.526 62.5224 66.7091 61.7424H66.5164V52.6295C69.1188 53.0291 71.3357 53.8091 73.5333 55.4071L76.7525 51.0505C73.5333 48.8626 70.1212 47.6831 66.5164 47.4928V45.1147H63.5091V47.4928C60.5019 47.6831 57.8802 48.6724 55.8754 50.4607C53.8706 52.249 52.8682 54.6271 52.8682 57.3857C52.8682 60.1443 53.6778 62.3322 55.4706 63.721C57.0706 65.1098 59.885 66.2893 63.4899 67.0884V76.3915C60.6754 75.992 57.8609 74.6031 55.0658 72.225L51.4609 76.3915C55.0658 79.5686 59.0947 81.3379 63.5091 81.7374V85.2951H66.5164V85.2951ZM66.7091 68.0586C68.714 68.6484 69.9284 69.2382 70.7188 69.847C71.3164 70.646 71.7212 71.426 71.7212 72.6246C71.7212 73.8231 71.3164 74.6031 70.314 75.4022C69.3116 76.2012 68.0971 76.5817 66.7091 76.791V68.0586V68.0586ZM59.6923 59.5545C59.0947 58.9648 58.6899 57.9755 58.6899 56.9862C58.6899 55.8067 59.0947 55.0076 59.885 54.2086C60.8875 53.4095 61.8899 53.0291 63.4899 52.8198V61.3429C61.485 60.7341 60.2899 60.1443 59.6923 59.5545V59.5545Z" fill="#D4DCEF"/>
</svg>
