<svg width="31" height="39" viewBox="0 0 31 39" fill="none" xmlns="http://www.w3.org/2000/svg">
<path d="M20.7739 14.6616C20.2802 14.6616 19.8801 15.06 19.8801 15.5515V32.3712C19.8801 32.8624 20.2802 33.2611 20.7739 33.2611C21.2677 33.2611 21.6678 32.8624 21.6678 32.3712V15.5515C21.6678 15.06 21.2677 14.6616 20.7739 14.6616Z" fill="#9B51E0"/>
<path d="M10.2264 14.6616C9.7327 14.6616 9.33255 15.06 9.33255 15.5515V32.3712C9.33255 32.8624 9.7327 33.2611 10.2264 33.2611C10.7202 33.2611 11.1203 32.8624 11.1203 32.3712V15.5515C11.1203 15.06 10.7202 14.6616 10.2264 14.6616Z" fill="#9B51E0"/>
<path d="M2.53876 12.207V34.1329C2.53876 35.4289 3.01608 36.6459 3.8499 37.5192C4.67988 38.3949 5.83494 38.892 7.04377 38.894H23.9562C25.1654 38.892 26.3205 38.3949 27.1501 37.5192C27.9839 36.6459 28.4612 35.4289 28.4612 34.1329V12.207C30.1188 11.769 31.1928 10.1748 30.9711 8.48148C30.749 6.78854 29.3003 5.52213 27.5852 5.52178H23.0086V4.40937C23.0138 3.47391 22.6423 2.57564 21.9771 1.91479C21.312 1.2543 20.4083 0.886512 19.4687 0.89416H11.5313C10.5917 0.886512 9.68804 1.2543 9.02287 1.91479C8.3577 2.57564 7.98618 3.47391 7.99142 4.40937V5.52178H3.41483C1.6997 5.52213 0.25099 6.78854 0.0289174 8.48148C-0.192806 10.1748 0.881245 11.769 2.53876 12.207ZM23.9562 37.1142H7.04377C5.51545 37.1142 4.32652 35.8071 4.32652 34.1329V12.2852H26.6735V34.1329C26.6735 35.8071 25.4846 37.1142 23.9562 37.1142ZM9.77918 4.40937C9.77324 3.94598 9.95621 3.49998 10.2865 3.17286C10.6165 2.84574 11.0655 2.66602 11.5313 2.67401H19.4687C19.9345 2.66602 20.3835 2.84574 20.7135 3.17286C21.0438 3.49963 21.2268 3.94598 21.2208 4.40937V5.52178H9.77918V4.40937ZM3.41483 7.30163H27.5852C28.4738 7.30163 29.1942 8.01879 29.1942 8.9035C29.1942 9.78822 28.4738 10.5054 27.5852 10.5054H3.41483C2.52619 10.5054 1.80585 9.78822 1.80585 8.9035C1.80585 8.01879 2.52619 7.30163 3.41483 7.30163Z" fill="#9B51E0"/>
<path d="M15.5002 14.6616C15.0065 14.6616 14.6063 15.06 14.6063 15.5515V32.3712C14.6063 32.8624 15.0065 33.2611 15.5002 33.2611C15.9939 33.2611 16.3941 32.8624 16.3941 32.3712V15.5515C16.3941 15.06 15.9939 14.6616 15.5002 14.6616Z" fill="#9B51E0"/>
</svg>
