<svg width="121" height="110" viewBox="0 0 121 110" fill="none" xmlns="http://www.w3.org/2000/svg">
<path d="M68.7652 7.74698H36.9167C35.8346 7.74698 34.9492 8.63234 34.9492 9.71445C34.9492 10.7966 35.8346 11.6819 36.9167 11.6819H68.7652C69.8473 11.6819 70.7326 10.7966 70.7326 9.71445C70.7326 8.63234 69.8473 7.74698 68.7652 7.74698Z" fill="#D4DCEF"/>
<path d="M78.4518 0C77.3697 0 76.4844 0.885363 76.4844 1.96747V17.2892C76.4844 18.3713 77.3697 19.2566 78.4518 19.2566C79.534 19.2566 80.4193 18.3713 80.4193 17.2892V1.96747C80.4193 0.885363 79.534 0 78.4518 0Z" fill="#D4DCEF"/>
<path d="M27.5456 0C26.4635 0 25.5781 0.885363 25.5781 1.96747V17.2892C25.5781 18.3713 26.4635 19.2566 27.5456 19.2566C28.6277 19.2566 29.5131 18.3713 29.5131 17.2892V1.96747C29.5131 0.885363 28.6277 0 27.5456 0Z" fill="#D4DCEF"/>
<path d="M91.3165 31.8484H14.6589C13.5768 31.8484 12.6914 32.7338 12.6914 33.8159C12.6914 34.898 13.5768 35.7834 14.6589 35.7834H91.292C92.3987 35.7834 93.284 34.898 93.284 33.8159C93.284 32.7338 92.3987 31.8484 91.3165 31.8484Z" fill="#D4DCEF"/>
<path d="M73.4125 47.3423H14.6589C13.5768 47.3423 12.6914 48.2277 12.6914 49.3098C12.6914 50.3919 13.5768 51.2773 14.6589 51.2773H73.4125C74.5192 51.2773 75.38 50.3919 75.38 49.3098C75.38 48.2277 74.4946 47.3423 73.4125 47.3423Z" fill="#D4DCEF"/>
<path d="M47.86 62.5902H14.6589C13.5768 62.5902 12.6914 63.4756 12.6914 64.5577C12.6914 65.6398 13.5768 66.5252 14.6589 66.5252H47.86C48.9421 66.5252 49.8275 65.6398 49.8275 64.5577C49.8275 63.4756 48.9421 62.5902 47.86 62.5902Z" fill="#D4DCEF"/>
<path d="M117.139 71.6159C114.63 66.8448 110.769 62.9591 105.998 60.4751V9.61595C106.023 8.60762 105.187 7.74686 104.178 7.74686C104.154 7.74686 104.104 7.74686 104.08 7.74686H86.2005C85.1184 7.74686 84.233 8.63222 84.233 9.71433C84.233 10.7964 85.1184 11.6818 86.2005 11.6818H102.063V58.8028C99.4071 57.9174 96.6281 57.4501 93.8244 57.4747C79.3635 57.4747 67.6078 69.1812 67.6078 83.6667C67.6078 86.4458 68.0505 89.2248 68.9605 91.8563H3.93551V11.6818H17.2159C18.2981 11.6818 19.1834 10.7964 19.1834 9.71433C19.1834 8.63222 18.2981 7.74686 17.2159 7.74686H1.89425C0.885924 7.72226 0.0497478 8.48466 0.000561011 9.49299C0.000561011 9.54217 0.000561011 9.56677 0.000561011 9.61595V93.9222C-0.0240324 94.9305 0.762957 95.7667 1.77129 95.7913C1.82047 95.7913 1.84507 95.7913 1.89425 95.7913H70.6328C77.2976 108.629 93.1358 113.621 105.974 106.957C118.811 100.292 123.804 84.4537 117.139 71.6159ZM93.849 106.022C81.5277 106.022 71.5428 96.0372 71.5428 83.7159C71.5428 71.3946 81.5277 61.4097 93.849 61.4097C106.17 61.4097 116.155 71.3946 116.155 83.7159C116.155 96.0126 106.17 105.998 93.849 106.022Z" fill="#D4DCEF"/>
<path d="M105.677 83.0027H95.9136V69.6485C95.9136 68.5663 95.0283 67.681 93.9462 67.681C92.864 67.681 91.9787 68.5663 91.9787 69.6485V84.9701C91.9295 86.0031 92.7411 86.8884 93.7986 86.913C93.8232 86.913 93.8478 86.913 93.8724 86.913H105.677C106.759 86.913 107.645 86.0277 107.645 84.9456C107.645 83.8635 106.759 83.0027 105.677 83.0027Z" fill="#D4DCEF"/>
</svg>
