<svg width="59" height="45" viewBox="0 0 59 45" fill="none" xmlns="http://www.w3.org/2000/svg">
<path d="M51.0662 17.3055C50.6662 17.3055 50.2673 17.3375 49.8739 17.4009C48.7096 16.0753 47.0236 15.3016 45.2394 15.3016C44.9401 15.3016 44.6423 15.3233 44.3476 15.3664C43.7637 13.6849 42.7106 12.1775 41.3153 11.0478C39.6184 9.67435 37.4797 8.91788 35.2926 8.91788C35.1308 8.91788 34.97 8.92236 34.8102 8.93035C32.1586 3.48118 26.6368 0 20.5319 0C11.7762 0 4.65287 7.12328 4.65287 15.8788C4.65287 20.5728 6.70697 24.9621 10.2297 27.9624C9.64444 28.2978 9.11235 28.7284 8.65971 29.2435C8.26616 29.1803 7.86704 29.1484 7.46731 29.1484C3.34979 29.1484 0 32.498 0 36.6156C0 40.7331 3.34967 44.0831 7.46731 44.0831H33.6701C37.7467 44.0831 41.0633 40.7666 41.0633 36.69C41.0633 35.0208 40.5066 33.4794 39.5699 32.2405H47.2628C47.8406 32.2405 48.3092 31.772 48.3092 31.194C48.3092 30.6161 47.8407 30.1475 47.2628 30.1475H37.1122C37.0807 30.1309 37.0481 30.1167 37.0163 30.1006C36.9361 30.0598 36.8553 30.0201 36.7736 29.9821C36.7322 29.9628 36.6906 29.9441 36.649 29.9255C36.5511 29.8822 36.4521 29.8413 36.3521 29.8023C36.3259 29.7921 36.3 29.7812 36.2737 29.7714C36.0065 29.6705 35.7321 29.5845 35.451 29.5149C35.4417 29.5126 35.4325 29.5107 35.4232 29.5085C35.2975 29.4777 35.1706 29.4505 35.0426 29.4265C35.0145 29.4212 34.9864 29.4165 34.9582 29.4114C34.8488 29.392 34.7386 29.3753 34.6277 29.3608C34.592 29.356 34.5564 29.3512 34.5207 29.3472C34.4142 29.3348 34.3068 29.3254 34.199 29.3178C34.1634 29.3151 34.1279 29.3116 34.0925 29.3097C33.9526 29.3017 33.8119 29.2968 33.6701 29.2968C33.3691 29.2968 33.0697 29.315 32.773 29.351C32.2747 24.5316 28.19 20.7606 23.2411 20.7606C23.1109 20.7606 22.9816 20.7637 22.8523 20.7689C22.8512 20.7689 22.8502 20.7691 22.8491 20.7691C22.8278 20.7701 22.8066 20.7714 22.7854 20.7725C22.746 20.7743 22.7065 20.7771 22.6669 20.7794C22.5985 20.7835 22.53 20.7874 22.4621 20.793C22.4601 20.7931 22.458 20.7936 22.4559 20.7937C22.4195 20.7967 22.3832 20.8006 22.3467 20.804C22.3391 20.8045 22.3316 20.8042 22.3238 20.8049C22.3126 20.806 22.3013 20.8075 22.29 20.8086C22.2525 20.8123 22.2151 20.8167 22.1777 20.8207C22.1427 20.8246 22.1073 20.828 22.0723 20.8322C22.0652 20.8332 22.0581 20.8347 22.0511 20.8357C22.025 20.839 21.9989 20.8426 21.9728 20.8461C21.9608 20.8473 21.9488 20.8476 21.9368 20.8491C21.8924 20.8552 21.8482 20.8627 21.8037 20.8694C21.7728 20.8741 21.7421 20.8786 21.7113 20.8835C21.6868 20.8874 21.662 20.8907 21.6376 20.8948C21.6258 20.8967 21.6146 20.8999 21.603 20.9023C21.589 20.9042 21.5753 20.9051 21.5613 20.9075C21.4736 20.9228 21.3869 20.9412 21.3002 20.9591C21.2884 20.9616 21.2761 20.9632 21.2643 20.9656C21.2784 20.9526 21.2925 20.9396 21.3068 20.9266C21.3397 20.8969 21.3731 20.8674 21.4067 20.8384C21.4312 20.8172 21.4561 20.7961 21.4811 20.7754C21.5161 20.7463 21.5517 20.718 21.5875 20.6897C21.6119 20.6704 21.6363 20.651 21.661 20.6323C21.7008 20.602 21.7412 20.5728 21.7819 20.5436C21.8034 20.5284 21.8244 20.5125 21.846 20.4975C21.9079 20.4546 21.9705 20.4127 22.034 20.3724C22.047 20.3642 22.0603 20.3565 22.0734 20.3484C22.1252 20.3162 22.1775 20.2845 22.2305 20.254C22.2549 20.2398 22.2799 20.2265 22.3046 20.2129C22.347 20.1894 22.3895 20.1661 22.4326 20.1438C22.4601 20.1295 22.4878 20.1158 22.5154 20.102C22.5568 20.0813 22.5985 20.0612 22.6405 20.0417C22.6689 20.0284 22.6978 20.0153 22.7266 20.0025C22.7693 19.9835 22.8124 19.9652 22.8557 19.9474C22.8836 19.9359 22.9116 19.9241 22.9398 19.913C22.9877 19.8941 23.036 19.8765 23.0844 19.8591C23.1085 19.8505 23.1322 19.8413 23.1566 19.8329C23.229 19.8081 23.302 19.7844 23.3756 19.7627C23.3834 19.7605 23.3913 19.7585 23.3989 19.7563C23.4654 19.7369 23.5322 19.7189 23.5994 19.7022C23.6253 19.6957 23.6514 19.6903 23.6774 19.6841C23.7273 19.6725 23.7773 19.6612 23.8276 19.6512C23.8571 19.6451 23.8869 19.6398 23.9168 19.6345C23.9643 19.6257 24.012 19.6175 24.0599 19.6101C24.0907 19.6054 24.1214 19.6008 24.1522 19.5967C24.2006 19.59 24.2493 19.5842 24.298 19.5789C24.3278 19.5756 24.3577 19.5722 24.3876 19.5694C24.4409 19.5646 24.4942 19.561 24.5478 19.5578C24.5734 19.5562 24.5988 19.5542 24.6245 19.553C24.7037 19.5493 24.783 19.5472 24.8628 19.5472C25.4047 19.5472 25.9388 19.6284 26.4505 19.7887C26.4825 19.7987 26.5147 19.8063 26.5472 19.8128C26.5669 19.8171 26.5867 19.8205 26.6065 19.8234C26.6107 19.824 26.6149 19.8245 26.6191 19.8249C26.657 19.8302 26.6948 19.8337 26.7329 19.8348C26.7449 19.8352 26.7571 19.8363 26.769 19.8366C26.7792 19.8366 26.7891 19.8352 26.7994 19.835C26.8137 19.8345 26.8279 19.8338 26.8422 19.8328C26.8716 19.8308 26.9005 19.8272 26.9291 19.8228C26.937 19.8214 26.9447 19.8206 26.9524 19.8191C27.4412 19.7311 27.8124 19.3045 27.8124 18.7902C27.8124 18.7598 27.8101 18.7303 27.8075 18.7006C27.805 18.6341 27.8024 18.5676 27.8024 18.5007C27.8024 18.3845 27.8059 18.2693 27.8111 18.1545C27.8116 18.1415 27.8124 18.1287 27.813 18.1157C27.8153 18.0707 27.8193 18.0262 27.8224 17.9816C27.8271 17.9135 27.8315 17.8453 27.838 17.7779C27.8446 17.7112 27.853 17.645 27.8613 17.5788C27.8675 17.5291 27.8731 17.4793 27.8803 17.4299C27.8914 17.3531 27.9044 17.2767 27.9178 17.2005C27.9242 17.1642 27.9304 17.1276 27.9373 17.0914C27.9538 17.0059 27.9718 16.9208 27.9912 16.8363C27.9967 16.8122 28.0022 16.7879 28.0079 16.7641C28.0306 16.6699 28.0547 16.5763 28.0808 16.4834C28.084 16.4723 28.0871 16.461 28.0904 16.4498C28.4591 15.1626 29.1656 14.0083 30.1132 13.0979C30.1193 13.0921 30.1252 13.0864 30.1313 13.0806C30.2037 13.0114 30.2778 12.9436 30.353 12.8772C30.3643 12.8673 30.3758 12.8575 30.3872 12.8477C30.459 12.7852 30.532 12.7238 30.6061 12.664C30.6217 12.6514 30.6376 12.6393 30.6533 12.6268C30.7251 12.5699 30.7975 12.5138 30.8715 12.4595C30.8898 12.446 30.9087 12.4332 30.9272 12.4199C31.0004 12.3672 31.074 12.315 31.1492 12.2649C31.1654 12.2541 31.182 12.2441 31.1983 12.2334C31.5314 12.0148 31.8834 11.8225 32.2514 11.6583C32.2809 11.6451 32.3101 11.6311 32.3399 11.6182C32.4133 11.5868 32.4879 11.5573 32.5626 11.528C32.5958 11.515 32.6287 11.5014 32.662 11.4888C32.7383 11.4601 32.8155 11.4335 32.893 11.4073C32.925 11.3964 32.9566 11.3851 32.9888 11.3748C33.07 11.3487 33.1517 11.3242 33.2339 11.3009C33.2623 11.2927 33.2906 11.2844 33.319 11.2766C33.4061 11.2528 33.4939 11.2309 33.5822 11.2102C33.6054 11.2047 33.6288 11.1991 33.6522 11.1939C33.7461 11.1729 33.8408 11.1536 33.9361 11.1362C33.9531 11.133 33.9702 11.13 33.9871 11.127C34.0888 11.1091 34.1913 11.0929 34.2947 11.0793C34.6214 11.0355 34.954 11.0108 35.2926 11.0108C38.8169 11.0108 41.8201 13.409 42.596 16.8427C42.6611 17.1311 42.8453 17.3785 43.1029 17.5237C43.3605 17.669 43.6673 17.6984 43.9478 17.6048C44.3659 17.4656 44.8006 17.3946 45.2393 17.3946C46.5754 17.3946 47.8285 18.0519 48.5912 19.153C48.841 19.5136 49.2894 19.6799 49.7137 19.5703C50.1539 19.4562 50.6089 19.3986 51.066 19.3986C54.0297 19.3986 56.4406 21.8095 56.4406 24.7729C56.4406 27.7365 54.0295 30.1475 51.066 30.1475C50.4882 30.1475 50.0196 30.616 50.0196 31.194C50.0196 31.772 50.4881 32.2405 51.066 32.2405C55.1836 32.2405 58.5336 28.8907 58.5336 24.7729C58.5337 20.6554 55.1838 17.3055 51.0662 17.3055ZM21.4167 23.0792C21.4424 23.0729 21.4679 23.0666 21.4937 23.0605C21.5585 23.045 21.6232 23.0299 21.6883 23.0162C21.71 23.0116 21.7319 23.0077 21.7535 23.0033C21.8713 22.9794 21.9898 22.9588 22.1089 22.9407C22.1446 22.9352 22.1801 22.9292 22.216 22.9242C22.2651 22.9174 22.3144 22.9121 22.3638 22.9063C22.4161 22.9002 22.4685 22.8942 22.5214 22.8891C22.5216 22.8891 22.5217 22.8891 22.5218 22.8891C22.5623 22.8852 22.6027 22.8819 22.643 22.8787C22.7089 22.8735 22.7751 22.8693 22.8414 22.8657C22.8415 22.8657 22.8417 22.8657 22.8419 22.8657C22.8752 22.8639 22.9086 22.862 22.942 22.8605C23.0417 22.8566 23.1412 22.854 23.2415 22.854C27.3711 22.8536 30.7311 26.2133 30.7311 30.3432C30.7311 30.4128 30.7283 30.4818 30.726 30.5505L30.7243 30.5968C30.7125 30.9361 30.8661 31.2599 31.1361 31.4656C31.4061 31.6711 31.7589 31.7332 32.0831 31.6316C32.5949 31.4712 33.1288 31.3898 33.6701 31.3898C33.777 31.3898 33.8837 31.3939 33.99 31.4003C34.0173 31.4019 34.0442 31.4046 34.0713 31.4065C34.1552 31.4129 34.239 31.421 34.3223 31.4313C34.3463 31.4344 34.37 31.4373 34.3939 31.4405C34.6111 31.4704 34.8264 31.5133 35.038 31.5697C35.043 31.5711 35.0479 31.5726 35.053 31.5741C35.1512 31.6006 35.2484 31.6305 35.3449 31.6626C35.3632 31.6688 35.3817 31.675 35.4 31.6813C35.4912 31.7127 35.5814 31.7467 35.6708 31.7831C35.6823 31.7878 35.694 31.7919 35.7054 31.7968C35.8022 31.8371 35.8977 31.8806 35.992 31.9267C36.0178 31.9393 36.0429 31.9529 36.0685 31.9658C36.134 31.9991 36.199 32.034 36.2632 32.0701C37.8772 32.9796 38.9703 34.7091 38.9703 36.69C38.9703 39.6126 36.5927 41.9901 33.67 41.9901H7.46731C4.50393 41.9901 2.09297 39.5791 2.09297 36.6156C2.09297 33.6522 4.50393 31.2412 7.46731 31.2412C7.92443 31.2412 8.37986 31.2989 8.8204 31.4128C9.24544 31.5225 9.69287 31.3559 9.94245 30.9956C10.5651 30.097 11.5144 29.4942 12.5688 29.303H12.5689C12.6526 29.2879 12.7364 29.2755 12.8201 29.2657C12.8351 29.264 12.8504 29.263 12.8654 29.2615C12.9333 29.2543 13.0011 29.248 13.0691 29.2441C13.0987 29.2425 13.1286 29.2425 13.1583 29.2414C13.2103 29.2395 13.2622 29.2378 13.3139 29.238C13.4132 29.2385 13.5121 29.2423 13.6107 29.2498C13.6301 29.2513 13.6493 29.2542 13.6687 29.2559C13.749 29.2634 13.8292 29.2728 13.9088 29.2851C13.9392 29.2897 13.9694 29.295 13.9997 29.3003C14.0712 29.3129 14.1425 29.3276 14.2134 29.344C14.2417 29.3506 14.2703 29.3568 14.2985 29.3639C14.3949 29.3885 14.4909 29.4155 14.5857 29.4471C14.6342 29.4633 14.6835 29.4745 14.733 29.4833C14.744 29.4852 14.7547 29.4871 14.7657 29.4888C14.8152 29.4959 14.865 29.5006 14.9148 29.5006C14.9154 29.5006 14.9162 29.5007 14.9169 29.5007C14.9214 29.5007 14.9258 29.4999 14.9303 29.4998C14.9661 29.4994 15.0018 29.497 15.0374 29.493C15.0498 29.4915 15.0619 29.4895 15.074 29.4875C15.1029 29.4831 15.1315 29.4777 15.1601 29.471C15.1733 29.4678 15.1864 29.4645 15.1993 29.4609C15.2281 29.4528 15.2564 29.4432 15.2845 29.4328C15.2956 29.4286 15.3067 29.4249 15.3176 29.4205C15.3561 29.4045 15.394 29.3868 15.4307 29.3661C15.5937 29.2743 15.7269 29.1413 15.8194 28.9833C15.8733 28.8914 15.9137 28.7911 15.9378 28.6851C15.9649 28.5651 15.995 28.446 16.0281 28.328C16.03 28.3209 16.0323 28.3139 16.0343 28.3069C16.2281 27.6217 16.5217 26.9699 16.8985 26.3701C16.9178 26.3395 16.9363 26.3084 16.9559 26.2779C17.0063 26.2 17.0589 26.1238 17.1122 26.0479C17.1377 26.0117 17.1632 25.9756 17.1892 25.9399C17.2418 25.8676 17.2956 25.796 17.3508 25.7257C17.3812 25.6869 17.4125 25.6491 17.4437 25.6111C17.498 25.5444 17.5524 25.4776 17.609 25.4127C17.6528 25.3625 17.6987 25.3143 17.7438 25.2655C17.824 25.1786 17.9062 25.0936 17.9903 25.0104C18.049 24.9524 18.1076 24.8945 18.1682 24.8385C18.2118 24.7982 18.2564 24.7594 18.3009 24.7201C18.3652 24.6634 18.4302 24.6075 18.4966 24.5531C18.5392 24.5181 18.5821 24.4833 18.6255 24.4491C18.7006 24.3901 18.777 24.333 18.8543 24.2768C18.8913 24.2498 18.9278 24.2224 18.9653 24.196C19.0812 24.115 19.1989 24.0366 19.3194 23.9622C19.3195 23.9621 19.3198 23.9621 19.3199 23.962C19.3297 23.9558 19.3399 23.9503 19.3497 23.9443C19.35 23.944 19.3503 23.9439 19.3508 23.9438C19.366 23.9345 19.3816 23.9255 19.397 23.9163C19.4861 23.8628 19.5762 23.8114 19.6673 23.7618C19.668 23.7614 19.6689 23.7612 19.6696 23.7607L19.696 23.7463C19.7266 23.7296 19.7574 23.7127 19.7884 23.6964C19.7885 23.6964 19.7886 23.6963 19.7887 23.6962C19.8379 23.6705 19.8877 23.6459 19.9374 23.6214C19.9707 23.6051 20.0042 23.5886 20.0378 23.5729C20.0383 23.5726 20.0389 23.5723 20.0394 23.5719C20.0909 23.5476 20.1425 23.5237 20.1944 23.5006C20.231 23.4845 20.2677 23.4685 20.3046 23.453C20.3047 23.453 20.3048 23.4529 20.305 23.4529C20.3581 23.4302 20.411 23.4075 20.4646 23.386C20.478 23.3807 20.4918 23.3757 20.5052 23.3703C20.719 23.2865 20.9365 23.2125 21.1571 23.1487C21.1778 23.1426 21.1984 23.1366 21.2192 23.1307C21.2851 23.113 21.3507 23.0957 21.4167 23.0792ZM32.3779 9.37331C32.3453 9.38372 32.3125 9.39341 32.2801 9.40431C32.1992 9.43107 32.1193 9.45977 32.0395 9.48871C31.9938 9.50518 31.9482 9.52177 31.9027 9.53908C31.8274 9.56778 31.7526 9.59709 31.6781 9.62748C31.6303 9.6471 31.5828 9.66732 31.5352 9.68766C31.4621 9.71891 31.3889 9.75027 31.3169 9.78333C31.2743 9.80282 31.2323 9.82365 31.19 9.84375C31.1894 9.844 31.1887 9.84436 31.1882 9.84472C30.4385 8.52542 29.4424 7.3421 28.2648 6.38147C27.817 6.01637 27.1577 6.08298 26.7924 6.53102C26.4271 6.97882 26.494 7.63805 26.9419 8.00339C27.9384 8.8164 28.7787 9.82099 29.4046 10.9413C27.575 12.3628 26.342 14.3718 25.8963 16.6159C25.895 16.6222 25.8941 16.6286 25.8929 16.6349C25.8844 16.6777 25.8774 16.7212 25.8697 16.7642C25.8663 16.7822 25.8631 16.8003 25.8599 16.8183C25.8418 16.9205 25.8245 17.0227 25.8097 17.1258C25.8011 17.1854 25.7942 17.2454 25.7867 17.3054C25.7784 17.3732 25.7677 17.4403 25.7607 17.5082C25.6192 17.491 25.4772 17.4787 25.3347 17.4696C25.3278 17.4692 25.321 17.4681 25.314 17.4678C25.1642 17.4587 25.014 17.4542 24.8634 17.4542C24.7631 17.4544 24.6633 17.4567 24.5639 17.4607C24.5313 17.4621 24.4991 17.4648 24.4666 17.4667C24.4 17.4703 24.3332 17.4737 24.2671 17.4793C24.2282 17.4824 24.1897 17.4871 24.151 17.4909C24.0978 17.4961 24.0448 17.5004 23.9919 17.5069C23.9855 17.5076 23.979 17.5088 23.9726 17.5097C23.9317 17.5146 23.8911 17.521 23.8504 17.5268C23.7938 17.5348 23.7372 17.5425 23.681 17.5517C23.6391 17.5585 23.5977 17.5667 23.5561 17.5743C23.5013 17.5842 23.4467 17.5939 23.3926 17.6052C23.3504 17.6138 23.3088 17.6236 23.2669 17.633C23.2135 17.6449 23.1602 17.6569 23.1072 17.67C23.0652 17.6803 23.0236 17.6918 22.9818 17.7029C22.9296 17.7168 22.8776 17.7306 22.8258 17.7457C22.7839 17.7578 22.7424 17.7707 22.7009 17.7836C22.6498 17.7994 22.5986 17.8154 22.548 17.8322C22.5068 17.8459 22.4659 17.8605 22.4251 17.8749C22.3747 17.8927 22.3243 17.9107 22.2744 17.9296C22.234 17.9449 22.1939 17.9607 22.1538 17.9767C22.1042 17.9964 22.0545 18.0165 22.0053 18.0374C21.9657 18.0541 21.9264 18.0714 21.887 18.0888C21.838 18.1106 21.7891 18.1328 21.7405 18.1556C21.702 18.1736 21.6637 18.192 21.6255 18.2109C21.577 18.2348 21.529 18.2589 21.481 18.2838C21.4435 18.3033 21.4061 18.3229 21.3689 18.343C21.3213 18.3687 21.2741 18.395 21.2271 18.4216C21.1905 18.4424 21.1541 18.4634 21.1179 18.4847C21.071 18.5124 21.0246 18.5406 20.9785 18.5695C20.9431 18.5913 20.908 18.6133 20.873 18.6358C20.8269 18.6655 20.7811 18.6961 20.7356 18.7269C20.7015 18.7499 20.6675 18.7728 20.634 18.7964C20.5886 18.8282 20.5439 18.8607 20.4991 18.8935C20.4664 18.9175 20.4336 18.9412 20.4012 18.9657C20.3564 18.9997 20.3125 19.0345 20.2684 19.0696C20.2373 19.0943 20.2061 19.1186 20.1754 19.1439C20.1311 19.1802 20.0875 19.2177 20.0439 19.2551C20.0146 19.2802 19.9852 19.3051 19.9562 19.3305C19.9121 19.3696 19.8688 19.41 19.8257 19.45C19.7986 19.4752 19.7711 19.5001 19.7444 19.5255C19.7001 19.568 19.6568 19.6117 19.6135 19.6553C19.5891 19.6799 19.5642 19.704 19.5401 19.7288C19.4945 19.7761 19.45 19.8246 19.4055 19.8731C19.3849 19.8955 19.3638 19.9173 19.3437 19.94C19.2934 19.9964 19.2443 20.0539 19.1956 20.1118C19.1824 20.1277 19.1685 20.1429 19.1553 20.1588C19.0316 20.3085 18.9136 20.4632 18.8016 20.6228C18.7923 20.6361 18.7836 20.65 18.7742 20.6634C18.7285 20.7296 18.6833 20.796 18.6396 20.8638C18.6232 20.8892 18.608 20.9153 18.5919 20.9407C18.5564 20.9972 18.5209 21.0537 18.4871 21.1113C18.4687 21.1426 18.4513 21.1745 18.4334 21.2061C18.4033 21.2589 18.3729 21.3118 18.3441 21.3656C18.3255 21.4004 18.3079 21.4357 18.2897 21.4707C18.2631 21.5224 18.2362 21.5739 18.2108 21.6262C18.1927 21.6635 18.1755 21.7013 18.1581 21.7388C18.1343 21.7899 18.1104 21.8411 18.0878 21.893C18.0704 21.9323 18.0542 21.9723 18.0376 22.012C18.0163 22.0631 17.995 22.1142 17.9748 22.1659C17.9587 22.207 17.9437 22.2486 17.9282 22.29C17.9152 22.3253 17.9011 22.36 17.8887 22.3955C17.8871 22.3966 17.8856 22.3976 17.8842 22.3987C17.6556 22.5528 17.433 22.7168 17.2178 22.891C17.0037 23.0643 16.7987 23.2476 16.6012 23.4379C16.5964 23.4426 16.5914 23.4473 16.5866 23.452C16.4927 23.5429 16.4007 23.6353 16.3108 23.7297C16.3058 23.735 16.3005 23.7402 16.2956 23.7457C16.1129 23.9385 15.9381 24.1383 15.7722 24.3449C15.747 24.3762 15.7226 24.4084 15.6976 24.4402C15.647 24.5051 15.5968 24.5702 15.5478 24.6362C15.532 24.6575 15.5151 24.6781 15.4994 24.6995C12.3596 22.9041 10.3754 19.533 10.3754 15.8791C10.3754 10.2792 14.9312 5.72345 20.5313 5.72345C21.7314 5.72345 22.9053 5.93064 24.0207 6.33921C24.5634 6.53816 25.1644 6.25929 25.3633 5.71655C25.5621 5.17393 25.2833 4.57283 24.7406 4.37399C23.3939 3.88066 21.9777 3.63048 20.5312 3.63048C13.7771 3.63048 8.28226 9.12519 8.28226 15.8791C8.28226 20.2847 10.6753 24.3479 14.4592 26.5134C14.415 26.6145 14.3725 26.7162 14.3318 26.8188C14.327 26.8311 14.3218 26.8431 14.3169 26.8552C14.271 26.9723 14.2267 27.0902 14.1854 27.2091C13.8908 27.1661 13.593 27.1444 13.2936 27.1444C13.0722 27.1444 12.8523 27.1564 12.6349 27.1799C8.93919 24.5948 6.74511 20.3995 6.74511 15.8789C6.74511 8.27742 12.9296 2.09297 20.5313 2.09297C25.6215 2.09297 30.2463 4.87943 32.6442 9.2906C32.5552 9.31591 32.4667 9.34485 32.3779 9.37331Z" fill="#6DA0FF"/>
</svg>
