<svg width="102" height="73" viewBox="0 0 102 73" fill="none" xmlns="http://www.w3.org/2000/svg">
<path d="M88.9873 28.6573C88.2904 28.6573 87.5953 28.7102 86.9097 28.8153C84.8808 26.6201 81.9428 25.339 78.8337 25.339C78.3121 25.339 77.7932 25.3749 77.2796 25.4462C76.2621 22.6618 74.4271 20.1654 71.9956 18.2947C69.0386 16.0204 65.3117 14.7677 61.5005 14.7677C61.2186 14.7677 60.9384 14.7751 60.6598 14.7883C56.0392 5.7647 46.417 0 35.7786 0C20.521 0 8.10804 11.7959 8.10804 26.2947C8.10804 34.0678 11.6875 41.3363 17.8261 46.3047C16.8063 46.8601 15.8791 47.5732 15.0903 48.4262C14.4045 48.3216 13.709 48.2686 13.0125 48.2686C5.83731 48.2686 0 53.8156 0 60.634C0 67.4525 5.8371 73 13.0125 73H58.6731C65.777 73 71.5564 67.508 71.5564 60.7573C71.5564 57.9931 70.5864 55.4406 68.954 53.389H82.3596C83.3665 53.389 84.1832 52.6132 84.1832 51.6561C84.1832 50.6992 83.3667 49.9232 82.3596 49.9232H64.6712C64.6164 49.8957 64.5596 49.8722 64.5041 49.8456C64.3644 49.778 64.2237 49.7122 64.0812 49.6492C64.0091 49.6174 63.9367 49.5863 63.8641 49.5556C63.6936 49.4838 63.521 49.416 63.3467 49.3515C63.3011 49.3346 63.256 49.3166 63.2102 49.3003C62.7445 49.1333 62.2663 48.9909 61.7765 48.8756C61.7603 48.8718 61.7443 48.8686 61.728 48.865C61.509 48.8141 61.2878 48.7689 61.0648 48.7292C61.0158 48.7204 60.9669 48.7126 60.9177 48.7042C60.7272 48.6721 60.5351 48.6444 60.3418 48.6203C60.2796 48.6125 60.2176 48.6045 60.1553 48.5979C59.9698 48.5774 59.7827 48.5618 59.5948 48.5492C59.5328 48.5447 59.471 48.5389 59.4092 48.5357C59.1654 48.5225 58.9202 48.5145 58.6731 48.5145C58.1486 48.5145 57.6269 48.5445 57.1099 48.6041C56.2416 40.6234 49.1237 34.3788 40.4997 34.3788C40.2728 34.3788 40.0475 34.3839 39.8221 34.3925L39.8166 34.3929C39.7795 34.3945 39.7426 34.3967 39.7056 34.3985C39.6368 34.4015 39.5681 34.4061 39.4991 34.4099C39.3798 34.4167 39.2606 34.4232 39.1422 34.4324C39.1386 34.4326 39.1351 34.4334 39.1315 34.4336C39.0679 34.4386 39.0046 34.445 38.9411 34.4506C38.9278 34.4514 38.9148 34.451 38.9012 34.4522C38.8816 34.454 38.862 34.4564 38.8424 34.4583C38.777 34.4645 38.7118 34.4717 38.6465 34.4783C38.5856 34.4847 38.524 34.4903 38.463 34.4974C38.4505 34.499 38.4383 34.5016 38.426 34.5032C38.3805 34.5086 38.3351 34.5146 38.2895 34.5204C38.2686 34.5224 38.2477 34.5228 38.2268 34.5254C38.1494 34.5355 38.0724 34.5479 37.9949 34.5589C37.9411 34.5667 37.8875 34.5742 37.8339 34.5824C37.7911 34.5888 37.748 34.5942 37.7054 34.601C37.685 34.6042 37.6653 34.6094 37.6451 34.6135C37.6208 34.6167 37.597 34.6181 37.5725 34.6221C37.4197 34.6473 37.2686 34.6778 37.1175 34.7075C37.0969 34.7117 37.0755 34.7143 37.0549 34.7183C37.0796 34.6967 37.104 34.6752 37.1289 34.6538C37.1863 34.6044 37.2446 34.5557 37.303 34.5076C37.3459 34.4725 37.3891 34.4376 37.4328 34.4033C37.4938 34.3552 37.5558 34.3083 37.6181 34.2613C37.6607 34.2295 37.7031 34.1974 37.7461 34.1663C37.8156 34.1162 37.8861 34.0678 37.957 34.0195C37.9943 33.9942 38.031 33.968 38.0686 33.9431C38.1764 33.8721 38.2855 33.8027 38.3963 33.736C38.4189 33.7223 38.4421 33.7097 38.4649 33.6963C38.5552 33.6429 38.6463 33.5904 38.7386 33.5398C38.7812 33.5164 38.8246 33.4943 38.8677 33.4719C38.9415 33.433 39.0156 33.3943 39.0907 33.3574C39.1386 33.3337 39.187 33.311 39.2351 33.2882C39.3072 33.2539 39.3798 33.2206 39.4531 33.1883C39.5026 33.1663 39.5529 33.1446 39.6031 33.1234C39.6776 33.0919 39.7527 33.0616 39.828 33.0321C39.8768 33.0131 39.9255 32.9936 39.9747 32.9752C40.058 32.9439 40.1422 32.9148 40.2266 32.8859C40.2686 32.8717 40.31 32.8565 40.3524 32.8426C40.4786 32.8015 40.6058 32.7622 40.7341 32.7263C40.7476 32.7227 40.7613 32.7193 40.7746 32.7157C40.8905 32.6836 41.007 32.6537 41.1241 32.6261C41.1692 32.6154 41.2146 32.6064 41.26 32.5962C41.3469 32.5769 41.4341 32.5583 41.5216 32.5416C41.5731 32.5316 41.625 32.5228 41.6771 32.514C41.7599 32.4995 41.843 32.4859 41.9266 32.4737C41.9802 32.4658 42.0338 32.4582 42.0874 32.4514C42.1718 32.4404 42.2566 32.4307 42.3414 32.4219C42.3933 32.4165 42.4455 32.4109 42.4976 32.4063C42.5904 32.3983 42.6833 32.3922 42.7767 32.387C42.8213 32.3844 42.8656 32.381 42.9103 32.379C43.0483 32.373 43.1865 32.3694 43.3256 32.3694C44.2699 32.3694 45.2007 32.5039 46.0924 32.7694C46.1481 32.7859 46.2043 32.7985 46.2608 32.8093C46.2952 32.8164 46.3296 32.822 46.3642 32.8268C46.3716 32.8278 46.3788 32.8286 46.3862 32.8294C46.4522 32.838 46.518 32.8438 46.5845 32.8456C46.6054 32.8464 46.6267 32.8482 46.6474 32.8486C46.6651 32.8486 46.6824 32.8464 46.7004 32.846C46.7253 32.8452 46.7499 32.844 46.7748 32.8424C46.8261 32.839 46.8766 32.8332 46.9264 32.8258C46.9401 32.8236 46.9536 32.8222 46.9669 32.8198C47.8187 32.674 48.4655 31.9675 48.4655 31.1159C48.4655 31.0656 48.4615 31.0166 48.4571 30.9675C48.4526 30.8574 48.4482 30.7473 48.4482 30.6364C48.4482 30.4441 48.4543 30.2532 48.4634 30.0631C48.4642 30.0417 48.4655 30.0204 48.4666 29.999C48.4706 29.9244 48.4775 29.8508 48.483 29.7768C48.4912 29.6641 48.4988 29.5512 48.5102 29.4395C48.5216 29.329 48.5364 29.2195 48.5508 29.1098C48.5615 29.0276 48.5714 28.945 48.5839 28.8632C48.6033 28.7361 48.6259 28.6095 48.6493 28.4834C48.6605 28.4232 48.6712 28.3627 48.6833 28.3027C48.712 28.1612 48.7434 28.0202 48.7772 27.8802C48.7867 27.8403 48.7964 27.8002 48.8063 27.7607C48.8457 27.6047 48.8877 27.4497 48.9333 27.2959C48.9388 27.2774 48.9443 27.2588 48.95 27.2403C49.5925 25.1088 50.8236 23.1972 52.475 21.6896C52.4855 21.68 52.4959 21.6706 52.5064 21.6609C52.6326 21.5464 52.7618 21.4341 52.8928 21.3243C52.9124 21.3078 52.9325 21.2916 52.9523 21.2753C53.0774 21.1719 53.2047 21.0702 53.3338 20.9711C53.361 20.9503 53.3887 20.9302 53.4161 20.9096C53.5413 20.8153 53.6674 20.7225 53.7964 20.6324C53.8282 20.6102 53.8612 20.5889 53.8934 20.5669C54.0209 20.4796 54.1492 20.3932 54.2802 20.3102C54.3085 20.2923 54.3374 20.2757 54.3659 20.2581C54.9462 19.8961 55.5596 19.5777 56.2009 19.3058C56.2524 19.2839 56.3032 19.2606 56.3551 19.2394C56.483 19.1873 56.613 19.1385 56.7432 19.09C56.801 19.0683 56.8584 19.0459 56.9164 19.025C57.0494 18.9775 57.184 18.9334 57.3191 18.8901C57.3748 18.872 57.4298 18.8534 57.486 18.8363C57.6273 18.793 57.7698 18.7525 57.9131 18.7138C57.9624 18.7004 58.0118 18.6865 58.0614 18.6737C58.2131 18.6342 58.3661 18.5979 58.5199 18.5636C58.5605 18.5546 58.6012 18.5454 58.6419 18.5368C58.8057 18.5019 58.9707 18.47 59.1367 18.4411C59.1663 18.4359 59.196 18.4309 59.2256 18.4259C59.4028 18.3962 59.5813 18.3695 59.7616 18.3469C60.3309 18.2745 60.9105 18.2336 61.5005 18.2336C67.6419 18.2336 72.8753 22.2048 74.2273 27.8909C74.3408 28.3685 74.6617 28.7782 75.1106 29.0186C75.5596 29.2592 76.0941 29.308 76.583 29.153C77.3115 28.9224 78.069 28.8048 78.8335 28.8048C81.1619 28.8048 83.3454 29.8933 84.6744 31.7167C85.1097 32.3138 85.8911 32.5892 86.6305 32.4077C87.3976 32.2188 88.1905 32.1233 88.9871 32.1233C94.1515 32.1233 98.3528 36.1158 98.3528 41.023C98.3528 45.9307 94.1513 49.9232 88.9871 49.9232C87.9802 49.9232 87.1635 50.699 87.1635 51.6561C87.1635 52.6132 87.98 53.389 88.9871 53.389C96.1623 53.389 102 47.8419 102 41.023C102 34.2046 96.1627 28.6573 88.9873 28.6573ZM37.3205 38.2183C37.3653 38.2079 37.4098 38.1974 37.4547 38.1874C37.5676 38.1618 37.6803 38.1367 37.7938 38.114C37.8316 38.1064 37.8698 38.1 37.9074 38.0926C38.1127 38.0531 38.3193 38.019 38.5267 37.9889C38.5889 37.9799 38.6508 37.9698 38.7134 37.9616C38.7989 37.9504 38.8848 37.9416 38.9709 37.9319C39.062 37.9219 39.1534 37.9119 39.2456 37.9035C39.3161 37.8971 39.3872 37.8916 39.4575 37.8862C39.5723 37.8776 39.6877 37.8708 39.8031 37.8648C39.8612 37.8618 39.9202 37.8586 39.9785 37.8562C40.1521 37.8497 40.3256 37.8453 40.5003 37.8453C47.6966 37.8447 53.5516 43.4083 53.5516 50.2472C53.5516 50.3625 53.5467 50.4768 53.5427 50.5905L53.5398 50.6671C53.5193 51.229 53.7869 51.7652 54.2574 52.1059C54.728 52.4462 55.3427 52.549 55.9076 52.3808C56.7995 52.1151 57.7299 51.9803 58.6731 51.9803C58.8595 51.9803 59.0454 51.9872 59.2306 51.9978C59.2781 52.0004 59.325 52.0048 59.3722 52.008C59.5185 52.0186 59.6645 52.0321 59.8097 52.0491C59.8514 52.0541 59.8928 52.059 59.9344 52.0644C60.3129 52.1139 60.6881 52.1849 61.0568 52.2783C61.0656 52.2805 61.0741 52.2831 61.0829 52.2855C61.2541 52.3295 61.4235 52.379 61.5917 52.4321C61.6235 52.4424 61.6558 52.4526 61.6877 52.463C61.8466 52.5151 62.0038 52.5713 62.1595 52.6316C62.1796 52.6395 62.2 52.6463 62.2199 52.6543C62.3885 52.7211 62.555 52.7931 62.7194 52.8695C62.7643 52.8903 62.808 52.9128 62.8525 52.9342C62.9667 52.9894 63.08 53.0471 63.1918 53.1069C66.0044 54.613 67.9093 57.4769 67.9093 60.7573C67.9093 65.597 63.766 69.5341 58.6729 69.5341H13.0125C7.84849 69.5341 3.64718 65.5415 3.64718 60.634C3.64718 55.7268 7.84849 51.7343 13.0125 51.7343C13.809 51.7343 14.6027 51.8298 15.3703 52.0184C16.111 52.2001 16.8907 51.9242 17.3256 51.3276C18.4106 49.8395 20.0648 48.8413 21.9023 48.5247C22.0481 48.4996 22.1943 48.4792 22.3402 48.4629C22.3663 48.4601 22.3929 48.4585 22.4191 48.4559C22.5375 48.4441 22.6556 48.4337 22.774 48.4272C22.8257 48.4244 22.8778 48.4244 22.9295 48.4226C23.02 48.4196 23.1106 48.4168 23.2007 48.417C23.3737 48.4178 23.5461 48.4242 23.7179 48.4367C23.7516 48.4391 23.7852 48.4439 23.8189 48.4467C23.9589 48.4591 24.0985 48.4748 24.2374 48.495C24.2904 48.5026 24.3429 48.5115 24.3957 48.5203C24.5204 48.5411 24.6446 48.5654 24.7681 48.5927C24.8175 48.6035 24.8673 48.6137 24.9164 48.6256C25.0844 48.6663 25.2517 48.711 25.417 48.7633C25.5014 48.7902 25.5873 48.8086 25.6736 48.8233C25.6928 48.8265 25.7113 48.8295 25.7305 48.8323C25.8168 48.8441 25.9036 48.852 25.9903 48.852L25.9941 48.8522C26.0019 48.8522 26.0095 48.8507 26.0173 48.8505C26.0798 48.8499 26.142 48.8459 26.2041 48.8393C26.2256 48.8369 26.2467 48.8335 26.2678 48.8303C26.3182 48.8229 26.368 48.8141 26.4178 48.8028C26.4408 48.7976 26.4636 48.7922 26.4862 48.7862C26.5364 48.7727 26.5856 48.7569 26.6345 48.7397C26.6539 48.7326 26.6733 48.7266 26.6923 48.7192C26.7594 48.6927 26.8255 48.6635 26.8894 48.6292C27.1735 48.4772 27.4056 48.257 27.5668 47.9953C27.6607 47.8431 27.731 47.6771 27.7729 47.5014C27.8202 47.3027 27.8728 47.1056 27.9304 46.9101C27.9337 46.8984 27.9377 46.8868 27.9411 46.8752C28.279 45.7406 28.7905 44.6612 29.4471 43.668C29.4807 43.6172 29.513 43.5657 29.5472 43.5152C29.6349 43.3862 29.7267 43.2601 29.8196 43.1344C29.8639 43.0744 29.9084 43.0147 29.9538 42.9555C30.0454 42.8358 30.1391 42.7173 30.2353 42.6008C30.2882 42.5366 30.3429 42.474 30.3971 42.4111C30.4919 42.3006 30.5866 42.1899 30.6852 42.0824C30.7616 41.9994 30.8415 41.9196 30.9202 41.8388C31.0599 41.6948 31.2032 41.554 31.3497 41.4163C31.452 41.3202 31.5541 41.2244 31.6596 41.1317C31.7356 41.065 31.8135 41.0006 31.8909 40.9356C32.003 40.8418 32.1163 40.7491 32.2319 40.6591C32.3062 40.6011 32.3809 40.5434 32.4566 40.4868C32.5875 40.3892 32.7206 40.2945 32.8552 40.2015C32.9198 40.1568 32.9833 40.1115 33.0487 40.0677C33.2507 39.9336 33.4558 39.8037 33.6658 39.6805C33.6828 39.6703 33.7014 39.6609 33.7185 39.6509L33.7204 39.65C33.747 39.6346 33.7742 39.6198 33.801 39.6045C33.9563 39.5159 34.1133 39.4309 34.272 39.3487L34.276 39.3469L34.322 39.323C34.3754 39.2953 34.429 39.2674 34.483 39.2404C34.5687 39.1979 34.656 39.1568 34.7428 39.1163C34.8008 39.0892 34.859 39.0619 34.9177 39.0358L34.9204 39.0342C35.0101 38.9939 35.1 38.9544 35.1905 38.9161C35.2543 38.8895 35.3182 38.863 35.3826 38.8373C35.4752 38.7998 35.5681 38.7619 35.6613 38.7264C35.6847 38.7176 35.7088 38.7094 35.7322 38.7004C36.1047 38.5616 36.4836 38.4391 36.8681 38.3334C36.9042 38.3234 36.9401 38.3133 36.9764 38.3035C37.0912 38.2742 37.2055 38.2456 37.3205 38.2183ZM56.4214 15.5219C56.3646 15.5391 56.3074 15.5551 56.2509 15.5732C56.1099 15.6175 55.9707 15.665 55.8316 15.713C55.7521 15.7402 55.6725 15.7677 55.5934 15.7964C55.4621 15.8439 55.3317 15.8924 55.2019 15.9428C55.1186 15.9752 55.0359 16.0087 54.9529 16.0424C54.8255 16.0942 54.698 16.1461 54.5725 16.2008C54.4982 16.2331 54.425 16.2676 54.3513 16.3009L54.3482 16.3025C53.0418 14.1178 51.306 12.1582 49.2539 10.5675C48.4735 9.9629 47.3248 10.0732 46.6881 10.8151C46.0515 11.5567 46.1682 12.6483 46.9487 13.2533C48.6852 14.5996 50.1494 16.2632 51.2401 18.1185C48.0519 20.4724 45.9034 23.7991 45.1266 27.5153C45.1243 27.5257 45.1228 27.5363 45.1207 27.5467C45.1059 27.6177 45.0937 27.6897 45.0802 27.7609C45.0743 27.7908 45.0688 27.8207 45.0631 27.8505C45.0317 28.0198 45.0015 28.189 44.9757 28.3597C44.9608 28.4583 44.9487 28.5578 44.9356 28.6571C44.9211 28.7694 44.9025 28.8804 44.8903 28.9929C44.6438 28.9645 44.3963 28.944 44.1479 28.929C44.1359 28.9284 44.1241 28.9266 44.1118 28.926C43.8508 28.9109 43.5892 28.9035 43.3267 28.9035C43.1519 28.9039 42.9781 28.9077 42.8048 28.9143C42.748 28.9165 42.6919 28.9212 42.6352 28.9242C42.5191 28.9302 42.4028 28.9358 42.2876 28.945C42.2199 28.9502 42.1528 28.958 42.0853 28.9643C41.9926 28.9729 41.9002 28.9801 41.808 28.9907C41.7968 28.9919 41.7856 28.9939 41.7744 28.9953C41.7031 29.0036 41.6324 29.0142 41.5615 29.0238C41.4628 29.0371 41.3642 29.0497 41.2663 29.0649C41.1933 29.0762 41.1211 29.0898 41.0485 29.1024C40.9532 29.1189 40.858 29.1349 40.7637 29.1536C40.6902 29.1678 40.6176 29.184 40.5446 29.1997C40.4516 29.2193 40.3587 29.2392 40.2663 29.2608C40.1931 29.2779 40.1207 29.2969 40.0479 29.3154C39.957 29.3384 39.8662 29.3613 39.7759 29.3862C39.7029 29.4062 39.6307 29.4277 39.5583 29.4489C39.4693 29.4752 39.38 29.5017 39.2918 29.5295C39.2201 29.5522 39.1488 29.5763 39.0777 29.6001C38.9899 29.6296 38.9021 29.6595 38.8151 29.6908C38.7447 29.716 38.6748 29.7423 38.605 29.7688C38.5185 29.8015 38.4319 29.8347 38.3463 29.8692C38.2773 29.8969 38.2087 29.9256 38.1401 29.9545C38.0547 29.9905 37.9694 30.0272 37.8848 30.0649C37.8177 30.0948 37.751 30.1253 37.6843 30.1566C37.5999 30.1961 37.5161 30.236 37.4326 30.2773C37.3672 30.3096 37.302 30.3421 37.2372 30.3754C37.1543 30.4179 37.072 30.4614 36.9901 30.5055C36.9264 30.54 36.8628 30.5747 36.7997 30.61C36.7181 30.6559 36.6373 30.7026 36.5569 30.7503C36.4953 30.7864 36.4341 30.8229 36.3731 30.8602C36.2927 30.9094 36.2129 30.9601 36.1336 31.011C36.0743 31.0491 36.015 31.087 35.9565 31.1261C35.8774 31.1789 35.7995 31.2326 35.7215 31.2869C35.6645 31.3266 35.6073 31.366 35.551 31.4065C35.4729 31.4628 35.3963 31.5204 35.3195 31.5785C35.2652 31.6194 35.211 31.6597 35.1574 31.7016C35.0802 31.7618 35.0042 31.8238 34.9283 31.8857C34.8772 31.9272 34.8259 31.9685 34.7755 32.0106C34.6987 32.0754 34.6231 32.1422 34.548 32.2086C34.5007 32.2503 34.4528 32.2914 34.4064 32.3335C34.3292 32.4039 34.2536 32.4763 34.1783 32.5485C34.1357 32.5892 34.0924 32.6291 34.0504 32.6702C33.9709 32.7486 33.8934 32.8288 33.8158 32.9092C33.7799 32.9463 33.7432 32.9824 33.7082 33.0199C33.6204 33.1133 33.5349 33.2086 33.4501 33.3044C33.4271 33.3307 33.4028 33.356 33.3798 33.3822C33.1642 33.6301 32.9586 33.8864 32.7635 34.1506C32.7472 34.1727 32.732 34.1956 32.7158 34.2178C32.636 34.3275 32.5573 34.4374 32.4811 34.5497C32.4526 34.5918 32.426 34.6349 32.398 34.677C32.3361 34.7707 32.2743 34.8641 32.2154 34.9596C32.1834 35.0113 32.153 35.0642 32.1218 35.1166C32.0694 35.204 32.0165 35.2916 31.9662 35.3807C31.9337 35.4382 31.9031 35.4968 31.8715 35.5547C31.8251 35.6404 31.7782 35.7256 31.7339 35.8122C31.7025 35.874 31.6725 35.9365 31.6421 35.9987C31.6005 36.0833 31.559 36.1681 31.5195 36.254C31.4893 36.3191 31.4611 36.3853 31.4322 36.4511C31.395 36.5357 31.3579 36.6203 31.3226 36.7059C31.2946 36.7739 31.2684 36.8429 31.2414 36.9115C31.2188 36.9698 31.1943 37.0274 31.1726 37.0861L31.1648 37.0914C30.7664 37.3466 30.3786 37.6181 30.0036 37.9067C29.6305 38.1936 29.2733 38.4972 28.9291 38.8123C28.9207 38.8201 28.912 38.8279 28.9036 38.8357C28.74 38.9861 28.5797 39.1391 28.4231 39.2955C28.4142 39.3043 28.4051 39.313 28.3965 39.322C28.0781 39.6412 27.7736 39.9721 27.4845 40.3142C27.4406 40.3661 27.398 40.4195 27.3545 40.472C27.2663 40.5795 27.1787 40.6874 27.0935 40.7967C27.0658 40.8319 27.0365 40.866 27.0091 40.9015C21.5377 37.9283 18.08 32.3459 18.08 26.2953C18.08 17.022 26.019 9.47782 35.7776 9.47782C37.869 9.47782 39.9145 9.82092 41.8582 10.4975C42.804 10.827 43.8512 10.3651 44.1977 9.4664C44.5442 8.56784 44.0585 7.57243 43.1127 7.24317C40.766 6.42623 38.2982 6.01195 35.7774 6.01195C24.0078 6.01195 14.4326 15.111 14.4326 26.2953C14.4326 33.5908 18.6027 40.3192 25.1965 43.9052C25.1194 44.0726 25.0454 44.2411 24.9745 44.4109C24.966 44.4314 24.957 44.4512 24.9485 44.4713C24.8685 44.6652 24.7913 44.8603 24.7194 45.0572C24.206 44.986 23.6871 44.9501 23.1652 44.9501C22.7795 44.9501 22.3963 44.97 22.0175 45.0089C15.5773 40.7281 11.754 33.7809 11.754 26.2949C11.754 13.7071 22.5309 3.46588 35.7776 3.46588C44.6478 3.46588 52.7069 8.08016 56.8854 15.3849C56.7303 15.4268 56.5761 15.4747 56.4214 15.5219Z" fill="#F7D7DA"/>
</svg>
