<svg width="71" height="72" viewBox="0 0 71 72" fill="none" xmlns="http://www.w3.org/2000/svg">
<path fill-rule="evenodd" clip-rule="evenodd" d="M67.9031 33.5722L57.9845 24.3185V9.15874H46.5589V13.6598L35.1333 3L2.3647 33.5722C1.9031 34.0038 1.87568 34.7304 2.30529 35.1954C2.73374 35.6591 3.45699 35.6855 3.92086 35.2551L7.71302 31.7171V70H25.994H44.2749H62.5559V31.7159L66.348 35.2539C66.5674 35.4594 66.8473 35.5604 67.1261 35.5604C67.4335 35.5604 67.7385 35.4376 67.9625 35.1942C68.3921 34.7304 68.3647 34.0038 67.9031 33.5722ZM10.0546 67.8033V29.7225L35.1339 6.29508L60.2131 29.7213V67.8033H10.0546ZM48.8135 11.6115H55.6533V22.3327L48.8135 15.944V11.6115Z" fill="#7C8BFE"/>
<path d="M57.9845 24.3185H55.9845V25.1879L56.6202 25.7809L57.9845 24.3185ZM67.9031 33.5722L69.2691 32.1113L69.2674 32.1098L67.9031 33.5722ZM57.9845 9.15874H59.9845V7.15874H57.9845V9.15874ZM46.5589 9.15874V7.15874H44.5589V9.15874H46.5589ZM46.5589 13.6598L45.1945 15.1222L48.5589 18.2611V13.6598H46.5589ZM35.1333 3L36.4977 1.53763L35.1333 0.264717L33.769 1.53763L35.1333 3ZM2.3647 33.5722L1.00034 32.1098L0.998696 32.1113L2.3647 33.5722ZM2.30529 35.1954L3.77432 33.8382L3.77419 33.838L2.30529 35.1954ZM3.92086 35.2551L5.28132 36.7211L5.28522 36.7174L3.92086 35.2551ZM7.71302 31.7171H9.71302V27.1159L6.34867 30.2547L7.71302 31.7171ZM7.71302 70H5.71302V72H7.71302V70ZM62.5559 70V72H64.5559V70H62.5559ZM62.5559 31.7159L63.9202 30.2535L60.5559 27.1147V31.7159H62.5559ZM66.348 35.2539L67.7153 33.7942L67.7124 33.7915L66.348 35.2539ZM67.9625 35.1942L66.4952 33.8351L66.4907 33.84L67.9625 35.1942ZM10.0546 29.7225L8.68938 28.2609L8.05464 28.8539V29.7225H10.0546ZM10.0546 67.8033H8.05464V69.8033H10.0546V67.8033ZM35.1339 6.29508L36.4991 4.83352L35.1338 3.55825L33.7686 4.83356L35.1339 6.29508ZM60.2131 29.7213H62.2131V28.8527L61.5783 28.2598L60.2131 29.7213ZM60.2131 67.8033V69.8033H62.2131V67.8033H60.2131ZM55.6533 11.6115H57.6533V9.61151H55.6533V11.6115ZM48.8135 11.6115V9.61151H46.8135V11.6115H48.8135ZM55.6533 22.3327L54.2881 23.7943L57.6533 26.9375V22.3327H55.6533ZM48.8135 15.944H46.8135V16.8127L47.4483 17.4056L48.8135 15.944ZM56.6202 25.7809L66.5387 35.0345L69.2674 32.1098L59.3488 22.8562L56.6202 25.7809ZM55.9845 9.15874V24.3185H59.9845V9.15874H55.9845ZM46.5589 11.1587H57.9845V7.15874H46.5589V11.1587ZM48.5589 13.6598V9.15874H44.5589V13.6598H48.5589ZM33.7689 4.46237L45.1945 15.1222L47.9233 12.1975L36.4977 1.53763L33.7689 4.46237ZM3.72905 35.0345L36.4977 4.46237L33.769 1.53763L1.00034 32.1098L3.72905 35.0345ZM3.77419 33.838C4.0922 34.1822 4.07132 34.7145 3.7307 35.033L0.998696 32.1113C-0.26511 33.2931 -0.340831 35.2787 0.836383 36.5527L3.77419 33.838ZM2.56041 33.789C2.90291 33.4712 3.44784 33.4848 3.77432 33.8382L0.836251 36.5525C2.01965 37.8335 4.01106 37.8999 5.28132 36.7211L2.56041 33.789ZM6.34867 30.2547L2.55651 33.7927L5.28522 36.7174L9.07737 33.1794L6.34867 30.2547ZM9.71302 70V31.7171H5.71302V70H9.71302ZM25.994 68H7.71302V72H25.994V68ZM44.2749 68H25.994V72H44.2749V68ZM62.5559 68H44.2749V72H62.5559V68ZM60.5559 31.7159V70H64.5559V31.7159H60.5559ZM67.7124 33.7915L63.9202 30.2535L61.1915 33.1783L64.9837 36.7163L67.7124 33.7915ZM67.1261 33.5604C67.3299 33.5604 67.546 33.6357 67.7153 33.7942L64.9808 36.7136C65.5888 37.2831 66.3647 37.5604 67.1261 37.5604V33.5604ZM66.4907 33.84C66.6625 33.6533 66.8998 33.5604 67.1261 33.5604V37.5604C67.9672 37.5604 68.8146 37.2219 69.4342 36.5485L66.4907 33.84ZM66.5371 35.033C66.1975 34.7155 66.174 34.1819 66.4952 33.8351L69.4297 36.5533C70.6102 35.279 70.5318 33.2921 69.2691 32.1113L66.5371 35.033ZM8.05464 29.7225V67.8033H12.0546V29.7225H8.05464ZM33.7686 4.83356L8.68938 28.2609L11.4199 31.184L36.4991 7.75661L33.7686 4.83356ZM61.5783 28.2598L36.4991 4.83352L33.7687 7.75664L58.8479 31.1829L61.5783 28.2598ZM62.2131 67.8033V29.7213H58.2131V67.8033H62.2131ZM10.0546 69.8033H60.2131V65.8033H10.0546V69.8033ZM55.6533 9.61151H48.8135V13.6115H55.6533V9.61151ZM57.6533 22.3327V11.6115H53.6533V22.3327H57.6533ZM47.4483 17.4056L54.2881 23.7943L57.0184 20.8711L50.1787 14.4824L47.4483 17.4056ZM46.8135 11.6115V15.944H50.8135V11.6115H46.8135Z" fill="#7C8BFE"/>
</svg>
