<svg width="48" height="48" viewBox="0 0 48 48" fill="none" xmlns="http://www.w3.org/2000/svg">
<path fill-rule="evenodd" clip-rule="evenodd" d="M42.8902 12.8782L42.9144 12.854L35.1456 5.0856L35.1218 5.10977L34.1895 4.17739C33.6405 3.62808 32.7499 3.62808 32.201 4.17739L27.2403 9.13809L38.8616 20.7598L42.828 16.7934L43.0591 17.0244C43.8666 17.8319 44.3111 18.9093 44.3111 20.0585C44.3111 21.2073 43.8666 22.2851 43.0591 23.0926L31.8501 34.3019C31.3008 34.8509 31.3008 35.7415 31.8501 36.2904C32.1248 36.5651 32.4844 36.7024 32.8444 36.7024C33.2044 36.7024 33.564 36.5651 33.8386 36.2904L45.0479 25.0815C46.3864 23.7426 47.124 21.9591 47.124 20.0589C47.124 18.1586 46.3864 16.3748 45.0479 15.0363L42.8902 12.8782Z" fill="white"/>
<path fill-rule="evenodd" clip-rule="evenodd" d="M3.98438 32.3932L25.2509 11.127L36.8726 22.7483L15.606 44.0149L3.98438 32.3932Z" fill="white"/>
<path fill-rule="evenodd" clip-rule="evenodd" d="M47.588 6.19153L41.8081 0.411988C41.2592 -0.137329 40.3689 -0.137329 39.8196 0.411988L37.1345 3.09705L44.903 10.8655L47.588 8.18042C48.1373 7.63111 48.1373 6.74085 47.588 6.19153Z" fill="white"/>
<path fill-rule="evenodd" clip-rule="evenodd" d="M1.06937 35.309C0.79801 35.5803 0.661047 35.9352 0.658118 36.2912C0.652625 36.3281 0.647498 36.3651 0.644934 36.4028L0.00296896 46.3275C-0.0270602 46.7919 0.17289 47.2167 0.503577 47.4946C0.762854 47.8044 1.15104 48 1.58023 48C1.61063 48 1.64139 47.9989 1.67215 47.9967L11.5968 47.3547C11.6349 47.3522 11.6719 47.347 11.7089 47.3419C12.0648 47.3386 12.4193 47.202 12.691 46.9307L13.6175 46.0038L1.99588 34.3821L1.06937 35.309Z" fill="white"/>
</svg>
