<svg width="133" height="162" viewBox="0 0 133 162" fill="none" xmlns="http://www.w3.org/2000/svg">
<path d="M66.5021 87.0111C76.4452 87.0111 86.1546 80.9866 93.8418 70.0474C100.626 60.3937 104.676 48.4579 104.676 38.1192C104.676 17.1004 87.551 0 66.5021 0C45.4531 0 28.3283 17.1004 28.3283 38.1192C28.3283 48.4579 32.3781 60.3937 39.1623 70.0474C46.8495 80.9866 56.559 87.0111 66.5021 87.0111ZM66.5021 6.2159C84.1187 6.2159 98.4511 20.5278 98.4511 38.1192C98.4511 47.0929 94.7324 57.9587 88.7466 66.477C82.3521 75.5763 74.2445 80.7952 66.5021 80.7952C58.7597 80.7952 50.6521 75.5763 44.2575 66.477C38.2718 57.9587 34.5531 47.0929 34.5531 38.1192C34.5531 20.5278 48.8855 6.2159 66.5021 6.2159Z" fill="#E9E9E9"/>
<path d="M122.441 104.06C115.715 93.6368 106.246 85.3162 95.0569 79.9974C93.8684 79.4326 92.4533 79.675 91.5212 80.6029C84.022 88.0707 75.3699 92.0173 66.5004 92.0173C57.6296 92.0173 48.9788 88.0707 41.4842 80.6033C40.5521 79.6746 39.1362 79.4318 37.9481 79.997C26.7592 85.3158 17.2892 93.6368 10.5622 104.06C3.6523 114.767 0 127.189 0 139.982V140.036C0 140.913 0.370999 141.749 1.02128 142.338C18.9803 158.602 42.2345 162 66.5 162C90.7655 162 114.019 158.602 131.979 142.338C132.629 141.749 133 140.913 133 140.036V139.982C133.001 127.189 129.349 114.767 122.441 104.06ZM66.5004 155.785C44.2484 155.785 22.904 153.297 6.23933 138.658C6.48127 127.53 9.77253 116.759 15.7948 107.427C21.5079 98.5755 29.4014 91.3962 38.7133 86.5598C47.0317 94.2066 56.5967 98.2333 66.5004 98.2333C76.4024 98.2333 85.9691 94.2058 94.2917 86.5594C103.603 91.3953 111.496 98.5751 117.208 107.427C123.229 116.758 126.52 127.528 126.761 138.658C110.097 153.297 88.7524 155.785 66.5004 155.785Z" fill="#E9E9E9"/>
</svg>
