<svg width="32" height="40" viewBox="0 0 32 40" fill="none" xmlns="http://www.w3.org/2000/svg">
<path d="M28.8198 16.1537H28.0334V12.5058C28.0334 5.75889 22.6312 0.122778 15.879 0.00246542C15.6945 -0.000821806 15.3259 -0.000821806 15.1415 0.00246542C8.38914 0.122778 2.98698 5.75889 2.98698 12.5058V16.1537H2.2005C0.988557 16.1537 0 17.3931 0 18.9239V37.2199C0 38.749 0.988557 40 2.20058 40H28.8198C30.0318 40 31.0204 38.749 31.0204 37.2199V18.9239C31.0204 17.3932 30.0318 16.1537 28.8198 16.1537ZM18.0041 28.0533V33.5817C18.0041 34.2147 17.4693 34.7505 16.8301 34.7505H14.1905C13.5512 34.7505 13.0164 34.2147 13.0164 33.5817V28.0533C12.3964 27.4485 12.0355 26.6121 12.0355 25.6869C12.0355 23.9337 13.4029 22.4272 15.1415 22.3576C15.3258 22.3502 15.6949 22.3502 15.8791 22.3576C17.6177 22.4272 18.9852 23.9337 18.9852 25.6869C18.985 26.6121 18.624 27.4485 18.0041 28.0533ZM22.8502 16.1537H15.879H15.1415H8.17032V12.5058C8.17032 8.48679 11.4658 5.16365 15.5102 5.16365C19.5546 5.16365 22.8503 8.48679 22.8503 12.5058V16.1537H22.8502Z" fill="white"/>
</svg>
