<svg width="121" height="124" viewBox="0 0 121 124" fill="none" xmlns="http://www.w3.org/2000/svg">
<path d="M118.921 119.842H104.789V115.581C104.789 105.825 102.188 98.2955 97.0571 93.2011C90.5183 86.7089 82.3047 86.6937 81.9751 86.6937H71.5604V80.0579C78.2134 77.301 82.4197 72.7113 84.9828 68.7316C88.9837 62.5191 89.886 56.5404 89.9223 56.2889C89.9367 56.1903 89.944 56.0905 89.944 55.9907V55.5454C91.4043 55.1853 92.6747 54.4319 93.6835 53.315C96.6269 50.0557 96.4561 44.9136 96.246 42.8541C96.086 41.2867 95.3767 39.9713 94.1949 39.0502C92.9023 38.0425 91.2701 37.6907 89.944 37.5928V19.8204C89.944 13.2808 87.2392 8.90879 81.6751 6.45485C80.6888 6.0199 80.2079 5.41057 80.115 4.47856C80.0291 3.6178 80.3093 2.83438 80.3093 2.83438C80.6675 1.91513 80.3304 0.870849 79.503 0.334432C78.6752 -0.202262 77.5841 -0.0827809 76.8917 0.619412C73.9222 3.63139 70.9561 3.68628 64.5282 3.5241C60.3405 3.41793 55.127 3.28625 48.2612 4.26843C38.7946 5.62264 34.5952 11.4742 32.7393 16.1445C30.8856 20.8086 30.9948 25.1671 31.0211 25.7853V37.5914C29.6919 37.6876 28.0522 38.0383 26.7546 39.0502C25.5726 39.9713 24.8635 41.2865 24.7039 42.8544C24.4937 44.9139 24.323 50.056 27.2664 53.315C28.2865 54.4443 29.5744 55.2011 31.0552 55.5563V55.9907C31.0552 56.0905 31.0624 56.1903 31.0768 56.2889C31.1132 56.5404 32.0157 62.5191 36.0164 68.7316C38.5795 72.7111 42.7858 77.301 49.4388 80.0579V86.6937H39.0385C38.682 86.6914 30.4814 86.7078 23.9415 93.2011C18.8107 98.2955 16.2091 105.826 16.2091 115.581V119.842H2.07905C0.930584 119.842 0 120.773 0 121.921C0 123.069 0.930584 124 2.07905 124H118.921C120.069 124 121 123.069 121 121.921C121 120.773 120.069 119.842 118.921 119.842ZM100.632 115.581V119.842H73.1929V90.8519H81.6136V98.9082C79.8248 99.5563 78.3561 100.92 77.3795 102.88C76.4958 104.652 76.2879 106.328 76.2671 106.513C76.2585 106.59 76.2541 106.668 76.2541 106.745V112.405C76.2541 113.554 77.185 114.484 78.3331 114.484C79.4816 114.484 80.4122 113.554 80.4122 112.405V106.884C80.5034 106.282 81.1218 102.977 83.6927 102.662C86.2607 102.976 86.88 106.273 86.9731 106.885V112.405C86.9731 113.554 87.9037 114.484 89.0522 114.484C90.2007 114.484 91.1312 113.554 91.1312 112.405V106.745C91.1312 106.668 91.1268 106.59 91.1182 106.513C91.0974 106.328 90.8895 104.651 90.0058 102.88C89.0292 100.92 87.5605 99.5563 85.7717 98.9082V91.4335C88.1745 92.0664 91.3444 93.3882 94.1278 96.1518C98.4434 100.437 100.632 106.974 100.632 115.581ZM60.4985 99.8127C63.932 99.8127 67.0048 98.2398 69.0348 95.7767V119.842H51.8266V95.6043C53.8538 98.1649 56.9865 99.8127 60.4985 99.8127ZM92.1098 43.2761C92.3568 45.6989 92.0895 48.8761 90.5979 50.5278C90.398 50.749 90.1796 50.9314 89.9442 51.0845V41.771C90.5887 41.8453 91.2335 42.0111 91.6441 42.3335C91.8425 42.4899 92.0532 42.7238 92.1098 43.2761ZM36.6035 17.6805C38.7125 12.3732 42.8332 9.24588 48.8505 8.38512C55.3704 7.45228 60.3904 7.57925 64.4235 7.68154C69.1243 7.80047 72.8716 7.89528 76.2505 6.20674C76.7461 7.80962 77.8785 9.32544 79.9975 10.2599C84.055 12.0494 85.7861 14.9086 85.7861 19.8206V31.4416C82.1295 31.1209 79.4101 29.9216 77.6939 27.8575C74.5969 24.133 75.5766 18.6159 75.5857 18.5673C75.767 17.6265 75.2817 16.6836 74.4107 16.2842C73.54 15.8847 72.5087 16.1328 71.9139 16.8841C68.1486 21.6428 62.7741 23.4489 55.9418 22.2496C50.5603 21.3057 46.2656 18.7919 46.2248 18.768C45.6721 18.4393 44.9985 18.3849 44.4002 18.6203C43.802 18.8559 43.3463 19.3552 43.1661 19.9726C41.3371 26.2424 37.5959 28.7263 35.1798 29.6996V25.7368C35.1798 25.6977 35.1787 25.6586 35.1765 25.6198C35.174 25.5818 34.9802 21.7653 36.6035 17.6805ZM30.3525 50.5278C28.8608 48.8761 28.5936 45.6989 28.8406 43.2763C28.8972 42.7238 29.1078 42.4896 29.3066 42.3335C29.7274 42.0028 30.3949 41.8362 31.0558 41.7649V51.1152C30.8007 50.9567 30.5659 50.7643 30.3525 50.5278ZM39.5954 66.6081C36.3424 61.6151 35.3633 56.6721 35.2133 55.8205V34.0713C38.0605 33.2654 43.3857 30.8162 46.3415 23.4982C48.3263 24.4238 51.464 25.6699 55.0982 26.3231C61.4945 27.4724 67.0472 26.368 71.4271 23.1229C71.7287 25.4387 72.5406 28.1474 74.4692 30.483C76.9848 33.5291 80.7859 35.2517 85.7858 35.6168V55.8199C85.6339 56.6812 84.654 61.6196 81.4038 66.6078C76.7442 73.7595 69.776 77.6924 60.6925 78.2978H60.3064C51.2234 77.6927 44.255 73.7598 39.5954 66.6081ZM60.104 82.4522C60.1489 82.455 60.1936 82.4567 60.2385 82.4567H60.761C60.8059 82.4567 60.8505 82.4553 60.8954 82.4522C63.2517 82.2995 65.4136 81.9444 67.4023 81.4354V88.6993C67.4018 88.7174 67.3995 88.7348 67.3995 88.7531C67.3995 92.5585 64.3037 95.6547 60.4982 95.6547C56.693 95.6547 53.5971 92.5585 53.5971 88.7531V81.4354C55.5858 81.9444 57.7478 82.2995 60.104 82.4522ZM38.2307 103.212C40.2435 103.212 41.8807 104.849 41.8807 106.862C41.8807 108.875 40.2435 110.512 38.2307 110.512C36.2179 110.512 34.5807 108.875 34.5807 106.862C34.5807 104.85 36.2179 103.212 38.2307 103.212ZM20.3678 115.581C20.3678 96.8196 30.9047 92.2907 36.1514 91.1985V99.3367C32.8526 100.25 30.4224 103.276 30.4224 106.862C30.4224 111.167 33.9251 114.67 38.2304 114.67C42.5357 114.67 46.0385 111.168 46.0385 106.862C46.0385 103.276 43.6083 100.249 40.3095 99.3367V90.8519H47.6682V119.842H20.3678V115.581Z" fill="#D4DCEF"/>
<path d="M45.7423 41.188C47.1128 41.188 48.2239 40.077 48.2239 38.7064C48.2239 37.3358 47.1128 36.2247 45.7423 36.2247C44.3718 36.2247 43.2607 37.3358 43.2607 38.7064C43.2607 40.077 44.3718 41.188 45.7423 41.188Z" fill="#D4DCEF"/>
<path d="M75.2577 41.188C76.6281 41.188 77.739 40.0771 77.739 38.7067C77.739 37.3362 76.6281 36.2253 75.2577 36.2253C73.8873 36.2253 72.7764 37.3362 72.7764 38.7067C72.7764 40.0771 73.8873 41.188 75.2577 41.188Z" fill="#D4DCEF"/>
<path d="M73.3881 64.4159C74.1092 63.5218 73.9689 62.2131 73.0749 61.4923C72.1809 60.771 70.8719 60.9118 70.1515 61.8053C70.1293 61.833 67.6319 64.5606 61.0117 64.5606C54.1345 64.5606 50.7819 61.7066 50.6181 61.5633C49.7696 60.8012 48.4631 60.8647 47.693 61.7097C46.9193 62.5582 46.98 63.8734 47.8286 64.6468C48.0107 64.8131 52.3933 68.7189 61.0117 68.7189C69.6678 68.7189 73.0328 64.8561 73.3881 64.4159Z" fill="#D4DCEF"/>
<path d="M59.9637 53.3236H61.0356C63.7869 53.3236 66.0253 51.085 66.0253 48.3336C66.0253 47.1854 65.0947 46.2545 63.9463 46.2545C62.7978 46.2545 61.8672 47.1854 61.8672 48.3336C61.8672 48.7921 61.4941 49.1653 61.0356 49.1653H59.9637C59.5052 49.1653 59.132 48.7921 59.132 48.3336C59.132 47.1854 58.2014 46.2545 57.053 46.2545C55.9045 46.2545 54.9739 47.1854 54.9739 48.3336C54.9739 51.0853 57.2124 53.3236 59.9637 53.3236Z" fill="#D4DCEF"/>
<path d="M38.2307 108.156C38.9451 108.156 39.5242 107.576 39.5242 106.862C39.5242 106.148 38.9451 105.569 38.2307 105.569C37.5164 105.569 36.9373 106.148 36.9373 106.862C36.9373 107.576 37.5164 108.156 38.2307 108.156Z" fill="#D4DCEF"/>
</svg>
