<svg width="27" height="36" viewBox="0 0 27 36" fill="none" xmlns="http://www.w3.org/2000/svg">
<path d="M15.6424 5.94981L15.1957 6.51864L15.8857 6.73562C19.5954 7.90218 22.375 11.7451 22.375 16.349V23.2441C22.375 24.5185 23.3136 25.6523 24.582 25.6523C25.5882 25.6523 26.5 26.5872 26.5 27.8553V28.2344C26.5 29.5025 25.5882 30.4374 24.582 30.4374H17.25H16.75V30.9374V31.8079C16.75 33.8971 15.2407 35.5 13.5 35.5C11.7593 35.5 10.25 33.8971 10.25 31.8079V30.9374V30.4374H9.74997H2.41798C1.41176 30.4374 0.5 29.5026 0.5 28.2344V27.8554C0.5 26.5872 1.41182 25.6524 2.41798 25.6524C3.68633 25.6524 4.62496 24.5187 4.62496 23.2441V16.349C4.62496 11.7451 7.40445 7.90219 11.1143 6.73569L11.8043 6.51873L11.3575 5.94988C10.9052 5.37402 10.625 4.61315 10.625 3.77289C10.625 1.91478 11.9661 0.5 13.5 0.5C15.0339 0.5 16.375 1.91478 16.375 3.77282C16.375 4.61308 16.0947 5.37395 15.6424 5.94981ZM11.25 30.4373H10.75V30.9373V31.8078C10.75 33.417 11.9323 34.823 13.5 34.823C15.0677 34.823 16.25 33.417 16.25 31.8078C16.25 31.8078 16.25 31.8078 16.25 31.8078L16.25 30.9373L16.2501 30.4373H15.75H11.25ZM15.875 3.77275C15.875 2.39474 14.8609 1.17674 13.5 1.17674C12.139 1.17674 11.125 2.39475 11.125 3.77275C11.125 5.15076 12.1391 6.36876 13.5 6.36876C14.8609 6.36876 15.875 5.15076 15.875 3.77275Z" fill="white" stroke="#D4DCEF"/>
</svg>
