<svg width="115" height="108" viewBox="0 0 115 108" fill="none" xmlns="http://www.w3.org/2000/svg">
<path d="M103.672 87.1145C106.391 89.8336 106.391 94.2573 103.672 96.976C102.355 98.2931 100.604 99.0185 98.7411 99.0185C96.8786 99.0185 95.1273 98.2931 93.8102 96.9758C91.0916 94.2566 91.0916 89.8329 93.8102 87.1143C95.1273 85.7971 96.8783 85.072 98.7411 85.072C100.604 85.0723 102.355 85.7974 103.672 87.1145ZM96.598 94.1885C97.1705 94.761 97.9316 95.0764 98.7411 95.0764C99.5506 95.0764 100.312 94.761 100.884 94.1885C102.066 93.0068 102.066 91.0837 100.884 89.902C100.312 89.3295 99.5506 89.0141 98.7411 89.0143C97.9316 89.0141 97.1705 89.3295 96.598 89.902C95.416 91.0835 95.416 93.0065 96.598 94.1885Z" fill="#D4DCEF"/>
<path d="M1.97317 5.04982H9.17608C10.1036 2.12572 12.8429 0.000231982 16.0701 0.000231982C20.0572 0.000231982 23.3013 3.24411 23.3013 7.23143C23.3013 11.2185 20.0574 14.4626 16.0701 14.4626C12.6901 14.4626 9.84507 12.131 9.05688 8.99215H3.94422V26.7986C3.94422 40.2138 14.858 51.1276 28.2732 51.1276C41.6884 51.1276 52.6022 40.2138 52.6022 26.7986V8.99192H47.9106C47.1225 12.1308 44.2774 14.4624 40.8974 14.4624C36.9103 14.4624 33.6662 11.2185 33.6662 7.2312C33.6662 3.24411 36.9101 0 40.8974 0C44.1246 0 46.8639 2.12549 47.7915 5.04959H54.5732C55.6617 5.04959 56.5443 5.93216 56.5443 7.02064V26.7981C56.5443 41.7213 44.9214 53.9791 30.2528 54.9987V67.3878C30.2528 76.0263 37.2809 83.0542 45.9194 83.0542C54.4946 83.0542 61.4712 75.9097 61.4712 67.1279V36.6019C61.4712 25.7897 70.2419 16.9934 81.0224 16.9934C91.8346 16.9934 100.631 25.7899 100.631 36.6019V76.3127C108.484 77.2484 114.594 83.9446 114.594 92.0454C114.594 100.784 107.484 107.894 98.7449 107.894C90.0055 107.894 82.8958 100.785 82.8958 92.0454C82.8958 84.0031 88.9182 77.3458 96.6888 76.3341V36.6017C96.6888 27.9631 89.6607 20.9353 81.0222 20.9353C72.4152 20.9353 65.4131 27.9634 65.4131 36.6017V67.1279C65.4131 78.0832 56.6681 86.9963 45.9192 86.9963C35.107 86.9963 26.3105 78.1998 26.3105 67.3878V54.9999C11.6339 53.9886 0.00189209 41.7273 0.00189209 26.7981V7.02087C0.00212097 5.93216 0.884689 5.04982 1.97317 5.04982ZM16.0701 10.5203C17.8837 10.5203 19.3592 9.04502 19.3592 7.2312C19.3592 5.41737 17.8839 3.9421 16.0701 3.9421C14.2565 3.9421 12.781 5.41737 12.781 7.2312C12.781 9.04502 14.2565 10.5203 16.0701 10.5203ZM40.8974 3.9421C39.0838 3.9421 37.6083 5.41737 37.6083 7.2312C37.6083 9.04502 39.0836 10.5203 40.8974 10.5203C42.711 10.5203 44.1865 9.04502 44.1865 7.2312C44.1865 5.41737 42.711 3.9421 40.8974 3.9421ZM86.8381 92.0454C86.8381 98.6108 92.1795 103.952 98.7451 103.952C105.31 103.952 110.652 98.6106 110.652 92.0454C110.652 85.4797 105.31 80.1384 98.7449 80.1384C92.1795 80.1384 86.8381 85.4797 86.8381 92.0454Z" fill="#D4DCEF"/>
</svg>
