<svg width="73" height="73" viewBox="0 0 73 73" fill="none" xmlns="http://www.w3.org/2000/svg">
<path d="M51.6638 72.9701C51.9931 72.985 52.3073 73 52.6366 73C56.1537 73 59.087 71.7279 61.3918 69.2285C61.4068 69.2135 61.4367 69.1836 61.4517 69.1686C62.2748 68.1809 63.2027 67.2829 64.1905 66.34C64.864 65.6965 65.5524 65.038 66.196 64.3495C69.2641 61.1468 69.2491 57.0909 66.1661 54.0079L57.6353 45.4771C56.1686 43.9506 54.4176 43.1424 52.5618 43.1424C50.7209 43.1424 48.9549 43.9356 47.4433 45.4472L42.3997 50.4908C41.9507 50.2364 41.4868 50.0119 41.0378 49.7874C40.4691 49.503 39.9453 49.2337 39.4813 48.9493C34.8567 46.0159 30.6662 42.1846 26.6553 37.2607C24.6348 34.7164 23.3028 32.5912 22.36 30.4062C23.677 29.2089 24.9042 27.9667 26.0866 26.7544C26.5206 26.3204 26.9546 25.8714 27.4036 25.4224C30.6063 22.2197 30.6063 18.2536 27.4036 15.0658L23.1681 10.8304C22.6743 10.3365 22.1953 9.84261 21.7164 9.36369C20.7735 8.40585 19.8007 7.40311 18.8279 6.50514C17.3612 5.03845 15.6252 4.27518 13.7843 4.27518C11.9584 4.27518 10.1924 5.03845 8.66588 6.50514L3.35288 11.8032C1.40727 13.7488 0.299773 16.1134 0.0603134 18.8523C-0.209078 22.2646 0.419502 25.8864 2.03585 30.2565C4.53521 37.0063 8.29173 43.2771 13.8592 49.982C20.6388 58.0637 28.7805 64.4543 38.0894 68.9591C41.6364 70.6503 46.3807 72.6258 51.6638 72.9701ZM16.6878 47.6323C11.3897 41.2567 7.84274 35.3301 5.49305 28.9844C4.04132 25.0782 3.50254 22.0401 3.72703 19.1516C3.89166 17.2808 4.61004 15.7243 5.957 14.3923L11.2401 9.10926C12.0482 8.33102 12.9313 7.92693 13.7993 7.92693C14.6524 7.92693 15.4905 8.33102 16.2986 9.12423C17.2415 10.0072 18.1545 10.9351 19.1123 11.9079C19.5912 12.4018 20.0851 12.9107 20.594 13.4046L24.8294 17.64C26.5655 19.3761 26.5655 21.0822 24.8294 22.8183C24.3804 23.2673 23.9314 23.7163 23.4974 24.1653C22.1804 25.4973 20.9531 26.7544 19.5912 27.9667C19.5613 27.9966 19.5463 28.0116 19.5164 28.0415C18.3041 29.2538 18.4837 30.4211 18.783 31.2892C18.798 31.3341 18.813 31.364 18.8279 31.4089C19.9205 34.043 21.462 36.5423 23.8267 39.5356C28.092 44.7887 32.5819 48.8745 37.5507 52.0323C38.1643 52.4215 38.8078 52.7507 39.4364 53.065C40.0051 53.3494 40.5289 53.6188 40.9929 53.9031C41.0528 53.933 41.0977 53.963 41.1575 53.9929C41.6364 54.2324 42.1004 54.3521 42.5793 54.3521C43.7616 54.3521 44.5099 53.6038 44.7494 53.3494L50.0624 48.0364C50.8706 47.2282 51.7386 46.8091 52.5917 46.8091C53.6393 46.8091 54.4924 47.4676 55.0462 48.0364L63.6068 56.597C65.7021 58.6923 64.7443 60.578 63.5619 61.8202C62.9633 62.4638 62.3347 63.0624 61.6762 63.706C60.6735 64.6638 59.6408 65.6666 58.6979 66.789C57.0816 68.5251 55.1659 69.3333 52.6665 69.3333C52.4271 69.3333 52.1726 69.3183 51.9332 69.3033C47.2787 69.004 42.9684 67.1931 39.7208 65.6516C30.8608 61.3862 23.1232 55.3249 16.6878 47.6323Z" fill="#6BA0FE"/>
<path d="M40.0803 13.3596C39.0776 13.195 38.1347 13.8685 37.9701 14.8563C37.8055 15.859 38.4789 16.8019 39.4667 16.9665C43.5824 17.6699 47.324 19.6155 50.3172 22.5938C53.2955 25.5721 55.2411 29.3286 55.9445 33.4443C56.0942 34.3423 56.8724 34.9708 57.7554 34.9708C57.8602 34.9708 57.9649 34.9559 58.0697 34.9409C59.0724 34.7763 59.7459 33.8184 59.5663 32.8307C58.7432 27.9667 56.4384 23.5217 52.9213 20.0046C49.3743 16.4726 44.9443 14.1828 40.0803 13.3596Z" fill="#6BA0FE"/>
<path d="M71.075 34.3423C71.1798 34.3423 71.2845 34.3273 71.3893 34.3124C72.392 34.1477 73.0655 33.1899 72.8859 32.2021C71.524 24.1503 67.7226 16.8318 61.9007 11.01C56.0639 5.18812 48.7454 1.3867 40.6936 0.0247739C39.6909 -0.139854 38.748 0.533625 38.5834 1.52139C38.4187 2.52413 39.0922 3.467 40.08 3.63163C47.3685 4.87382 54.0135 8.31605 59.2966 13.5991C64.5797 18.8822 68.0219 25.5272 69.2641 32.8157C69.4138 33.7137 70.192 34.3423 71.075 34.3423Z" fill="#6BA0FE"/>
</svg>
