<svg width="92" height="109" xmlns="http://www.w3.org/2000/svg">
   <path fill="#6DA0FF" d="m59.33005,41.90006l-42.4982,0c-0.98356,0 -1.78245,-0.80292 -1.78245,-1.78319c0,-0.98363 0.79889,-1.78319 1.78245,-1.78319l42.4976,0c0.97849,0 1.78252,0.79896 1.78252,1.78319c0,0.98422 -0.80344,1.78319 -1.78192,1.78319zm-18.77922,14.2603c0,-0.98363 -0.79889,-1.78319 -1.78304,-1.78319l-21.93594,0c-0.98356,0 -1.78245,0.79896 -1.78245,1.78319c0,0.98027 0.79889,1.7843 1.78245,1.7843l21.93594,0c0.98698,0 1.78304,-0.80403 1.78304,-1.7843zm-23.71898,14.25172c-0.98356,0 -1.78245,0.80068 -1.78245,1.78319c0,0.98199 0.79889,1.7826 1.78245,1.7826l11.2456,0c0.98362,0 1.78304,-0.80061 1.78304,-1.7826c0,-0.98251 -0.79889,-1.78319 -1.78304,-1.78319l-11.2456,0zm53.13822,-50.43179l-13.27056,0l0,3.83059c0,0.98423 -0.79889,1.78319 -1.78073,1.78319l-33.68357,0c-0.98362,0 -1.78311,-0.79896 -1.78311,-1.78319l0,-3.83059l-13.27163,0l0,79.82964l44.47219,0c0.98363,0 1.78312,0.80142 1.78312,1.78326c0,0.98557 -0.79889,1.78252 -1.78312,1.78252l-46.24266,0c-0.98589,0 -1.78306,-0.7977 -1.78306,-1.78252l0,-83.39609c0,-0.98363 0.79717,-1.78319 1.78306,-1.78319l15.05298,0l0,-4.89943c0,-0.98027 0.79889,-1.78319 1.78304,-1.78319l7.30721,0c0,-0.02803 0,-0.06061 0,-0.08521c-0.00052,-5.25977 4.27753,-9.53644 9.53406,-9.53644c5.25645,0 9.53397,4.27667 9.53397,9.53644c0,0.02803 0,0.06061 0,0.08521l7.30721,0c0.98013,0 1.78245,0.8024 1.78245,1.78319l0,4.89943l15.04964,0c0.9887,0 1.78245,0.79897 1.78245,1.78319l0,43.06688l-3.57294,-41.28369zm-16.83664,-6.67978l-7.5583,0c-0.55011,0 -1.06705,-0.24938 -1.40499,-0.68058c-0.33973,-0.4318 -0.45581,-0.99392 -0.32542,-1.53382c0.13956,-0.54847 0.2036,-1.00823 0.2036,-1.4366c0,-3.29587 -2.67802,-5.97064 -5.96849,-5.97064c-3.29047,0 -5.97021,2.67477 -5.97021,5.97064c0,0.43866 0.06464,0.89156 0.20017,1.43258c0.13613,0.53132 0.01372,1.10261 -0.32027,1.53732c-0.33563,0.43515 -0.85659,0.6805 -1.4085,0.6805l-7.55934,0l0,8.73061l30.11175,0l0,-8.73001z"/>
   <path fill="#6DA0FF" d="m59.33005,41.90006l-42.4982,0c-0.98356,0 -1.78245,-0.80292 -1.78245,-1.78319c0,-0.98363 0.79889,-1.78319 1.78245,-1.78319l42.4976,0c0.97849,0 1.78252,0.79896 1.78252,1.78319c0,0.49211 -0.20086,0.93791 -0.52403,1.26068c-0.32317,0.32277 -0.76865,0.52251 -1.25789,0.52251zm-18.77922,14.2603c0,-0.98363 -0.79889,-1.78319 -1.78304,-1.78319l-21.93594,0c-0.98356,0 -1.78245,0.79896 -1.78245,1.78319c0,0.98027 0.79889,1.7843 1.78245,1.7843l21.93594,0c0.98698,0 1.78304,-0.80403 1.78304,-1.7843zm-23.71898,14.25172c-0.98356,0 -1.78245,0.80068 -1.78245,1.78319c0,0.98199 0.79889,1.7826 1.78245,1.7826l11.2456,0c0.98362,0 1.78304,-0.80061 1.78304,-1.7826c0,-0.98251 -0.79889,-1.78319 -1.78304,-1.78319l-11.2456,0zm53.81883,-6.63792l-0.68061,-43.79387l-13.27056,0l0,3.83059c0,0.98423 -0.79889,1.78319 -1.78073,1.78319l-33.68357,0c-0.98362,0 -1.78311,-0.79896 -1.78311,-1.78319l0,-3.83059l-13.27163,0l0,79.82964l44.47219,0c0.98363,0 1.78312,0.80142 1.78312,1.78326c0,0.98557 -0.79889,1.78252 -1.78312,1.78252l-46.24266,0c-0.98589,0 -1.78306,-0.7977 -1.78306,-1.78252l0,-83.39609c0,-0.98363 0.79717,-1.78319 1.78306,-1.78319l15.05298,0l0,-4.89943c0,-0.98027 0.79889,-1.78319 1.78304,-1.78319l7.30721,0c0,-0.02803 0,-0.06061 0,-0.08521c-0.00052,-5.25977 4.27753,-9.53644 9.53406,-9.53644c5.25645,0 9.53397,4.27667 9.53397,9.53644c0,0.02803 0,0.06061 0,0.08521l7.30721,0c0.98013,0 1.78245,0.8024 1.78245,1.78319l0,4.89943l15.04964,0c0.9887,0 1.78245,0.79897 1.78245,1.78319l0.12674,43.65234m-20.53632,-48.54893l-7.5583,0c-0.55011,0 -1.06705,-0.24938 -1.40499,-0.68058c-0.33973,-0.4318 -0.45581,-0.99392 -0.32542,-1.53382c0.13956,-0.54847 0.2036,-1.00823 0.2036,-1.4366c0,-3.29587 -2.67802,-5.97064 -5.96849,-5.97064c-3.29047,0 -5.97021,2.67477 -5.97021,5.97064c0,0.43866 0.06464,0.89156 0.20017,1.43258c0.13613,0.53132 0.01372,1.10261 -0.32027,1.53732c-0.33563,0.43515 -0.85659,0.6805 -1.4085,0.6805l-7.55934,0l0,8.73061l30.11175,0l0,-8.73001z"/>
   <path fill="#6DA0FF" d="m88.64966,73.741533c-2.32456,-4.42037 -5.90173,-8.02042 -10.322,-10.32182l-3.64574,-1.54937c-2.46066,-0.82031 -5.03537,-1.25326 -7.63296,-1.23047c-13.39786,0 -24.28938,10.84594 -24.28938,24.26659c0,2.5748 0.41016,5.14952 1.25326,7.58757l1.54937,3.64573c6.17486,11.89398 20.84877,16.51901 32.74321,10.34489c11.89333,-6.17504 16.51929,-20.84904 10.34424,-32.74312zm-21.57791,31.87686c-11.41554,0 -20.66644,-9.2508 -20.66644,-20.66635c0,-11.41554 9.2509,-20.66643 20.66644,-20.66643c11.41526,0 20.66625,9.25089 20.66625,20.66643c0,11.39275 -9.25099,20.64411 -20.66625,20.66635z"/>
   <path fill="#6DA0FF" d="m78.030253,84.291275l-9.045677,0l0,-12.372605c0,-1.002553 -0.82022,-1.822773 -1.822773,-1.822773c-1.002646,0 -1.822866,0.82022 -1.822866,1.822773l0,14.195378c-0.045583,0.957063 0.706355,1.777283 1.686116,1.800074c0.022792,0 0.045583,0 0.068375,0l10.936826,0c1.002461,0 1.823329,-0.82022 1.823329,-1.822866c0,-1.002553 -0.820869,-1.799982 -1.823329,-1.799982z"/>
</svg>