<?xml version="1.0" encoding="utf-8"?>
<!-- Svg Vector Icons : http://www.onlinewebfonts.com/icon -->
<!DOCTYPE svg PUBLIC "-//W3C//DTD SVG 1.1//EN" "http://www.w3.org/Graphics/SVG/1.1/DTD/svg11.dtd">
<svg version="1.1" xmlns="http://www.w3.org/2000/svg" xmlns:xlink="http://www.w3.org/1999/xlink" x="0px" y="0px" viewBox="0 0 1000 1000" enable-background="new 0 0 1000 1000" xml:space="preserve">
<metadata> Svg Vector Icons : http://www.onlinewebfonts.com/icon </metadata>
<g><path d="M38.8,344.4c-15.9,0-28.8-12.9-28.8-28.8V50.4C10,28.1,28.1,10,50.4,10h265.2c15.9,0,28.8,12.9,28.8,28.8s-12.9,28.8-28.8,28.8H67.6v247.9C67.6,331.4,54.7,344.4,38.8,344.4z"/><path d="M961.2,344.4c-15.9,0-28.8-12.9-28.8-28.8V67.6H684.5c-15.9,0-28.8-12.9-28.8-28.8S668.6,10,684.5,10h265.2c22.3,0,40.4,18.1,40.4,40.4v265.2C990,331.4,977.1,344.4,961.2,344.4z"/><path d="M315.5,990H50.4C28.1,990,10,971.9,10,949.6V684.5c0-15.9,12.9-28.8,28.8-28.8s28.8,12.9,28.8,28.8v247.9h247.9c15.9,0,28.8,12.9,28.8,28.8C344.4,977.1,331.4,990,315.5,990z"/><path d="M949.6,990H684.5c-15.9,0-28.8-12.9-28.8-28.8c0-15.9,12.9-28.8,28.8-28.8h247.9V684.5c0-15.9,12.9-28.8,28.8-28.8s28.8,12.9,28.8,28.8v265.2C990,971.9,971.9,990,949.6,990z"/><path d="M961.2,528.8H38.8C22.9,528.8,10,515.9,10,500c0-15.9,12.9-28.8,28.8-28.8h922.4c15.9,0,28.8,12.9,28.8,28.8C990,515.9,977.1,528.8,961.2,528.8z"/></g>
</svg>