<svg xmlns="http://www.w3.org/2000/svg" xmlns:xlink="http://www.w3.org/1999/xlink" version="1.1" fill="f7d7da" enable-background="new 0 0 1000 1000" xml:space="preserve" width="1000" height="1000" style=""><rect id="backgroundrect" width="100%" height="100%" x="0" y="0" fill="none" stroke="none"/>
<metadata> Svg Vector Icons : http://www.onlinewebfonts.com/icon </metadata>

<g class="currentLayer" style=""><title>Layer 1</title><g fill="#6da0ff" id="svg_1" class="" fill-opacity="1"><path fill="#6da0ff" d="M308.4,815.7c-1.8,0-3.7-0.2-5.5-0.7c-11.7-3-18.8-15-15.8-26.7l28.1-109.1c3-11.7,15-18.8,26.7-15.8c11.7,3,18.8,15,15.8,26.7l-28.1,109.1C327.1,809.1,318.1,815.7,308.4,815.7L308.4,815.7z" id="svg_2"/><path fill="#6da0ff" d="M446.3,815.7c-1.8,0-3.7-0.2-5.5-0.7c-11.7-3-18.8-15-15.8-26.7l28.1-109.1c3-11.7,15-18.8,26.7-15.8c11.7,3,18.8,15,15.8,26.7l-28.1,109.1C465,809.1,456,815.7,446.3,815.7L446.3,815.7z" id="svg_3"/><path fill="#6da0ff" d="M806,584.7c-12.1,0-21.9-9.8-21.9-22c0-12.1,9.8-21.9,21.9-21.9c77.3,0,140.1-62.9,140.1-140.1c0-77.3-62.9-140.1-140.1-140.1H786c-12.1,0-22-9.8-22-22v-19.9c0-91.8-74.7-166.5-166.5-166.5c-27.9,0-55.5,7-79.8,20.3c-10.6,5.8-24,1.9-29.8-8.7c-5.8-10.6-1.9-24,8.7-29.8c30.7-16.8,65.6-25.7,100.9-25.7c115.3,0,209.3,93.3,210.4,208.4c100.6,1.1,182,83.2,182,184C990,502.2,907.4,584.7,806,584.7L806,584.7z" id="svg_4"/><path fill="#6da0ff" d="M610.8,641.2H194c-101.5,0-184-82.6-184-184c0-100.8,81.5-182.9,182-184c1.1-115.1,95-208.4,210.4-208.4c115.3,0,209.3,93.3,210.4,208.4c100.6,1.1,182,83.2,182,184C794.8,558.6,712.2,641.2,610.8,641.2L610.8,641.2z M194,317c-77.3,0-140.1,62.9-140.1,140.1c0,77.3,62.9,140.1,140.1,140.1h416.7c77.3,0,140.1-62.9,140.1-140.1c0-77.3-62.9-140.1-140.1-140.1h-20c-12.1,0-22-9.8-22-22v-19.9c0-91.8-74.7-166.5-166.5-166.5c-91.8,0-166.5,74.7-166.5,166.5v19.9c0,12.1-9.8,22-21.9,22H194L194,317z" id="svg_5"/><path fill="#6da0ff" d="M349.1,991.7c-3.8,0-7.7-0.6-11.6-1.8c-20.1-6.4-31.1-27.8-24.8-47.9l18.5-58.1c6.4-20.1,27.8-31.2,47.9-24.8c20.1,6.4,31.2,27.8,24.8,47.9l-18.5,58.1C380.2,981.3,365.2,991.7,349.1,991.7L349.1,991.7z" id="svg_6"/></g></g></svg>