<svg width="112" height="122" viewBox="0 0 112 122" fill="none" xmlns="http://www.w3.org/2000/svg">
<path d="M63.1011 46.5227H15.8077C14.7131 46.5227 13.8241 45.6288 13.8241 44.5376C13.8241 43.4425 14.7131 42.5525 15.8077 42.5525H63.1004C64.1893 42.5525 65.084 43.4419 65.084 44.5376C65.084 45.6333 64.1899 46.5227 63.1011 46.5227ZM42.2029 62.3978C42.2029 61.3027 41.3139 60.4127 40.2187 60.4127H15.8077C14.7131 60.4127 13.8241 61.3021 13.8241 62.3978C13.8241 63.489 14.7131 64.3842 15.8077 64.3842H40.2187C41.3171 64.3842 42.2029 63.489 42.2029 62.3978ZM15.8077 78.2634C14.7131 78.2634 13.8241 79.1547 13.8241 80.2485C13.8241 81.3416 14.7131 82.2329 15.8077 82.2329H28.3222C29.4167 82.2329 30.3064 81.3416 30.3064 80.2485C30.3064 79.1547 29.4174 78.2634 28.3222 78.2634H15.8077V78.2634ZM112 94.8172C112 95.9103 111.109 96.8016 110.016 96.8016H93.7874C93.0899 96.8016 92.4472 96.4336 92.0902 95.8326L90.1606 92.6035L85.1695 100.299C84.7934 100.865 84.1698 101.202 83.5035 101.202C83.4296 101.202 83.3565 101.198 83.282 101.19C82.5381 101.105 81.903 100.609 81.6395 99.9034L76.7648 86.715L73.4868 95.5149C73.1998 96.2904 72.4559 96.8093 71.6267 96.8093H62.1172C61.0245 96.8093 60.1336 95.9141 60.1336 94.8248C60.1336 93.7278 61.0245 92.8403 62.1172 92.8403H70.2394L74.9053 80.3147C75.1917 79.5348 75.9356 79.0197 76.7654 79.0197C77.5947 79.0197 78.3386 79.5354 78.6256 80.3185L83.9807 94.8172L88.5531 87.7763C88.9254 87.2033 89.5217 86.8226 90.2587 86.8691C90.9447 86.8844 91.576 87.2492 91.9285 87.8349L94.9119 92.8397H104.108C104.921 91.3505 105.533 89.9397 105.824 88.6677C106.394 86.9079 106.653 85.2755 106.653 83.6323C106.653 77.9062 103.53 72.6181 98.5119 69.8353C96.1872 68.5632 93.5596 67.8813 90.9167 67.8813C86.2202 67.8813 81.8024 69.9556 78.7955 73.5839C78.4156 74.0372 77.8575 74.3008 77.2688 74.3008C76.6795 74.3008 76.1144 74.0417 75.7421 73.5801C71.0304 67.889 62.5283 66.2649 56.0283 69.8429C51.0174 72.6181 47.8985 77.9024 47.8985 83.6361C47.8985 85.28 48.1601 86.9086 48.6756 88.4818C51.2275 99.9022 72.2821 114.363 77.2656 117.65C80.5436 115.495 90.7391 108.524 98.09 100.763C98.846 99.9646 100.109 99.9416 100.896 100.682C101.694 101.438 101.725 102.69 100.977 103.488C91.8051 113.184 78.8744 121.353 78.3316 121.694C78.0058 121.895 77.6417 122 77.2733 122C76.9093 122 76.5332 121.899 76.2194 121.694C75.065 120.969 48.0424 103.846 44.8554 89.5291C44.2603 87.7451 43.9352 85.6983 43.9352 83.6361C43.9352 76.4642 47.8355 69.8505 54.1166 66.3693C60.6535 62.7753 68.9507 63.3897 74.9416 67.5172V22.1208H60.1737V26.3851C60.1737 27.4808 59.2847 28.3702 58.192 28.3702H20.7079C19.6133 28.3702 18.7236 27.4808 18.7236 26.3851V22.1208H3.95448V110.99H53.4446C54.5392 110.99 55.4288 111.882 55.4288 112.975C55.4288 114.072 54.5398 114.96 53.4446 114.96H1.98424C0.887116 114.96 0 114.072 0 112.975V20.1357C0 19.0406 0.887116 18.1505 1.98424 18.1505H18.7357V12.6963C18.7357 11.605 19.6247 10.7112 20.7199 10.7112H28.8516C28.8516 10.68 28.8516 10.6437 28.8516 10.6163C28.851 4.76094 33.6118 0 39.4614 0C45.311 0 50.0711 4.76094 50.0711 10.6163C50.0711 10.6475 50.0711 10.6838 50.0711 10.7112H58.2028C59.2936 10.7112 60.1864 11.6044 60.1864 12.6963V18.1505H76.9341C78.0344 18.1505 78.9177 19.04 78.9177 20.1357V68.0793C84.955 63.4776 93.6436 62.6206 100.448 66.354C106.733 69.8429 110.631 76.4565 110.631 83.6285C110.631 85.6874 110.305 87.7381 109.655 89.708C109.454 90.6534 109.073 91.7198 108.578 92.8321H110.027C111.112 92.8321 112 93.7157 112 94.8172ZM56.2052 14.6846H47.7942C47.182 14.6846 46.6067 14.407 46.2306 13.9269C45.8526 13.4463 45.7234 12.8204 45.8685 12.2194C46.0238 11.6089 46.095 11.097 46.095 10.6201C46.095 6.95106 43.1149 3.9734 39.4531 3.9734C35.7914 3.9734 32.8093 6.95106 32.8093 10.6201C32.8093 11.1084 32.8812 11.6127 33.032 12.215C33.1835 12.8064 33.0473 13.4424 32.6757 13.9263C32.3021 14.4108 31.7224 14.6839 31.1082 14.6839H22.6959V24.4032H56.2052V14.6846Z" fill="#D4DCEF"/>
</svg>
