<svg width="54" height="52" viewBox="0 0 54 52" fill="none" xmlns="http://www.w3.org/2000/svg">
<path d="M43.8749 42.6251H42.615L39.1815 23.3748C38.5423 19.8622 35.4872 17.3126 31.9169 17.3126H22.083C18.5121 17.3126 15.4573 19.8623 14.8189 23.3784L11.3849 42.6251H10.125C8.38033 42.6251 6.96094 44.0445 6.96094 45.7891V50.0079C6.96094 50.5903 7.43312 51.0625 8.01562 51.0625H45.9843C46.5667 51.0625 47.039 50.5903 47.039 50.0079V45.7891C47.039 44.0445 45.6196 42.6251 43.8749 42.6251ZM16.8949 23.7521C17.3504 21.2431 19.5324 19.422 22.083 19.422H31.9169C34.4672 19.422 36.6496 21.2432 37.1054 23.7488L40.4723 42.6251H13.5276L16.8949 23.7521ZM44.9296 48.9532H9.07031V45.7891C9.07031 45.2076 9.54344 44.7344 10.125 44.7344C12.4952 44.7344 42.4388 44.7344 43.8749 44.7344C44.4565 44.7344 44.9296 45.2076 44.9296 45.7891V48.9532Z" fill="#F56473"/>
<path d="M37.7843 39.2726L36.2371 30.756C36.133 30.1827 35.583 29.8021 35.0109 29.9068C34.4377 30.0109 34.0576 30.5598 34.1617 31.1329L35.7089 39.6495C35.8138 40.2271 36.3673 40.6025 36.9351 40.4988C37.5083 40.3947 37.8885 39.8456 37.7843 39.2726Z" fill="#F56473"/>
<path d="M52.9453 25.7501H43.875C43.2926 25.7501 42.8203 26.2223 42.8203 26.8047C42.8203 27.3871 43.2926 27.8594 43.875 27.8594H52.9453C53.5277 27.8594 54 27.3871 54 26.8047C54 26.2223 53.5277 25.7501 52.9453 25.7501Z" fill="#F56473"/>
<path d="M10.125 25.7501H1.05469C0.472183 25.7501 0 26.2223 0 26.8047C0 27.3871 0.472183 27.8594 1.05469 27.8594H10.125C10.7075 27.8594 11.1797 27.3871 11.1797 26.8047C11.1797 26.2223 10.7075 25.7501 10.125 25.7501Z" fill="#F56473"/>
<path d="M45.6458 8.15995C45.2338 7.7482 44.5662 7.7482 44.1542 8.15995L38.1878 14.1263C37.7759 14.5382 37.7759 15.206 38.1878 15.6179C38.5999 16.0298 39.2674 16.0297 39.6794 15.6179L45.6458 9.65159C46.0578 9.23963 46.0578 8.5718 45.6458 8.15995Z" fill="#F56473"/>
<path d="M15.8138 14.1263L9.84741 8.15999C9.43545 7.74824 8.76773 7.74813 8.35577 8.15999C7.94391 8.57184 7.94391 9.23967 8.35577 9.65163L14.3221 15.618C14.7342 16.0298 15.4018 16.0298 15.8138 15.618C16.2256 15.2061 16.2256 14.5383 15.8138 14.1263Z" fill="#F56473"/>
<path d="M27 0.437622C26.4176 0.437622 25.9453 0.90991 25.9453 1.49231V9.92979C25.9453 10.5122 26.4176 10.9845 27 10.9845C27.5824 10.9845 28.0547 10.5122 28.0547 9.92979V1.49231C28.0547 0.90991 27.5824 0.437622 27 0.437622Z" fill="#F56473"/>
<path d="M34.3828 25.7501C33.8006 25.7501 33.3281 26.2226 33.3281 26.8047C33.3281 27.3869 33.8006 27.8594 34.3828 27.8594C34.965 27.8594 35.4375 27.3869 35.4375 26.8047C35.4375 26.2226 34.965 25.7501 34.3828 25.7501Z" fill="#F56473"/>
</svg>
