<svg width="101" height="95" viewBox="0 0 101 95" fill="none" xmlns="http://www.w3.org/2000/svg">
<path d="M82.062 78.9057H79.7055L73.2836 42.9008C72.0881 36.3309 66.374 31.5623 59.6962 31.5623H41.3033C34.6243 31.5623 28.9107 36.3311 27.7167 42.9075L21.294 78.9057H18.9375C15.6743 78.9057 13.0195 81.5605 13.0195 84.8236V92.7142C13.0195 93.8035 13.9027 94.6868 14.9922 94.6868H86.0073C87.0966 94.6868 87.9799 93.8035 87.9799 92.7142V84.8236C87.9799 81.5605 85.3252 78.9057 82.062 78.9057ZM31.5996 43.6064C32.4516 38.9137 36.5326 35.5076 41.3033 35.5076H59.6962C64.4662 35.5076 68.548 38.9139 69.4006 43.6003L75.6979 78.9057H25.3016L31.5996 43.6064ZM84.0347 90.7415H16.9648V84.8236C16.9648 83.7359 17.8497 82.851 18.9375 82.851C23.3706 82.851 79.3759 82.851 82.062 82.851C83.1497 82.851 84.0347 83.7359 84.0347 84.8236V90.7415Z" fill="#F7D8DD"/>
<path d="M70.6671 72.6353L67.7732 56.7062C67.5785 55.6339 66.5498 54.9221 65.4799 55.1178C64.4077 55.3125 63.6968 56.3393 63.8915 57.4112L66.7853 73.3403C66.9814 74.4205 68.0167 75.1228 69.0787 74.9287C70.1509 74.734 70.862 73.707 70.6671 72.6353Z" fill="#F7D8DD"/>
<path d="M99.0272 47.3434H82.0625C80.9732 47.3434 80.0898 48.2268 80.0898 49.3161C80.0898 50.4054 80.9732 51.2887 82.0625 51.2887H99.0272C100.117 51.2887 101 50.4054 101 49.3161C101 48.2268 100.117 47.3434 99.0272 47.3434Z" fill="#F7D8DD"/>
<path d="M18.9374 47.3434H1.97264C0.883152 47.3434 0 48.2268 0 49.3161C0 50.4054 0.883152 51.2887 1.97264 51.2887H18.9374C20.0269 51.2887 20.91 50.4054 20.91 49.3161C20.91 48.2268 20.0269 47.3434 18.9374 47.3434Z" fill="#F7D8DD"/>
<path d="M85.3706 14.4435C84.6001 13.6734 83.3514 13.6734 82.5807 14.4435L71.4215 25.6027C70.6512 26.373 70.6512 27.6221 71.4215 28.3926C72.1922 29.163 73.4407 29.1628 74.2114 28.3926L85.3706 17.2334C86.1411 16.4629 86.1411 15.2138 85.3706 14.4435Z" fill="#F7D8DD"/>
<path d="M29.5777 25.6027L18.4184 14.4435C17.6479 13.6734 16.399 13.6732 15.6285 14.4435C14.8582 15.2138 14.8582 16.4629 15.6285 17.2334L26.7878 28.3926C27.5585 29.163 28.8072 29.163 29.5777 28.3926C30.348 27.6223 30.348 26.3732 29.5777 25.6027Z" fill="#F7D8DD"/>
<path d="M50.5 0C49.4107 0 48.5273 0.883349 48.5273 1.97264V17.7538C48.5273 18.8431 49.4107 19.7264 50.5 19.7264C51.5893 19.7264 52.4726 18.8431 52.4726 17.7538V1.97264C52.4726 0.883349 51.5893 0 50.5 0Z" fill="#F7D8DD"/>
<path d="M64.3086 47.3434C63.2197 47.3434 62.3359 48.2272 62.3359 49.3161C62.3359 50.405 63.2197 51.2887 64.3086 51.2887C65.3975 51.2887 66.2812 50.405 66.2812 49.3161C66.2812 48.2272 65.3975 47.3434 64.3086 47.3434Z" fill="#F7D8DD"/>
</svg>
