<svg width="76" height="96" viewBox="0 0 76 96" fill="none" xmlns="http://www.w3.org/2000/svg">
<path d="M53.4572 43.6692C52.5318 42.7438 51.0354 42.7438 50.1101 43.6692L22.5847 71.2142C21.6593 72.1396 21.6593 73.636 22.5847 74.5614C23.0375 75.0142 23.6479 75.2505 24.2582 75.2505C24.8686 75.2505 25.4593 75.0142 25.9318 74.5614L53.4572 47.036C54.3826 46.0909 54.3826 44.5945 53.4572 43.6692Z" fill="#F7D8DD"/>
<path d="M48.3573 60.0899C46.1915 60.0899 44.1438 60.9365 42.5884 62.4723C39.4185 65.6422 39.4185 70.8204 42.5884 73.9904C44.1241 75.5261 46.1718 76.3728 48.3573 76.3728C50.5428 76.3728 52.5708 75.5261 54.1262 73.9904C55.6817 72.4546 56.5086 70.407 56.5086 68.2215C56.5086 66.036 55.662 64.008 54.1262 62.4526C52.5905 60.8971 50.5231 60.0899 48.3573 60.0899ZM50.7791 70.6629C50.1293 71.3127 49.2827 71.6671 48.3573 71.6671C47.4516 71.6671 46.5853 71.3127 45.9355 70.6629C44.5967 69.3241 44.5967 67.1583 45.9355 65.8194C46.5853 65.1697 47.4319 64.8153 48.3573 64.8153C49.263 64.8153 50.1293 65.1697 50.7791 65.8194C51.4288 66.4692 51.7832 67.3158 51.7832 68.2412C51.7832 69.1666 51.4091 70.0132 50.7791 70.6629Z" fill="#F7D8DD"/>
<path d="M33.4114 55.8173C36.5813 52.6474 36.5813 47.4692 33.4114 44.2992C31.8756 42.7635 29.828 41.9168 27.6425 41.9168C25.4767 41.9168 23.429 42.7635 21.8736 44.2992C18.7036 47.4692 18.7036 52.6474 21.8736 55.8173C23.4093 57.3531 25.457 58.1997 27.6425 58.1997C29.828 58.1997 31.8756 57.3531 33.4114 55.8173ZM25.2207 47.6464C25.8704 46.9966 26.7171 46.6422 27.6425 46.6422C28.5679 46.6422 29.4145 46.9966 30.0642 47.6464C31.4031 48.9852 31.4031 51.151 30.0642 52.4899C29.4145 53.1396 28.5679 53.494 27.6425 53.494C26.7171 53.494 25.8704 53.1396 25.2207 52.4899C23.9015 51.151 23.9015 48.9852 25.2207 47.6464Z" fill="#F7D8DD"/>
<path d="M76 83.008L70.5264 21.322C70.428 20.1013 69.4041 19.1759 68.1637 19.1759H56.6259C56.6062 8.91786 48.258 0.569672 38 0.569672C27.742 0.569672 19.3938 8.91786 19.3741 19.1759H7.83627C6.61554 19.1759 5.59171 20.1013 5.47358 21.322L0 83.008C0 83.0868 0 83.1458 0 83.2246C0 90.0961 6.32021 95.6878 14.0777 95.6878H61.9223C69.6798 95.6878 76 90.0961 76 83.2246C76 83.1458 76 83.0868 76 83.008ZM38 5.29506C45.6591 5.29506 51.8808 11.5168 51.9005 19.1759H24.0995C24.1192 11.5168 30.3409 5.29506 38 5.29506ZM61.9223 90.9427H14.0777C8.95855 90.9427 4.78446 87.5365 4.72539 83.3034L10.0021 23.9013H19.3741V32.1904C19.3741 33.4899 20.4373 34.5531 21.7368 34.5531C23.0363 34.5531 24.0995 33.4899 24.0995 32.1904V23.9013H51.9005V32.1904C51.9005 33.4899 52.9637 34.5531 54.2632 34.5531C55.5627 34.5531 56.6259 33.4899 56.6259 32.1904V23.9013H65.9979L71.2746 83.323C71.2155 87.5365 67.0415 90.9427 61.9223 90.9427Z" fill="#F7D8DD"/>
</svg>
