<svg width="78" height="121" viewBox="0 0 78 121" fill="none" xmlns="http://www.w3.org/2000/svg">
<path d="M70.142 0H7.64528C3.42943 0 0 3.42969 0 7.64553V113.117C0 117.332 3.42968 120.762 7.64553 120.762H70.142C74.3579 120.762 77.7875 117.333 77.7875 113.117V7.64553C77.7873 3.42969 74.3579 0 70.142 0ZM3.83119 19.2162H73.9563V99.0806H3.83119V19.2162ZM7.64528 3.83119H70.142C72.2451 3.83119 73.9563 5.54221 73.9563 7.64553V16.6621H3.83119V7.64553C3.83119 5.54221 5.5422 3.83119 7.64528 3.83119ZM70.142 116.931H7.64528C5.5422 116.931 3.83094 115.22 3.83094 113.117V101.634H73.9561V113.117C73.9561 115.22 72.2451 116.931 70.142 116.931Z" fill="#D4DCEF"/>
<path d="M38.8951 103.328C35.4355 103.328 32.6211 106.142 32.6211 109.602C32.6211 113.062 35.4357 115.876 38.8951 115.876C42.3544 115.876 45.169 113.061 45.169 109.602C45.169 106.143 42.3546 103.328 38.8951 103.328ZM38.8951 113.322C36.8438 113.322 35.1752 111.653 35.1752 109.602C35.1752 107.551 36.8438 105.882 38.8951 105.882C40.9463 105.882 42.6149 107.551 42.6149 109.602C42.6149 111.653 40.9463 113.322 38.8951 113.322Z" fill="#D4DCEF"/>
<path d="M30.2107 12.1692H47.5787C48.2842 12.1692 48.8558 11.5973 48.8558 10.8921C48.8558 10.1869 48.2842 9.61505 47.5787 9.61505H30.2107C29.5052 9.61505 28.9336 10.1869 28.9336 10.8921C28.9336 11.5973 29.5052 12.1692 30.2107 12.1692Z" fill="#D4DCEF"/>
<path d="M25.613 12.1692C25.9476 12.1692 26.2771 12.0338 26.5146 11.7963C26.7521 11.5562 26.8901 11.2293 26.8901 10.8921C26.8901 10.555 26.7521 10.228 26.5146 9.98795C26.2768 9.75042 25.9473 9.61505 25.613 9.61505C25.2759 9.61505 24.9487 9.75042 24.7088 9.98795C24.4713 10.2255 24.3359 10.555 24.3359 10.8921C24.3359 11.2293 24.4713 11.5562 24.7088 11.7963C24.9464 12.0338 25.2759 12.1692 25.613 12.1692Z" fill="#D4DCEF"/>
</svg>
