<svg width="359" height="359" viewBox="0 0 359 359" fill="none" xmlns="http://www.w3.org/2000/svg">
<path fill-rule="evenodd" clip-rule="evenodd" d="M179.5 359C278.635 359 359 278.635 359 179.5C359 80.3649 278.635 0 179.5 0C80.3649 0 0 80.3649 0 179.5C0 278.635 80.3649 359 179.5 359ZM180.019 323.699C258.052 323.699 321.311 260.44 321.311 182.407C321.311 104.374 258.052 41.1157 180.019 41.1157C101.986 41.1157 38.7277 104.374 38.7277 182.407C38.7277 260.44 101.986 323.699 180.019 323.699Z" fill="#D9E0EB"/>
<path fill-rule="evenodd" clip-rule="evenodd" d="M179.5 359C278.635 359 359 278.635 359 179.5C359 80.3649 278.635 0 179.5 0C80.3649 0 0 80.3649 0 179.5C0 278.635 80.3649 359 179.5 359ZM180.019 323.699C258.052 323.699 321.311 260.44 321.311 182.407C321.311 104.374 258.052 41.1157 180.019 41.1157C101.986 41.1157 38.7277 104.374 38.7277 182.407C38.7277 260.44 101.986 323.699 180.019 323.699Z" fill="url(#paint0_linear)"/>
<defs>
<linearGradient id="paint0_linear" x1="327.16" y1="179.102" x2="-7.14898e-06" y2="179.102" gradientUnits="userSpaceOnUse">
<stop stop-color="#ECDCEA"/>
<stop offset="1" stop-color="#DDE5F2"/>
</linearGradient>
</defs>
</svg>
