<svg width="108" height="101" viewBox="0 0 108 101" fill="none" xmlns="http://www.w3.org/2000/svg">
<path d="M69.5622 76.2089C64.7163 78.9128 59.162 80.3418 53.4998 80.3418C36.0677 80.3418 21.8857 66.9547 21.8857 50.5C21.8857 34.0453 36.0679 20.6585 53.4998 20.6585C70.9319 20.6585 85.1141 34.0455 85.1141 50.5C85.1141 59.1848 81.1157 67.4226 74.1438 73.1015C73.3919 73.7138 73.3083 74.7858 73.9572 75.4955C74.6061 76.2055 75.7412 76.2846 76.4934 75.6717C84.2575 69.3474 88.7107 60.1727 88.7107 50.5C88.7107 32.1734 72.9152 17.2635 53.4998 17.2635C34.0844 17.2635 18.2891 32.1734 18.2891 50.5C18.2891 68.8268 34.0844 83.7367 53.4998 83.7367C59.8057 83.7367 65.9924 82.1442 71.3923 79.1312C72.2473 78.6542 72.5306 77.6132 72.0253 76.8062C71.5198 75.9994 70.4172 75.7319 69.5622 76.2089Z" fill="#F7D7DA"/>
<path d="M53.5022 28.3776C59.3642 28.3776 64.9749 30.4308 69.3005 34.1591C70.034 34.7909 71.1713 34.7426 71.8413 34.05C72.5107 33.3576 72.4592 32.2841 71.7257 31.6518C66.7356 27.3511 60.2638 24.9825 53.5022 24.9825C38.5958 24.9825 26.4688 36.4296 26.4688 50.5C26.4688 64.5708 38.5958 76.0181 53.5022 76.0181C68.4085 76.0181 80.536 64.571 80.5356 50.5004C80.5356 45.3871 78.9388 40.4534 75.9175 36.2322C75.3616 35.4551 74.2438 35.2512 73.4208 35.7759C72.5978 36.3006 72.3813 37.3558 72.9374 38.1326C75.5553 41.7903 76.939 46.0668 76.939 50.5002C76.939 62.6989 66.4251 72.6231 53.502 72.6231C40.5787 72.6231 30.0651 62.6987 30.0651 50.5002C30.0651 38.3017 40.5791 28.3776 53.5022 28.3776Z" fill="#F7D7DA"/>
<path d="M53.5034 13.1886C54.4965 13.1886 55.3017 12.4287 55.3017 11.4911V1.69747C55.3017 0.760064 54.4965 0 53.5034 0C52.5101 0 51.7051 0.760064 51.7051 1.69747V11.4911C51.7051 12.4285 52.5101 13.1886 53.5034 13.1886Z" fill="#F7D7DA"/>
<path d="M53.5034 87.8116C52.5101 87.8116 51.7051 88.5717 51.7051 89.5091V99.3025C51.7051 100.24 52.5101 101 53.5034 101C54.4965 101 55.3017 100.24 55.3017 99.3025V89.5091C55.3017 88.5717 54.4965 87.8116 53.5034 87.8116Z" fill="#F7D7DA"/>
<path d="M31.2787 17.5659C31.6118 18.1105 32.2162 18.4151 32.8379 18.4151C33.1433 18.4151 33.4523 18.3415 33.7353 18.1873C34.5953 17.7186 34.8902 16.6804 34.3934 15.8684L29.2056 7.38679C28.7091 6.57485 27.6094 6.2971 26.749 6.7656C25.889 7.23431 25.5942 8.27252 26.0909 9.08446L31.2787 17.5659Z" fill="#F7D7DA"/>
<path d="M75.7236 83.4339C75.2269 82.6221 74.1272 82.3438 73.2668 82.8123C72.4068 83.2812 72.1117 84.3194 72.6083 85.1313L77.7959 93.6132C78.129 94.1576 78.7332 94.4622 79.3551 94.4622C79.66 94.4622 79.9693 94.3888 80.2527 94.2347C81.1129 93.7658 81.4077 92.7276 80.911 91.9157L75.7236 83.4339Z" fill="#F7D7DA"/>
<path d="M7.82502 27.5691L16.81 32.4656C17.0932 32.6199 17.4025 32.6933 17.7076 32.6933C18.3291 32.6933 18.9333 32.3887 19.2666 31.8442C19.7632 31.0325 19.4685 29.9943 18.6085 29.5256L9.62353 24.6291C8.76377 24.1602 7.66368 24.4385 7.16714 25.2502C6.67038 26.062 6.96505 27.1004 7.82502 27.5691Z" fill="#F7D7DA"/>
<path d="M99.1738 73.4311L90.1882 68.5344C89.3284 68.0663 88.2286 68.344 87.7314 69.156C87.2348 69.9677 87.5297 71.0059 88.3899 71.475L97.3755 76.3718C97.6587 76.5258 97.9678 76.5992 98.2729 76.5992C98.8942 76.5992 99.4988 76.2946 99.8323 75.7502C100.329 74.9382 100.034 73.9 99.1738 73.4311Z" fill="#F7D7DA"/>
<path d="M13.972 50.5C13.972 49.5626 13.1668 48.8025 12.1737 48.8025H1.7983C0.805212 48.8025 0 49.5626 0 50.5C0 51.4374 0.805212 52.1975 1.7983 52.1975H12.1737C13.1668 52.1975 13.972 51.4374 13.972 50.5Z" fill="#F7D7DA"/>
<path d="M105.203 48.8025H94.8276C93.8345 48.8025 93.0293 49.5626 93.0293 50.5C93.0293 51.4374 93.8345 52.1975 94.8276 52.1975H105.203C106.196 52.1975 107.001 51.4374 107.001 50.5C107.001 49.5626 106.196 48.8025 105.203 48.8025Z" fill="#F7D7DA"/>
<path d="M16.8106 68.5344L7.82517 73.4311C6.96521 73.8998 6.67033 74.938 7.16708 75.7498C7.5002 76.2942 8.10458 76.5988 8.72631 76.5988C9.03142 76.5988 9.34072 76.5254 9.62368 76.3712L18.6091 71.4744C19.4691 71.0057 19.764 69.9675 19.2672 69.1558C18.7702 68.3438 17.671 68.0659 16.8106 68.5344Z" fill="#F7D7DA"/>
<path d="M89.2908 32.6932C89.5957 32.6932 89.905 32.6199 90.1881 32.4654L99.1738 27.5689C100.034 27.1002 100.329 26.0622 99.8323 25.25C99.3355 24.4385 98.2363 24.1597 97.3755 24.6288L88.3898 29.5253C87.5299 29.9941 87.2348 31.0321 87.7313 31.844C88.0647 32.3889 88.669 32.6932 89.2908 32.6932Z" fill="#F7D7DA"/>
<path d="M33.7367 82.8123C32.8768 82.344 31.7769 82.6217 31.2804 83.4339L26.0928 91.9157C25.5962 92.7274 25.8909 93.7658 26.7509 94.2347C27.0342 94.3888 27.3433 94.4622 27.6484 94.4622C28.2697 94.4622 28.8745 94.1576 29.2072 93.6132L34.3948 85.1313C34.8916 84.3192 34.5969 83.2812 33.7367 82.8123Z" fill="#F7D7DA"/>
<path d="M73.2607 18.1875C73.5439 18.3418 73.853 18.4151 74.1581 18.4151C74.7796 18.4151 75.384 18.1106 75.7173 17.5661L80.9051 9.08447C81.4019 8.27272 81.107 7.23452 80.247 6.76561C79.3873 6.29671 78.2872 6.57506 77.7906 7.3868L72.6026 15.8684C72.1059 16.6806 72.4008 17.7188 73.2607 18.1875Z" fill="#F7D7DA"/>
</svg>
