<svg width="62" height="62" viewBox="0 0 62 62" fill="none" xmlns="http://www.w3.org/2000/svg">
<path d="M40.3075 46.7817C37.4996 48.4415 34.2812 49.3187 31.0003 49.3187C20.8993 49.3187 12.6817 41.1009 12.6817 31C12.6817 20.8991 20.8995 12.6814 31.0003 12.6814C41.1012 12.6814 49.319 20.8992 49.319 31C49.319 36.3313 47.0021 41.3882 42.9623 44.8742C42.5266 45.2501 42.4781 45.9081 42.8541 46.3438C43.2301 46.7796 43.8879 46.8282 44.3237 46.4519C48.8226 42.5697 51.403 36.9377 51.403 31C51.403 19.75 42.2503 10.5974 31.0003 10.5974C19.7502 10.5974 10.5977 19.75 10.5977 31C10.5977 42.2501 19.7502 51.4027 31.0003 51.4027C34.6541 51.4027 38.239 50.4251 41.3679 48.5756C41.8633 48.2828 42.0275 47.6437 41.7347 47.1483C41.4418 46.6531 40.8029 46.4889 40.3075 46.7817Z" fill="#6DA0FF"/>
<path d="M31.0022 17.42C34.3989 17.42 37.65 18.6803 40.1564 20.969C40.5815 21.3568 41.2404 21.3272 41.6287 20.902C42.0165 20.477 41.9867 19.818 41.5617 19.4299C38.6702 16.7898 34.9202 15.3358 31.0022 15.3358C22.3648 15.3358 15.3379 22.3628 15.3379 31C15.3379 39.6375 22.3648 46.6646 31.0022 46.6646C39.6396 46.6646 46.6668 39.6376 46.6665 31.0003C46.6665 27.8614 45.7413 24.8328 43.9906 22.2416C43.6685 21.7646 43.0208 21.6394 42.5439 21.9615C42.067 22.2836 41.9416 22.9313 42.2638 23.4082C43.7807 25.6535 44.5825 28.2787 44.5825 31.0001C44.5825 38.4885 38.4903 44.5806 31.0021 44.5806C23.5138 44.5806 17.4218 38.4883 17.4218 31.0001C17.4218 23.5119 23.514 17.42 31.0022 17.42Z" fill="#6DA0FF"/>
<path d="M31.001 8.09597C31.5764 8.09597 32.043 7.62951 32.043 7.05395V1.04201C32.043 0.466574 31.5764 0 31.001 0C30.4254 0 29.959 0.466574 29.959 1.04201V7.05395C29.959 7.62939 30.4254 8.09597 31.001 8.09597Z" fill="#6DA0FF"/>
<path d="M31.001 53.9042C30.4254 53.9042 29.959 54.3707 29.959 54.9462V60.958C29.959 61.5334 30.4254 62 31.001 62C31.5764 62 32.043 61.5334 32.043 60.958V54.9462C32.043 54.3707 31.5764 53.9042 31.001 53.9042Z" fill="#6DA0FF"/>
<path d="M18.1244 10.7831C18.3174 11.1174 18.6676 11.3044 19.0279 11.3044C19.2048 11.3044 19.3839 11.2592 19.5478 11.1645C20.0461 10.8768 20.217 10.2395 19.9292 9.74104L16.9231 4.53449C16.6354 4.03607 15.9982 3.86557 15.4997 4.15317C15.0014 4.44089 14.8305 5.0782 15.1183 5.57662L18.1244 10.7831Z" fill="#6DA0FF"/>
<path d="M43.8765 51.2168C43.5887 50.7185 42.9515 50.5477 42.4529 50.8353C41.9546 51.1231 41.7836 51.7604 42.0713 52.2588L45.0773 57.4655C45.2703 57.7997 45.6204 57.9867 45.9807 57.9867C46.1574 57.9867 46.3366 57.9417 46.5008 57.8471C46.9993 57.5592 47.1701 56.9219 46.8823 56.4235L43.8765 51.2168Z" fill="#6DA0FF"/>
<path d="M4.53473 16.9236L9.74103 19.9294C9.90511 20.0241 10.0843 20.0691 10.2611 20.0691C10.6213 20.0691 10.9713 19.8822 11.1645 19.5479C11.4522 19.0496 11.2815 18.4123 10.7832 18.1246L5.57686 15.1188C5.07868 14.831 4.44124 15.0018 4.15352 15.5002C3.86568 15.9985 4.03643 16.6359 4.53473 16.9236Z" fill="#6DA0FF"/>
<path d="M57.4653 45.0765L52.2586 42.0706C51.7604 41.7832 51.1231 41.9537 50.835 42.4522C50.5473 42.9505 50.7182 43.5878 51.2166 43.8758L56.4233 46.8817C56.5874 46.9762 56.7665 47.0213 56.9433 47.0213C57.3033 47.0213 57.6536 46.8343 57.8469 46.5001C58.1346 46.0017 57.9636 45.3644 57.4653 45.0765Z" fill="#6DA0FF"/>
<path d="M8.09597 31C8.09597 30.4246 7.62939 29.958 7.05395 29.958H1.04201C0.466574 29.958 0 30.4246 0 31C0 31.5755 0.466574 32.042 1.04201 32.042H7.05395C7.62939 32.042 8.09597 31.5755 8.09597 31Z" fill="#6DA0FF"/>
<path d="M60.9581 29.958H54.9463C54.3709 29.958 53.9043 30.4246 53.9043 31C53.9043 31.5755 54.3709 32.042 54.9463 32.042H60.9581C61.5336 32.042 62.0001 31.5755 62.0001 31C62.0001 30.4246 61.5336 29.958 60.9581 29.958Z" fill="#6DA0FF"/>
<path d="M9.74136 42.0706L4.53482 45.0765C4.03652 45.3643 3.86565 46.0016 4.15349 46.4999C4.34652 46.8341 4.69672 47.0211 5.05697 47.0211C5.23377 47.0211 5.41299 46.976 5.57695 46.8813L10.7835 43.8754C11.2818 43.5877 11.4527 42.9504 11.1648 42.4521C10.8769 41.9536 10.2399 41.783 9.74136 42.0706Z" fill="#6DA0FF"/>
<path d="M51.7386 20.0691C51.9153 20.0691 52.0945 20.0241 52.2586 19.9292L57.4653 16.9235C57.9637 16.6357 58.1345 15.9985 57.8468 15.5C57.559 15.0018 56.922 14.8307 56.4233 15.1187L51.2166 18.1245C50.7183 18.4122 50.5473 19.0494 50.835 19.5478C51.0282 19.8823 51.3784 20.0691 51.7386 20.0691Z" fill="#6DA0FF"/>
<path d="M19.5495 50.8353C19.0512 50.5478 18.4139 50.7183 18.1261 51.2168L15.1202 56.4235C14.8325 56.9218 15.0033 57.5592 15.5016 57.8471C15.6658 57.9416 15.8449 57.9867 16.0217 57.9867C16.3817 57.9867 16.7321 57.7997 16.9249 57.4655L19.9308 52.2588C20.2186 51.7603 20.0479 51.1231 19.5495 50.8353Z" fill="#6DA0FF"/>
<path d="M42.4508 11.1646C42.6149 11.2593 42.794 11.3043 42.9708 11.3043C43.3309 11.3043 43.6811 11.1173 43.8743 10.7831L46.8803 5.57658C47.1682 5.07828 46.9973 4.44097 46.499 4.15313C46.0008 3.86529 45.3634 4.03615 45.0757 4.53445L42.0695 9.741C41.7817 10.2395 41.9525 10.8769 42.4508 11.1646Z" fill="#6DA0FF"/>
</svg>
