<svg width="62" height="51" viewBox="0 0 62 51" fill="none" xmlns="http://www.w3.org/2000/svg">
<path d="M51.2116 13.1313C50.5679 13.1313 49.9286 13.188 49.2998 13.3006C48.8553 5.89169 42.6868 0 35.168 0C31.937 0 28.7772 1.11745 26.2706 3.14626C24.0791 4.92028 22.4595 7.32387 21.6361 9.99762C21.0544 9.8798 20.4625 9.82022 19.8669 9.82022C17.1821 9.82022 14.6513 11.0339 12.9664 13.0987C12.2876 12.9689 11.5964 12.9034 10.9034 12.9034C4.8911 12.9033 0 17.7941 0 23.8059C0 29.8182 4.8911 34.7096 10.9033 34.7096H22.2648L21.596 35.6166C21.5651 35.6584 21.5375 35.7026 21.5133 35.7485C21.29 36.1737 21.3057 36.6932 21.5547 37.1047C21.8031 37.5152 22.2556 37.7702 22.7355 37.7702C22.7666 37.7702 22.7978 37.7688 22.829 37.766L26.7884 37.404L22.4113 48.6271C22.1626 49.2621 22.4085 49.9739 22.9966 50.32C23.2087 50.4449 23.4505 50.5106 23.6961 50.5106C24.1088 50.5106 24.4963 50.3285 24.7592 50.0111C24.7642 50.0051 24.7691 49.9989 24.774 49.9928L31.1919 41.8684C31.5432 41.4237 31.4674 40.7786 31.0229 40.4274C30.5781 40.0761 29.9332 40.1519 29.5819 40.5964L25.956 45.1864L29.3031 36.604C29.4323 36.2727 29.3809 35.8984 29.1671 35.6143C28.9533 35.3302 28.6085 35.1764 28.2538 35.2093L24.1708 35.5825L34.1173 22.0946L31.044 30.7949C30.9255 31.1299 30.9891 31.5025 31.2117 31.7795C31.4344 32.0565 31.7851 32.1989 32.1373 32.155L36.6954 31.5917L31.619 38.0176C31.2677 38.4623 31.3435 39.1075 31.7881 39.4586C32.2326 39.8098 32.8779 39.7344 33.2291 39.2896L36.8475 34.7093H43.7402C44.3068 34.7093 44.7662 34.2499 44.7662 33.6833C44.7662 33.1167 44.3068 32.6573 43.7402 32.6573H38.4686L39.3114 31.5905C39.4075 31.4715 39.4789 31.3383 39.5302 31.1986C39.6555 30.8575 39.6474 30.4736 39.4888 30.1362C39.2628 29.6531 38.7723 29.3411 38.2389 29.3411C38.1968 29.3411 38.1548 29.3438 38.113 29.349L33.5309 29.915L37.2501 19.3865C37.2503 19.3863 37.2503 19.3861 37.2504 19.386C37.251 19.384 37.2517 19.3821 37.2524 19.3801C37.3011 19.2419 37.3526 19.0962 37.4015 18.9467C37.4042 18.9386 37.4068 18.9307 37.4095 18.9226C37.4176 18.8975 37.4255 18.8725 37.4335 18.8472C37.4355 18.8405 37.4378 18.8338 37.4399 18.8272C37.4467 18.8055 37.4532 18.7838 37.4597 18.762C37.4629 18.7514 37.4663 18.741 37.4693 18.7303C37.4742 18.7138 37.4789 18.6972 37.4837 18.6808C37.4883 18.6648 37.493 18.6488 37.4975 18.6328C37.5007 18.6216 37.5036 18.6103 37.5067 18.599C37.5127 18.5776 37.5185 18.5563 37.5242 18.5349C37.5261 18.5278 37.5278 18.5206 37.5295 18.5135C37.536 18.488 37.5426 18.4627 37.5487 18.4371C37.5503 18.4307 37.5517 18.4243 37.5532 18.4179C37.5594 18.3918 37.5656 18.3658 37.5712 18.3396C37.5731 18.3308 37.5748 18.322 37.5767 18.3131C37.5817 18.2894 37.5868 18.2655 37.5914 18.2418C37.5921 18.2377 37.5928 18.2337 37.5936 18.2296C37.5989 18.2012 37.6041 18.1729 37.6086 18.1446C37.6091 18.1414 37.6094 18.138 37.61 18.1348C37.6146 18.1058 37.619 18.0768 37.6227 18.0479C37.6232 18.0439 37.6236 18.0399 37.6242 18.0359C37.6278 18.008 37.631 17.9799 37.6336 17.9521C37.6342 17.9452 37.6346 17.9383 37.6352 17.9313C37.6374 17.9066 37.6394 17.8818 37.6409 17.8572C37.6411 17.852 37.6411 17.8469 37.6414 17.8417C37.6427 17.8156 37.6438 17.7895 37.6441 17.7636C37.6442 17.7574 37.6438 17.7513 37.6439 17.7451C37.6441 17.7204 37.644 17.6957 37.6432 17.6713C37.6431 17.6658 37.6425 17.6606 37.6424 17.655C37.6414 17.6299 37.6401 17.6051 37.638 17.5806C37.6376 17.5763 37.637 17.5719 37.6364 17.5676C37.634 17.5421 37.6315 17.5168 37.6278 17.4919C37.6266 17.4838 37.6249 17.4759 37.6236 17.4678C37.6202 17.4467 37.6169 17.4258 37.6126 17.4049C37.6109 17.3971 37.6087 17.3894 37.6069 17.3817C37.6023 17.3612 37.5977 17.3405 37.592 17.3203C37.5886 17.3083 37.5845 17.2967 37.5807 17.2849C37.5759 17.2693 37.5714 17.2536 37.5658 17.2381C37.5599 17.2216 37.553 17.2057 37.5463 17.1896C37.5421 17.1792 37.5382 17.1685 37.5337 17.1584C37.526 17.1413 37.5173 17.125 37.5087 17.1082C37.5041 17.0994 37.5001 17.0902 37.4953 17.0815C37.4859 17.0642 37.4751 17.0473 37.4645 17.0306C37.4597 17.0229 37.4555 17.0151 37.4505 17.0075C37.4371 16.9873 37.4222 16.9675 37.4071 16.9479C37.4043 16.9443 37.4019 16.9403 37.3988 16.9368C37.3069 16.8215 37.1855 16.7203 37.0283 16.6376C36.1117 16.1538 35.2968 17.0282 34.556 18.0416L23.7782 32.6568H10.9033C6.02272 32.6573 2.05205 28.6865 2.05205 23.8057C2.05205 18.9255 6.02272 14.9551 10.9033 14.9551C11.6556 14.9551 12.405 15.05 13.1309 15.2373C13.5474 15.345 13.986 15.1814 14.2307 14.8282C15.5132 12.9771 17.6202 11.872 19.867 11.872C20.6052 11.872 21.3359 11.9908 22.0389 12.2249C22.3141 12.3162 22.6147 12.2874 22.8672 12.145C23.1196 12.0026 23.2999 11.7601 23.3638 11.4774C24.6178 5.92778 29.4718 2.05181 35.168 2.05181C41.843 2.05181 47.2735 7.48226 47.2735 14.1571C47.2735 14.2784 47.2688 14.3987 47.2643 14.5183L47.2625 14.5642C47.2499 14.8972 47.4001 15.2156 47.6649 15.4178C47.9296 15.62 48.2763 15.6813 48.5943 15.5815C49.4394 15.3169 50.32 15.1827 51.2116 15.1827C56.0287 15.1827 59.9479 19.1025 59.9479 23.9204C59.9479 28.7378 56.0287 32.6569 51.2116 32.6569H47.1597C46.5931 32.6569 46.1337 33.1164 46.1337 33.683C46.1337 34.2496 46.5931 34.709 47.1597 34.709H51.2116C57.1605 34.709 62 29.8693 62 23.9204C62 17.9715 57.1604 13.1313 51.2116 13.1313Z" fill="#F7D7DA"/>
</svg>
