<svg width="127" height="128" viewBox="0 0 127 128" fill="none" xmlns="http://www.w3.org/2000/svg">
<path d="M26.1565 106.653L31.75 110.877C32.3997 111.367 33.2971 111.366 33.9453 110.873L39.5276 106.636L45.1196 110.858C45.7691 111.348 46.6657 111.347 47.314 110.854L52.895 106.624L58.4884 110.848C58.832 111.103 59.2542 111.227 59.6811 111.199L61.3943 113.91C61.8299 114.598 62.6696 114.911 63.449 114.678L70.1509 112.68L73.8956 118.606C74.3302 119.294 75.1694 119.61 75.9504 119.378L82.6752 117.365L86.414 123.294C86.7828 123.878 87.4509 124.203 88.1384 124.13C88.8258 124.059 89.4121 123.604 89.6532 122.957L93.8032 111.924L93.819 111.9C93.821 111.889 93.8226 111.879 93.8242 111.871L124.068 31.3235C124.311 30.6783 124.167 29.9498 123.696 29.4454C123.226 28.9401 122.51 28.746 121.848 28.9427L115.127 30.9387L111.388 25.0122C110.953 24.3239 110.114 24.0079 109.333 24.2397L102.613 26.2369L98.882 20.3155C98.4476 19.6254 97.6078 19.3084 96.8258 19.5409L90.1042 21.537L86.3574 15.6126C85.9228 14.9243 85.0836 14.6083 84.3026 14.8401L77.5905 16.837L74.6346 12.1721L74.6339 11.4757C74.6346 10.7857 74.244 10.1534 73.6252 9.84578C73.0072 9.53835 72.2677 9.6082 71.7172 10.0249L66.1345 14.2737L60.5347 10.0464C59.8843 9.55574 58.9878 9.557 58.3396 10.0496L52.7581 14.2916L47.1649 10.0663C46.5145 9.5809 45.62 9.58516 44.9744 10.0782L39.3933 14.3185L33.8006 10.0898C33.1511 9.59937 32.2546 9.60063 31.6063 10.0941L26.023 14.3314L20.4327 10.1049C19.9285 9.72366 19.2629 9.63127 18.6745 9.8612C18.0852 10.091 17.6584 10.6105 17.5468 11.2324C17.5283 11.34 17.5183 11.4483 17.5178 11.5574L17.6583 109.45C17.6566 110.141 18.0473 110.772 18.6661 111.08C19.2849 111.387 20.0242 111.318 20.5741 110.901L26.1565 106.653ZM69.5324 109.061L63.7293 110.799L62.7598 109.266L66.2649 106.603L69.5324 109.061ZM77.2984 20.7084L84.0194 18.7158L87.7638 24.6484C88.1984 25.3368 89.0378 25.6519 89.8181 25.4191L96.5314 23.4155L100.263 29.337C100.697 30.0271 101.537 30.344 102.319 30.1115L109.044 28.1144L112.789 34.0418C113.224 34.7302 114.063 35.0462 114.844 34.8144L119.377 33.4676L117.151 39.3943C116.214 39.0405 115.167 39.5125 114.81 40.4483C114.773 40.5517 114.744 40.6573 114.724 40.7656C114.569 41.6294 115.053 42.4805 115.874 42.7888L91.0447 108.917C90.1086 108.567 89.0658 109.039 88.7099 109.973C88.6722 110.075 88.6433 110.182 88.6231 110.289C88.4689 111.152 88.9504 112.001 89.7699 112.31L87.537 118.258L85.0076 114.259C84.5728 113.571 83.7342 113.257 82.955 113.488L76.2317 115.484L73.4542 111.089C73.5607 111.066 73.6639 111.031 73.7629 110.986C74.3794 110.678 74.7696 110.047 74.7684 109.358L74.7669 106.516C75.6156 106.455 76.3098 105.814 76.4359 104.972C76.5626 104.131 76.0883 103.314 75.2938 103.007L74.7611 102.808L74.7552 97.5598L74.7389 86.069C75.3423 86.7372 76.1839 87.141 77.0821 87.1933C78.4382 87.2743 79.7156 86.553 80.3463 85.3505L84.898 76.8697L94.3221 75.7458C95.618 75.5844 96.7169 74.7155 97.1731 73.492C97.6293 72.2684 97.3679 70.8924 96.4942 69.922L90.1765 62.9877L92.3156 53.5053C92.6491 52.1827 92.1532 50.7897 91.0589 49.9759C90.0067 49.147 88.5707 49.001 87.3736 49.6013L79.096 53.8206L74.6969 51.195L74.655 27.1485C75.5034 27.0896 76.1976 26.449 76.3252 25.6081C76.4521 24.7661 75.9786 23.9493 75.1851 23.6416L74.6509 23.4411L74.6444 18.9932L75.2439 19.9394C75.6784 20.6286 76.5177 20.9437 77.2978 20.7118L77.2984 20.7084ZM74.6963 55.4258L77.27 56.9622C78.2862 57.5408 79.5235 57.5732 80.5678 57.0491L88.6883 52.9936L86.6099 62.203C86.3645 63.3092 86.6716 64.4663 87.4318 65.3061L93.6174 72.1589L84.4531 73.252C83.3227 73.3822 82.3294 74.0587 81.7934 75.0617L77.3249 83.43L74.727 77.1045L74.6963 55.4258ZM21.2836 99.4493C22.2876 99.4482 23.1016 98.6327 23.1005 97.6287C23.0996 96.6239 22.2848 95.8109 21.28 95.8118L21.1738 25.1871C22.1778 25.186 22.9916 24.3714 22.9906 23.3674C22.9897 22.3626 22.1749 21.5496 21.17 21.5505L21.1607 15.2099L24.9341 18.0587C25.5828 18.5491 26.48 18.5488 27.1282 18.0562L32.7041 13.8158L38.2976 18.0394C38.9472 18.5299 39.8439 18.5278 40.492 18.0352L46.0789 13.7968L51.6712 18.0228C52.3214 18.5143 53.2196 18.5133 53.8679 18.0199L59.4477 13.7775L65.0426 18.0032C65.6921 18.4936 66.5885 18.4932 67.2375 18.0008L71.003 15.1392L71.0131 21.4799C70.0253 21.5031 69.2378 22.312 69.2392 23.2995C69.2415 24.287 70.0314 25.0929 71.0192 25.1134L71.0929 77.4373L71.0906 77.4499L71.109 95.7369C70.2316 95.739 69.4812 96.3669 69.3243 97.2296C69.3047 97.3378 69.2945 97.4478 69.2945 97.5588C69.3005 98.5593 70.1144 99.3677 71.116 99.3654L71.1233 105.707L67.3502 102.857C66.7007 102.366 65.8042 102.368 65.156 102.86L59.574 107.1L53.9817 102.875C53.3313 102.385 52.4346 102.387 51.7864 102.879L46.2054 107.119L40.6118 102.896C39.964 102.41 39.0727 102.412 38.4263 102.899L32.8436 107.138L27.2486 102.923C26.5991 102.433 25.7025 102.434 25.0543 102.927L21.288 105.788L21.2836 99.4493Z" fill="#D4DCEF"/>
<path d="M37.1532 23.3452C37.1591 24.3465 37.974 25.1543 38.9747 25.1518L42.5338 25.1515C43.1927 25.1649 43.807 24.8209 44.1405 24.2522C44.4731 23.6833 44.4721 22.979 44.1371 22.4109C43.802 21.8436 43.1868 21.5017 42.5279 21.5171L38.968 21.5217C37.9667 21.5276 37.159 22.3416 37.1614 23.3432L37.1532 23.3452Z" fill="#D4DCEF"/>
<path d="M47.8314 23.3383C47.8371 24.3405 48.6519 25.1491 49.6545 25.1461L53.2135 25.1414C53.8724 25.1548 54.4876 24.8109 54.8202 24.242C55.1528 23.6732 55.1517 22.9689 54.8176 22.4009C54.4825 21.8336 53.8664 21.4916 53.2076 21.507L49.6482 21.5134C48.7709 21.5146 48.0198 22.1415 47.8621 23.004C47.8421 23.1148 47.8323 23.2266 47.8314 23.3383V23.3383Z" fill="#D4DCEF"/>
<path d="M58.5138 23.3147C58.5197 24.3161 59.3353 25.1248 60.337 25.1216L63.9011 25.1231C64.5598 25.1374 65.175 24.7934 65.5076 24.2246C65.8402 23.6557 65.8393 22.9506 65.505 22.3834C65.1701 21.8153 64.554 21.4733 63.895 21.4895L60.3331 21.4955C59.4575 21.497 58.7071 22.1249 58.5495 22.9866C58.5283 23.0946 58.5163 23.2042 58.5138 23.3147Z" fill="#D4DCEF"/>
<path d="M33.6705 23.3484C33.6646 22.347 32.8498 21.5384 31.8472 21.5414L28.2879 21.5478C27.2999 21.5718 26.5125 22.38 26.514 23.3674C26.5152 24.3557 27.3061 25.1609 28.2931 25.1812L31.855 25.1753C32.339 25.1754 32.802 24.9822 33.1426 24.6393C33.4833 24.2964 33.673 23.8319 33.6705 23.3484Z" fill="#D4DCEF"/>
<path d="M33.7764 97.6091C33.7705 96.6078 32.9549 95.799 31.9532 95.8022L28.3933 95.8067C27.7365 95.7963 27.1254 96.1418 26.7939 96.7091C26.4632 97.2775 26.4647 97.9792 26.7983 98.5454C27.1317 99.1123 27.7442 99.4546 28.4009 99.4414L31.9613 99.4344C32.4444 99.4343 32.9074 99.2411 33.2479 98.8991C33.5886 98.5562 33.7781 98.0925 33.7764 97.6091V97.6091Z" fill="#D4DCEF"/>
<path d="M37.2621 97.6076C37.268 98.609 38.082 99.4166 39.0835 99.4151L42.6444 99.4143C43.3012 99.4247 43.9132 99.0793 44.2438 98.5118C44.5744 97.9444 44.573 97.2417 44.2395 96.6756C43.9069 96.1088 43.2935 95.7664 42.6367 95.7804L39.0765 95.7866C38.2 95.788 37.4498 96.415 37.2921 97.2776C37.2723 97.3867 37.2619 97.4975 37.2621 97.6076V97.6076Z" fill="#D4DCEF"/>
<path d="M47.9404 97.5906C47.9453 98.5926 48.761 99.4005 49.7628 99.3973L53.3229 99.3911C53.9817 99.4054 54.5969 99.0615 54.9295 98.4926C55.2621 97.9237 55.2612 97.2186 54.9269 96.6515C54.592 96.0833 53.9759 95.7413 53.3169 95.7576L49.7567 95.7638C48.8802 95.7652 48.1291 96.392 47.9714 97.2546C47.9514 97.3654 47.9415 97.4781 47.9404 97.5906V97.5906Z" fill="#D4DCEF"/>
<path d="M58.6217 97.5755C58.6275 98.5776 59.4432 99.3856 60.4449 99.3824L64.0051 99.3762C64.6708 99.4004 65.296 99.0592 65.6354 98.4863C65.9749 97.9135 65.9736 97.2004 65.6324 96.6285C65.2911 96.0566 64.6641 95.717 63.9987 95.7443L60.4372 95.7485C59.4358 95.7544 58.6282 96.5685 58.6307 97.5692L58.6217 97.5755Z" fill="#D4DCEF"/>
<path d="M52.7942 77.4656L54.0439 67.9256L62.4631 63.5563C63.6247 62.9495 64.3523 61.7471 64.3508 60.4364C64.3484 59.1256 63.6185 57.9252 62.4548 57.3216L54.0961 53.075L52.7475 43.4347C52.5671 42.0987 51.6317 40.9861 50.3469 40.579C49.0612 40.1718 47.6565 40.5433 46.7396 41.5316L40.4798 48.3897L31.3559 46.7618C30.0562 46.5286 28.7375 47.0528 27.9533 48.114C27.1525 49.18 27.0297 50.608 27.6343 51.7962L32.0331 60.4295L27.6633 69.1748C27.0654 70.3648 27.1928 71.7909 27.9928 72.8554C28.7795 73.9158 30.1015 74.4362 31.4 74.1975L40.3713 72.4955L46.7904 79.3809C47.7093 80.3674 49.115 80.7342 50.3991 80.3243C51.6833 79.9135 52.615 78.7996 52.792 77.4635L52.7942 77.4656ZM43.0301 70.0244C42.2266 69.1531 41.031 68.7552 39.8651 68.9707L31.0303 70.5698L35.2864 62.0573C35.7825 61.0629 35.7807 59.8937 35.2833 58.9004L31.0005 50.399L39.8412 51.9748C41.0082 52.1832 42.201 51.7804 43.002 50.9066L49.1943 44.2381L50.5021 53.5722C50.6591 54.6996 51.3534 55.6813 52.3648 56.2049L60.6556 60.4016L52.3802 64.6956C51.3766 65.2261 50.6875 66.2057 50.5279 67.33L49.2465 76.6687L43.0301 70.0244Z" fill="#D4DCEF"/>
<path d="M79.2589 106.431C79.2201 106.534 79.1914 106.64 79.1718 106.749C79.0165 107.612 79.5004 108.463 80.3217 108.772L83.4695 109.954C84.0811 110.2 84.778 110.096 85.2898 109.681C85.8025 109.266 86.0501 108.606 85.9378 107.957C85.8254 107.308 85.3696 106.77 84.7476 106.553L81.5947 105.37C80.6561 105.019 79.6118 105.494 79.2589 106.431Z" fill="#D4DCEF"/>
<path d="M103.361 36.1499C103.322 36.253 103.293 36.3594 103.273 36.4677C103.117 37.3314 103.602 38.1834 104.423 38.491L108.228 39.918C108.839 40.1604 109.533 40.0544 110.044 39.6409C110.554 39.2265 110.801 38.5696 110.69 37.9215C110.579 37.2742 110.127 36.7372 109.508 36.517L105.693 35.0881C104.756 34.7414 103.715 35.2153 103.361 36.1499Z" fill="#D4DCEF"/>
<path d="M80.4735 27.5673C80.1224 28.5041 80.594 29.5486 81.5282 29.9045L85.3444 31.3327C85.9564 31.5814 86.6549 31.4771 87.1693 31.0625C87.683 30.6469 87.9309 29.9859 87.817 29.3354C87.7033 28.6841 87.2448 28.147 86.6208 27.931L82.8157 26.504C82.3642 26.3341 81.8632 26.351 81.4244 26.5503C80.9848 26.7495 80.6425 27.1157 80.4735 27.5673Z" fill="#D4DCEF"/>
<path d="M91.9153 31.8639C91.8776 31.9663 91.8487 32.0729 91.8284 32.1802C91.6741 33.0434 92.158 33.8944 92.9786 34.2018L96.7947 35.6308C97.4124 35.9155 98.1378 35.8317 98.6738 35.4133C99.2099 34.9948 99.4679 34.3119 99.3415 33.6435C99.2152 32.9751 98.7269 32.4334 98.0746 32.2386L94.2695 30.8115C93.8179 30.6372 93.3158 30.6504 92.874 30.8474C92.4311 31.0452 92.0863 31.4109 91.9153 31.8639Z" fill="#D4DCEF"/>
</svg>
