<svg width="106" height="106" viewBox="0 0 106 106" fill="none" xmlns="http://www.w3.org/2000/svg">
<path d="M61.0125 0H0V61.0125H61.0125V0ZM57.9098 57.9098H3.10271V3.10271H57.9098V57.9098Z" fill="#D4DCEF"/>
<path d="M64.6307 44.6733V47.776H102.582V102.583H47.7746V64.6321H44.6719V105.686H105.684V44.6733H64.6307Z" fill="#D4DCEF"/>
<path d="M30.5056 34.3912C29.3267 32.8616 28.3769 31.1804 27.6705 29.3718L27.1053 27.9237L18.4471 31.3263L19.0139 32.7705C19.942 35.1346 21.1853 37.3923 22.7117 39.4814C22.9044 39.7443 23.1052 40.0088 23.3132 40.2724C22.3908 40.7256 21.4321 41.1102 20.4483 41.4231L14.3832 43.3502L17.2013 52.2205L23.2672 50.2934C25.8354 49.4774 28.2664 48.3268 30.5072 46.8689C32.7487 48.3268 35.1798 49.4766 37.7471 50.2934L43.8139 52.2213L46.6303 43.3494L40.5652 41.4239C39.5831 41.1118 38.6252 40.7264 37.7012 40.2724C37.9092 40.0088 38.11 39.7443 38.3019 39.4806C41.3659 35.2926 43.2712 30.4128 43.8558 25.2894H48.6042V15.9829H35.7813V9.18805H25.6467V15.9821H12.4102V25.2894H34.463C33.9074 28.5969 32.5407 31.7392 30.5056 34.3912ZM15.5129 22.1867V19.0848H28.7494V12.2908H32.6786V19.0848H45.5015V22.1867H40.9837L40.8893 23.6381C40.562 28.6994 38.8018 33.5437 35.7982 37.6487C35.3032 38.326 34.7452 39.0138 34.1404 39.6911L32.8987 41.0836L34.4936 42.0504C36.103 43.026 37.8294 43.8098 39.6258 44.3806L42.7342 45.3676L41.7956 48.3252L38.6873 47.3374C36.0756 46.5069 33.6244 45.2926 31.3998 43.7275L30.5072 43.0994L29.6146 43.7275C27.3908 45.2926 24.9387 46.5069 22.3271 47.3366L19.2187 48.3243L18.2794 45.3676L21.3885 44.3798C23.1882 43.8073 24.9145 43.0244 26.5207 42.0512L28.1164 41.0836L26.8739 39.6919C26.27 39.0146 25.7112 38.3276 25.2161 37.6503C24.1582 36.2021 23.2519 34.6645 22.5109 33.0631L25.3935 31.9303C26.4062 34.0912 27.7375 36.0764 29.3646 37.8478L30.5064 39.092L31.6489 37.8478C35.1612 34.0243 37.3335 29.059 37.7657 23.8663L37.9052 22.1867H15.5129Z" fill="#D4DCEF"/>
<path d="M71.9737 89.5539H78.3855V95.9649H88.5193V72.2841C88.5193 64.9289 82.5356 58.9444 75.1796 58.9444C67.8243 58.9444 61.8398 64.9289 61.8398 72.2841V95.9649H71.9737V89.5539ZM68.8718 92.863H64.9418V72.2841C64.9418 66.6391 69.5345 62.0463 75.1796 62.0463C80.8246 62.0463 85.4174 66.6391 85.4174 72.2841V92.863H81.4874V86.4512H68.8718V92.863Z" fill="#D4DCEF"/>
<path d="M81.4868 72.2841C81.4868 68.8064 78.6574 65.9763 75.1789 65.9763C71.7005 65.9763 68.8711 68.8064 68.8711 72.2841V82.1083H81.4868V72.2841ZM78.3848 79.0056H71.973V72.2841C71.973 70.5166 73.4115 69.0782 75.1789 69.0782C76.9464 69.0782 78.3848 70.5166 78.3848 72.2841V79.0056Z" fill="#D4DCEF"/>
<path d="M88.5177 17.8898V34.2065L82.8929 28.5816L80.6997 30.7756L90.0691 40.145L99.4385 30.7756L97.2453 28.5816L91.6205 34.2065V17.8898C91.6205 12.4729 87.2131 8.06641 81.7963 8.06641H73.5234V11.1683H81.7963C85.5029 11.1683 88.5177 14.1839 88.5177 17.8898Z" fill="#D4DCEF"/>
<path d="M67.3203 8.06641H70.423V11.1683H67.3203V8.06641Z" fill="#D4DCEF"/>
<path d="M17.1669 87.796V71.4794L22.7918 77.1043L24.9849 74.9103L15.6155 65.5408L6.24609 74.9103L8.43928 77.1043L14.0642 71.4794V87.796C14.0642 93.2129 18.4715 97.6194 23.8884 97.6194H32.1612V94.5175H23.8884C20.1817 94.5175 17.1669 91.5019 17.1669 87.796V87.796Z" fill="#D4DCEF"/>
<path d="M35.2617 94.5175H38.3644V97.6194H35.2617V94.5175Z" fill="#D4DCEF"/>
<path d="M46.2266 6.41187H54.4994V9.51377H46.2266V6.41187Z" fill="#D4DCEF"/>
<path d="M40.0195 6.41187H43.1214V9.51377H40.0195V6.41187Z" fill="#D4DCEF"/>
<path d="M99.4804 60.7021V50.8779H89.6562V53.9806H96.3777V60.7021H99.4804Z" fill="#D4DCEF"/>
</svg>
