<svg width="85" height="113" viewBox="0 0 85 113" fill="none" xmlns="http://www.w3.org/2000/svg">
<path d="M83.4251 14.2594L43.2863 0.134572C42.7789 -0.0448573 42.2211 -0.0448573 41.7137 0.134572L1.57493 14.2594C0.631966 14.5926 0 15.4825 0 16.4803V44.7299C0 81.288 5.43712 94.6497 41.4371 112.747C41.7713 112.915 42.1357 113 42.5 113C42.8643 113 43.2287 112.915 43.5629 112.747C79.5629 94.6497 85 81.288 85 44.7299V16.4803C85 15.4825 84.368 14.5929 83.4251 14.2594ZM80.2776 44.7299C80.2776 79.7453 75.7999 91.0792 42.4998 108.006C9.19993 91.0792 4.72215 79.7453 4.72215 44.7299V18.147L42.5 4.85204L80.2779 18.147L80.2776 44.7299Z" fill="#D4DCEF"/>
<path d="M28.5 50.5L39.5 73L43 73L60 40" stroke="#D4DCEF" stroke-width="4"/>
</svg>
