<svg width="51" height="44" viewBox="0 0 51 44" fill="none" xmlns="http://www.w3.org/2000/svg">
<path d="M49.7017 30.3111C48.9848 30.3111 48.4034 30.8774 48.4034 31.5761V36.4099C48.4034 39.2 46.0737 41.4699 43.2102 41.4699H7.78975C4.92628 41.4699 2.59662 39.2 2.59662 36.4099V31.5761C2.59662 30.8774 2.0154 30.3111 1.29831 30.3111C0.581221 30.3111 0 30.8774 0 31.5761V36.4099C0 40.5951 3.4945 44 7.78975 44H43.2102C47.5055 44 51 40.5951 51 36.4099V31.5761C51 30.8774 50.4188 30.3111 49.7017 30.3111Z" fill="#9B51E0"/>
<path d="M41.7105 36.1778H9.28964C8.57754 36.1778 8 36.6155 8 37.1556C8 37.6956 8.57734 38.1333 9.28964 38.1333H41.7104C42.4227 38.1333 43 37.6956 43 37.1556C43 36.6155 42.4227 36.1778 41.7105 36.1778Z" fill="#9B51E0"/>
<path d="M38.5657 10.3079L27.6671 0.807696C26.4317 -0.269135 24.5685 -0.269329 23.3329 0.807696L12.4344 10.3078C11.8984 10.7748 11.8521 11.5775 12.3308 12.1004C12.8095 12.6232 13.632 12.6688 14.1682 12.2015L24.199 3.45784V28.0637C24.199 28.765 24.7817 29.3333 25.5002 29.3333C26.2188 29.3333 26.8013 28.765 26.8013 28.0637V3.45784L36.8322 12.2015C37.0804 12.4178 37.39 12.5244 37.6985 12.5244C38.0562 12.5244 38.4122 12.3813 38.6694 12.1005C39.1479 11.5776 39.1016 10.7751 38.5657 10.3079Z" fill="#9B51E0"/>
</svg>
