<svg width="133" height="124" viewBox="0 0 133 124" fill="none" xmlns="http://www.w3.org/2000/svg">
<path d="M3.93391 18.7314H2.93391V19.7314V101.737V102.737H3.93391H75.9392H76.9392V101.737V19.7314V18.7314H75.9392H3.93391ZM75.9392 18.1088H76.9392V17.1088V7.85051C76.9392 5.13847 74.7343 2.93391 72.0226 2.93391H7.85025C5.13847 2.93391 2.93391 5.13855 2.93391 7.85051V17.1088V18.1088H3.93391H75.9392ZM3.93365 103.359H2.93365V104.359V116.149C2.93365 118.861 5.13855 121.066 7.85025 121.066H72.0226C74.7343 121.066 76.9389 118.861 76.9389 116.149V104.359V103.359H75.9389H3.93365ZM7.85025 1H72.0226C75.7991 1 78.8728 4.07388 78.8731 7.85051V116.149C78.8731 119.926 75.7991 123 72.0226 123H7.85051C4.07394 123 1 119.926 1 116.149V7.85051C1 4.07388 4.0737 1 7.85025 1Z" stroke="#D4DCEF" stroke-width="2"/>
<path d="M34.4922 112.541C34.4922 109.54 36.9344 107.098 39.9344 107.098C42.9343 107.098 45.3765 109.541 45.3765 112.541C45.3765 115.54 42.9341 117.983 39.9344 117.983C36.9346 117.983 34.4922 115.541 34.4922 112.541ZM35.1148 112.541C35.1148 115.199 37.2758 117.36 39.9344 117.36C42.5929 117.36 44.7539 115.199 44.7539 112.541C44.7539 109.882 42.593 107.721 39.9344 107.721C37.2758 107.721 35.1148 109.882 35.1148 112.541Z" stroke="#D4DCEF" stroke-width="2"/>
<path d="M48.856 11.4954H31.0222C30.8503 11.4954 30.7109 11.3561 30.7109 11.1841C30.7109 11.0122 30.8503 10.8728 31.0222 10.8728H48.856C49.0279 10.8728 49.1673 11.0122 49.1673 11.1841C49.1673 11.3561 49.0279 11.4954 48.856 11.4954Z" stroke="#D4DCEF" stroke-width="2"/>
<path d="M26.5164 11.4072C26.4613 11.4613 26.3787 11.4954 26.2996 11.4954C26.2168 11.4954 26.1346 11.4606 26.0801 11.4072C26.0211 11.3465 25.9883 11.2639 25.9883 11.1841C25.9883 11.1013 26.0231 11.0189 26.0766 10.9645C26.1367 10.9059 26.2194 10.8728 26.2996 10.8728C26.3782 10.8728 26.4609 10.9067 26.5166 10.9612C26.5791 11.0255 26.6109 11.1094 26.6109 11.1841C26.6109 11.2589 26.579 11.3429 26.5164 11.4072Z" stroke="#D4DCEF" stroke-width="2"/>
<path d="M75.0727 74.987H76.0676L76.0727 75.982L76.1325 87.8324L90.2865 75.2399L90.5708 74.987H90.9512H124.443C126.863 74.987 128.781 73.0824 128.781 70.8024V35.4009C128.781 33.1234 126.863 31.2185 124.443 31.2185H70.5551C68.135 31.2185 66.2167 33.1234 66.2167 35.4009V70.8024C66.2167 73.0824 68.1353 74.987 70.5551 74.987H75.0727Z" stroke="#D4DCEF" stroke-width="2"/>
<path d="M91.1357 78.4609L91.4206 78.2055H91.8032H125.443C129.077 78.2055 132 75.3128 132 71.8024V34.4009C132 30.8909 129.077 28 125.443 28H69.5573C65.9227 28 63 30.8909 63 34.4009V71.8024C63 75.3128 65.9231 78.2055 69.5573 78.2055H71.8649H72.8599L72.8649 79.2005L72.9425 94.7705L91.1357 78.4609ZM75.8083 90.7977L74.1548 92.2687L74.1436 90.0556L74.0776 76.987H70.5551C67.0862 76.987 64.2166 74.2417 64.2166 70.8024V35.4009C64.2166 31.9635 67.0865 29.2185 70.5551 29.2185H124.443C127.911 29.2185 130.781 31.9635 130.781 35.4009V70.8024C130.781 74.2417 127.912 76.987 124.443 76.987H91.3316L75.8083 90.7977Z" stroke="#D4DCEF" stroke-width="2"/>
<path d="M88.7443 40.9221L87.2562 40.0901V41.7949V63.2073V64.9121L88.7443 64.0801L107.892 53.3739L109.453 52.5011L107.892 51.6283L88.7443 40.9221ZM86 38.6966L110.935 52.501L86 66.3035V38.6966Z" stroke="#D4DCEF" stroke-width="2"/>
</svg>
