<svg width="203" height="142" viewBox="0 0 203 142" fill="none" xmlns="http://www.w3.org/2000/svg">
<path d="M111.035 141.816H27.9245C12.5275 141.816 0 129.293 0 113.896C0 98.7157 12.1807 86.3226 27.283 85.9801C32.6581 67.3277 49.6504 54.4491 69.2001 54.4491C85.4035 54.4491 99.9943 63.2313 107.645 77.471C108.855 77.3366 109.96 77.2716 111.031 77.2716C128.825 77.2716 143.307 91.7454 143.307 109.535C143.312 127.334 128.833 141.816 111.035 141.816ZM27.9245 90.3106C14.9203 90.3106 4.33476 100.892 4.33476 113.896C4.33476 126.9 14.9159 137.477 27.9245 137.477H111.035C126.441 137.477 138.977 124.941 138.977 109.535C138.977 94.1338 126.441 81.6064 111.035 81.6064C109.739 81.6064 108.373 81.7191 106.739 81.9661C105.807 82.1005 104.893 81.628 104.476 80.7827C97.7836 67.2193 84.2635 58.7882 69.2001 58.7882C51.0635 58.7882 35.3717 71.0946 31.0369 88.7154C30.7942 89.7037 29.9142 90.3149 28.8782 90.3626L27.9245 90.3106Z" fill="#7C8BFE"/>
<path d="M111.035 141.816C109.839 141.816 108.868 140.845 108.868 139.649C108.868 138.452 109.839 137.481 111.035 137.481C126.441 137.481 138.977 124.945 138.977 109.54C138.977 94.1382 126.441 81.6107 111.035 81.6107C102.96 81.6107 95.2871 85.1002 89.9814 91.1819C89.1924 92.0835 87.827 92.1745 86.921 91.3899C86.0194 90.601 85.9284 89.2312 86.713 88.3296C92.8423 81.303 101.707 77.276 111.035 77.276C128.829 77.276 143.312 91.7497 143.312 109.54C143.312 127.334 128.834 141.816 111.035 141.816Z" fill="#7C8BFE"/>
<path d="M156.244 99.123C155.689 99.123 155.134 98.9106 154.709 98.4858C153.864 97.6362 153.868 96.262 154.713 95.4168C161.176 88.984 164.735 80.4185 164.735 71.2981C164.735 52.5286 149.468 37.2572 130.694 37.2572C120.82 37.2572 111.439 41.5443 104.959 49.0175C104.17 49.9191 102.805 50.0188 101.899 49.2342C100.997 48.4496 100.897 47.0798 101.682 46.1739C108.986 37.7514 119.563 32.9182 130.694 32.9182C151.852 32.9182 169.07 50.1315 169.07 71.2938C169.07 81.5759 165.06 91.2337 157.778 98.4858C157.349 98.9149 156.794 99.123 156.244 99.123Z" fill="#7C8BFE"/>
<path d="M130.695 20.6031C129.498 20.6031 128.527 19.6321 128.527 18.4357V2.16738C128.527 0.970987 129.498 0 130.695 0C131.891 0 132.862 0.970987 132.862 2.16738V18.4357C132.862 19.6321 131.891 20.6031 130.695 20.6031Z" fill="#7C8BFE"/>
<path d="M199.834 73.4655H183.566C182.369 73.4655 181.398 72.4946 181.398 71.2982C181.398 70.1018 182.369 69.1308 183.566 69.1308H199.834C201.031 69.1308 202.002 70.1018 202.002 71.2982C202.002 72.4946 201.031 73.4655 199.834 73.4655Z" fill="#7C8BFE"/>
<path d="M168.077 36.0826C167.522 36.0826 166.967 35.8702 166.542 35.4497C165.697 34.6044 165.697 33.2303 166.542 32.385L178.047 20.8849C178.892 20.0396 180.266 20.0396 181.111 20.8849C181.957 21.7302 181.957 23.1043 181.111 23.9496L169.607 35.4497C169.186 35.8702 168.632 36.0826 168.077 36.0826Z" fill="#7C8BFE"/>
<path d="M179.577 122.353C179.022 122.353 178.467 122.141 178.042 121.72L166.542 110.224C165.697 109.379 165.697 108.005 166.542 107.16C167.387 106.314 168.762 106.314 169.607 107.16L181.107 118.655C181.952 119.501 181.952 120.875 181.107 121.72C180.687 122.145 180.132 122.353 179.577 122.353Z" fill="#7C8BFE"/>
<path d="M93.3029 36.0826C92.7481 36.0826 92.1932 35.8702 91.7684 35.4497L80.2726 23.9496C79.4274 23.1043 79.4274 21.7302 80.2726 20.8849C81.1179 20.0396 82.492 20.0396 83.3373 20.8849L94.8331 32.385C95.6784 33.2303 95.6784 34.6044 94.8331 35.4497C94.4126 35.8702 93.8578 36.0826 93.3029 36.0826Z" fill="#7C8BFE"/>
</svg>
