<svg width="62" height="47" viewBox="0 0 62 47" fill="none" xmlns="http://www.w3.org/2000/svg">
<path d="M12.1302 32.5562H10.7099C10.1345 32.5562 9.66797 33.0227 9.66797 33.5981C9.66797 34.1736 10.1344 34.64 10.7099 34.64H12.1302C12.7055 34.64 13.1721 34.1736 13.1721 33.5981C13.1721 33.0227 12.7056 32.5562 12.1302 32.5562Z" fill="#6DA0FF"/>
<path d="M32.2786 32.5562H15.5595C14.9842 32.5562 14.5176 33.0227 14.5176 33.5981C14.5176 34.1736 14.984 34.64 15.5595 34.64H32.2787C34.9622 34.64 37.1456 36.8234 37.1456 39.507C37.1456 42.1389 35.0452 44.2881 32.4327 44.3698C32.3823 44.3624 32.3311 44.3572 32.2787 44.3572C29.5997 44.3572 27.4201 42.1776 27.4201 39.4984C27.4201 38.9231 26.9537 38.4566 26.3783 38.4566C25.8028 38.4566 25.3364 38.923 25.3364 39.4984C25.3364 43.2551 28.336 46.3223 32.0656 46.4354C32.1343 46.4497 32.2055 46.4575 32.2784 46.4575C36.1111 46.4575 39.229 43.3397 39.229 39.507C39.2291 35.6743 36.1111 32.5562 32.2786 32.5562Z" fill="#6DA0FF"/>
<path d="M55.0486 32.5562H41.1942C40.6189 32.5562 40.1523 33.0227 40.1523 33.5981C40.1523 34.1736 40.6188 34.64 41.1942 34.64H55.0486C57.7322 34.64 59.9155 36.8234 59.9155 39.507C59.9155 42.1389 57.8151 44.2881 55.2026 44.3698C55.1522 44.3624 55.101 44.3572 55.0486 44.3572C52.3695 44.3572 50.1898 42.1776 50.1898 39.4984C50.1898 38.9231 49.7234 38.4566 49.1479 38.4566C48.5725 38.4566 48.106 38.923 48.106 39.4984C48.106 43.2551 51.1058 46.3223 54.8355 46.4354C54.9043 46.4497 54.9755 46.4575 55.0484 46.4575C58.881 46.4575 61.9989 43.3397 61.9989 39.507C61.9991 35.6743 58.8811 32.5562 55.0486 32.5562Z" fill="#6DA0FF"/>
<path d="M30.8443 8.0008C31.4196 8.0008 31.8862 7.53435 31.8862 6.95891C31.8862 4.27982 34.0656 2.10025 36.7447 2.10025C36.7971 2.10025 36.8483 2.09517 36.8987 2.08766C39.5113 2.1694 41.6118 4.31845 41.6118 6.95043C41.6118 8.56982 40.8093 10.0788 39.4651 10.9869C38.9883 11.3091 38.8629 11.9566 39.1851 12.4333C39.3865 12.7313 39.7148 12.892 40.0493 12.892C40.25 12.892 40.4529 12.8343 40.6317 12.7134C42.5503 11.4173 43.6956 9.26296 43.6956 6.95043C43.6956 3.11781 40.5774 0 36.7448 0C36.6718 0 36.6006 0.00762883 36.5319 0.022039C32.8024 0.135383 29.8027 3.20245 29.8027 6.95903C29.8024 7.53435 30.2689 8.0008 30.8443 8.0008Z" fill="#6DA0FF"/>
<path d="M45.6414 21.2694H54.3621C58.1945 21.2694 61.3124 18.1515 61.3124 14.3189C61.3124 10.4861 58.1946 7.36821 54.3621 7.36821C54.2891 7.36821 54.218 7.37584 54.1492 7.39025C50.4195 7.50359 47.4198 10.5707 47.4198 14.3272C47.4198 14.9026 47.8862 15.3691 48.4617 15.3691C49.037 15.3691 49.5036 14.9027 49.5036 14.3272C49.5036 11.6482 51.6831 9.46846 54.3623 9.46846C54.4148 9.46846 54.466 9.46338 54.5164 9.45587C57.1287 9.53761 59.2289 11.6869 59.2289 14.319C59.2289 17.0027 57.0456 19.1859 54.3622 19.1859H45.6415C45.0662 19.1859 44.5996 19.6524 44.5996 20.2278C44.5996 20.803 45.0661 21.2694 45.6414 21.2694Z" fill="#6DA0FF"/>
<path d="M57.4091 26.2556C56.8338 26.2556 56.3672 26.7221 56.3672 27.2975C56.3672 27.8728 56.8336 28.3394 57.4091 28.3394H58.9704C59.5457 28.3394 60.0122 27.8729 60.0122 27.2975C60.0122 26.7222 59.5458 26.2556 58.9704 26.2556H57.4091Z" fill="#6DA0FF"/>
<path d="M28.6701 27.2963C28.6701 26.721 28.2036 26.2544 27.6282 26.2544H7.69831C4.60242 26.2544 2.08366 23.7357 2.08366 20.64C2.08366 17.544 4.60242 15.0251 7.69831 15.0251C8.27242 15.0251 8.83817 15.1112 9.37994 15.2808C9.70241 15.382 10.0532 15.3204 10.3219 15.1159C10.5906 14.9118 10.7437 14.5898 10.7327 14.2524L10.7306 14.1938C10.7282 14.124 10.7255 14.0539 10.7255 13.9832C10.7255 9.62055 14.2744 6.07141 18.6366 6.07141C22.3004 6.07141 25.545 8.66222 26.3514 12.2317C26.4164 12.5188 26.5996 12.7652 26.856 12.9097C27.1127 13.0545 27.4182 13.0837 27.6975 12.9905C28.1413 12.8423 28.6029 12.7673 29.0693 12.7673C30.4893 12.7673 31.8206 13.4658 32.6307 14.6358C32.8793 14.9949 33.326 15.161 33.7484 15.0513C34.2146 14.9305 34.6966 14.8695 35.1811 14.8695C38.3202 14.8695 40.8741 17.423 40.8741 20.562C40.8741 23.701 38.3202 26.2546 35.1811 26.2546H31.3273C30.7519 26.2546 30.2854 26.7211 30.2854 27.2965C30.2854 27.8718 30.7518 28.3384 31.3273 28.3384H35.1811C35.2344 28.3384 35.2869 28.3354 35.3401 28.3344C35.3739 28.3377 35.4079 28.3396 35.4425 28.3396H53.8016C54.3769 28.3396 54.8435 27.8732 54.8435 27.2977C54.8435 26.7223 54.377 26.2558 53.8016 26.2558H40.4702C41.999 24.8349 42.9578 22.8088 42.9578 20.562C42.9578 16.2742 39.4693 12.7858 35.1811 12.7858C34.7542 12.7858 34.3284 12.8207 33.9087 12.89C32.6973 11.4974 30.9352 10.6839 29.0693 10.6839C28.7427 10.6839 28.4176 10.7086 28.0965 10.758C27.4906 8.98639 26.386 7.39775 24.9185 6.2097C23.1484 4.77704 20.9177 3.98799 18.6366 3.98799C13.4555 3.98799 9.18244 7.95079 8.68946 13.0049C8.3619 12.9629 8.03083 12.9416 7.69831 12.9416C3.4536 12.9414 0 16.3949 0 20.64C0 24.8847 3.4536 28.338 7.69831 28.338H27.6282C28.2036 28.338 28.6701 27.8716 28.6701 27.2963Z" fill="#6DA0FF"/>
</svg>
